%TF.GenerationSoftware,KiCad,Pcbnew,(6.0.11-0)*%
%TF.CreationDate,2023-05-23T17:58:12+02:00*%
%TF.ProjectId,Keyer_MEGA2560,4b657965-725f-44d4-9547-41323536302e,rev?*%
%TF.SameCoordinates,Original*%
%TF.FileFunction,Paste,Top*%
%TF.FilePolarity,Positive*%
%FSLAX46Y46*%
G04 Gerber Fmt 4.6, Leading zero omitted, Abs format (unit mm)*
G04 Created by KiCad (PCBNEW (6.0.11-0)) date 2023-05-23 17:58:12*
%MOMM*%
%LPD*%
G01*
G04 APERTURE LIST*
G04 Aperture macros list*
%AMRoundRect*
0 Rectangle with rounded corners*
0 $1 Rounding radius*
0 $2 $3 $4 $5 $6 $7 $8 $9 X,Y pos of 4 corners*
0 Add a 4 corners polygon primitive as box body*
4,1,4,$2,$3,$4,$5,$6,$7,$8,$9,$2,$3,0*
0 Add four circle primitives for the rounded corners*
1,1,$1+$1,$2,$3*
1,1,$1+$1,$4,$5*
1,1,$1+$1,$6,$7*
1,1,$1+$1,$8,$9*
0 Add four rect primitives between the rounded corners*
20,1,$1+$1,$2,$3,$4,$5,0*
20,1,$1+$1,$4,$5,$6,$7,0*
20,1,$1+$1,$6,$7,$8,$9,0*
20,1,$1+$1,$8,$9,$2,$3,0*%
G04 Aperture macros list end*
%ADD10RoundRect,0.250000X0.262500X0.450000X-0.262500X0.450000X-0.262500X-0.450000X0.262500X-0.450000X0*%
%ADD11RoundRect,0.250000X-0.250000X-0.475000X0.250000X-0.475000X0.250000X0.475000X-0.250000X0.475000X0*%
%ADD12RoundRect,0.250000X0.475000X-0.250000X0.475000X0.250000X-0.475000X0.250000X-0.475000X-0.250000X0*%
%ADD13RoundRect,0.250000X-0.450000X0.262500X-0.450000X-0.262500X0.450000X-0.262500X0.450000X0.262500X0*%
%ADD14RoundRect,0.250000X-0.475000X0.250000X-0.475000X-0.250000X0.475000X-0.250000X0.475000X0.250000X0*%
%ADD15RoundRect,0.250000X-0.262500X-0.450000X0.262500X-0.450000X0.262500X0.450000X-0.262500X0.450000X0*%
%ADD16RoundRect,0.250000X0.250000X0.475000X-0.250000X0.475000X-0.250000X-0.475000X0.250000X-0.475000X0*%
%ADD17R,2.200000X1.200000*%
G04 APERTURE END LIST*
D10*
%TO.C,R33*%
X258265300Y-171348400D03*
X256440300Y-171348400D03*
%TD*%
D11*
%TO.C,C11*%
X183962000Y-166878000D03*
X185862000Y-166878000D03*
%TD*%
D12*
%TO.C,C6*%
X198831200Y-106715600D03*
X198831200Y-104815600D03*
%TD*%
D13*
%TO.C,R1*%
X184150000Y-116435500D03*
X184150000Y-118260500D03*
%TD*%
D12*
%TO.C,C15*%
X200914000Y-144333000D03*
X200914000Y-142433000D03*
%TD*%
D14*
%TO.C,C9*%
X253561820Y-88900000D03*
X253561820Y-90800000D03*
%TD*%
D15*
%TO.C,R13*%
X251868300Y-162458400D03*
X253693300Y-162458400D03*
%TD*%
D10*
%TO.C,R23*%
X227932587Y-171323000D03*
X226107587Y-171323000D03*
%TD*%
%TO.C,R22*%
X237767500Y-171323000D03*
X235942500Y-171323000D03*
%TD*%
D12*
%TO.C,C4*%
X253765020Y-98013600D03*
X253765020Y-96113600D03*
%TD*%
D16*
%TO.C,C13*%
X245383020Y-93014800D03*
X243483020Y-93014800D03*
%TD*%
D15*
%TO.C,R2*%
X196953500Y-162306000D03*
X198778500Y-162306000D03*
%TD*%
%TO.C,R9*%
X231294300Y-162204400D03*
X233119300Y-162204400D03*
%TD*%
D14*
%TO.C,C26*%
X281432000Y-76901000D03*
X281432000Y-78801000D03*
%TD*%
D17*
%TO.C,U2*%
X198002000Y-146806000D03*
X198002000Y-142246000D03*
%TD*%
D15*
%TO.C,R7*%
X221235900Y-162204400D03*
X223060900Y-162204400D03*
%TD*%
D14*
%TO.C,C23*%
X263906000Y-77409000D03*
X263906000Y-79309000D03*
%TD*%
D12*
%TO.C,C37*%
X181813200Y-122057200D03*
X181813200Y-120157200D03*
%TD*%
D15*
%TO.C,R6*%
X211279100Y-162204400D03*
X213104100Y-162204400D03*
%TD*%
D10*
%TO.C,R24*%
X217955500Y-171323000D03*
X216130500Y-171323000D03*
%TD*%
D15*
%TO.C,R10*%
X241505100Y-162255200D03*
X243330100Y-162255200D03*
%TD*%
D12*
%TO.C,C1*%
X186690000Y-118298000D03*
X186690000Y-116398000D03*
%TD*%
D10*
%TO.C,R34*%
X208227300Y-171348400D03*
X206402300Y-171348400D03*
%TD*%
D15*
%TO.C,R16*%
X195429500Y-134239000D03*
X197254500Y-134239000D03*
%TD*%
%TO.C,R3*%
X201169900Y-162204400D03*
X202994900Y-162204400D03*
%TD*%
D10*
%TO.C,R21*%
X247927500Y-171323000D03*
X246102500Y-171323000D03*
%TD*%
D13*
%TO.C,R14*%
X181813200Y-116435500D03*
X181813200Y-118260500D03*
%TD*%
D14*
%TO.C,C25*%
X260731000Y-77409000D03*
X260731000Y-79309000D03*
%TD*%
D15*
%TO.C,R15*%
X195429500Y-132207000D03*
X197254500Y-132207000D03*
%TD*%
D11*
%TO.C,C22*%
X187899000Y-80264000D03*
X189799000Y-80264000D03*
%TD*%
D14*
%TO.C,C2*%
X237305820Y-88335000D03*
X237305820Y-90235000D03*
%TD*%
D12*
%TO.C,C8*%
X196494400Y-106664800D03*
X196494400Y-104764800D03*
%TD*%
D14*
%TO.C,C24*%
X279273000Y-76901000D03*
X279273000Y-78801000D03*
%TD*%
M02*
