%TF.GenerationSoftware,KiCad,Pcbnew,(6.0.11-0)*%
%TF.CreationDate,2023-05-23T17:58:13+02:00*%
%TF.ProjectId,Keyer_MEGA2560,4b657965-725f-44d4-9547-41323536302e,rev?*%
%TF.SameCoordinates,Original*%
%TF.FileFunction,Paste,Bot*%
%TF.FilePolarity,Positive*%
%FSLAX46Y46*%
G04 Gerber Fmt 4.6, Leading zero omitted, Abs format (unit mm)*
G04 Created by KiCad (PCBNEW (6.0.11-0)) date 2023-05-23 17:58:13*
%MOMM*%
%LPD*%
G01*
G04 APERTURE LIST*
G04 Aperture macros list*
%AMRoundRect*
0 Rectangle with rounded corners*
0 $1 Rounding radius*
0 $2 $3 $4 $5 $6 $7 $8 $9 X,Y pos of 4 corners*
0 Add a 4 corners polygon primitive as box body*
4,1,4,$2,$3,$4,$5,$6,$7,$8,$9,$2,$3,0*
0 Add four circle primitives for the rounded corners*
1,1,$1+$1,$2,$3*
1,1,$1+$1,$4,$5*
1,1,$1+$1,$6,$7*
1,1,$1+$1,$8,$9*
0 Add four rect primitives between the rounded corners*
20,1,$1+$1,$2,$3,$4,$5,0*
20,1,$1+$1,$4,$5,$6,$7,0*
20,1,$1+$1,$6,$7,$8,$9,0*
20,1,$1+$1,$8,$9,$2,$3,0*%
G04 Aperture macros list end*
%ADD10RoundRect,0.250000X-0.262500X-0.450000X0.262500X-0.450000X0.262500X0.450000X-0.262500X0.450000X0*%
%ADD11RoundRect,0.250000X-1.137500X-0.550000X1.137500X-0.550000X1.137500X0.550000X-1.137500X0.550000X0*%
%ADD12RoundRect,0.250000X0.262500X0.450000X-0.262500X0.450000X-0.262500X-0.450000X0.262500X-0.450000X0*%
%ADD13RoundRect,0.250000X0.475000X-0.250000X0.475000X0.250000X-0.475000X0.250000X-0.475000X-0.250000X0*%
%ADD14RoundRect,0.250000X-0.450000X0.262500X-0.450000X-0.262500X0.450000X-0.262500X0.450000X0.262500X0*%
%ADD15RoundRect,0.250001X-1.074999X0.462499X-1.074999X-0.462499X1.074999X-0.462499X1.074999X0.462499X0*%
%ADD16RoundRect,0.250000X-0.250000X-0.475000X0.250000X-0.475000X0.250000X0.475000X-0.250000X0.475000X0*%
%ADD17RoundRect,0.250001X-1.999999X-0.799999X1.999999X-0.799999X1.999999X0.799999X-1.999999X0.799999X0*%
%ADD18R,2.000000X1.500000*%
%ADD19RoundRect,0.250000X1.137500X0.550000X-1.137500X0.550000X-1.137500X-0.550000X1.137500X-0.550000X0*%
%ADD20R,0.400000X1.000000*%
%ADD21RoundRect,0.250000X0.250000X0.475000X-0.250000X0.475000X-0.250000X-0.475000X0.250000X-0.475000X0*%
%ADD22RoundRect,0.250000X0.450000X-0.262500X0.450000X0.262500X-0.450000X0.262500X-0.450000X-0.262500X0*%
%ADD23R,1.100000X4.000000*%
%ADD24RoundRect,0.984250X-1.238250X-0.984250X1.238250X-0.984250X1.238250X0.984250X-1.238250X0.984250X0*%
%ADD25R,2.000000X4.500000*%
%ADD26RoundRect,0.250001X-0.799999X1.999999X-0.799999X-1.999999X0.799999X-1.999999X0.799999X1.999999X0*%
%ADD27R,0.914400X0.914400*%
%ADD28RoundRect,0.250000X-0.475000X0.250000X-0.475000X-0.250000X0.475000X-0.250000X0.475000X0.250000X0*%
%ADD29RoundRect,0.250000X0.550000X-1.137500X0.550000X1.137500X-0.550000X1.137500X-0.550000X-1.137500X0*%
G04 APERTURE END LIST*
D10*
%TO.C,R11*%
X258318000Y-143256000D03*
X260143000Y-143256000D03*
%TD*%
D11*
%TO.C,C34*%
X221076500Y-144907000D03*
X225201500Y-144907000D03*
%TD*%
D12*
%TO.C,R28*%
X239037500Y-136779000D03*
X237212500Y-136779000D03*
%TD*%
D13*
%TO.C,C27*%
X251708000Y-138237000D03*
X251708000Y-136337000D03*
%TD*%
D14*
%TO.C,R18*%
X273304000Y-97639500D03*
X273304000Y-99464500D03*
%TD*%
D11*
%TO.C,C19*%
X178150500Y-92202000D03*
X182275500Y-92202000D03*
%TD*%
D15*
%TO.C,L1*%
X241554000Y-114209500D03*
X241554000Y-117184500D03*
%TD*%
D13*
%TO.C,C29*%
X234950000Y-136205000D03*
X234950000Y-134305000D03*
%TD*%
D12*
%TO.C,R30*%
X231544500Y-138303000D03*
X229719500Y-138303000D03*
%TD*%
D16*
%TO.C,C14*%
X258153500Y-140970000D03*
X260053500Y-140970000D03*
%TD*%
D17*
%TO.C,C7*%
X190583000Y-168021000D03*
X197783000Y-168021000D03*
%TD*%
D14*
%TO.C,R20*%
X276860000Y-97512500D03*
X276860000Y-99337500D03*
%TD*%
D18*
%TO.C,J10*%
X266999600Y-75064600D03*
X259999600Y-75064600D03*
X266999600Y-78464600D03*
X259999600Y-82264600D03*
X259999600Y-84464600D03*
X266999600Y-83964600D03*
%TD*%
D19*
%TO.C,C36*%
X216819500Y-145034000D03*
X212694500Y-145034000D03*
%TD*%
D13*
%TO.C,C30*%
X232664000Y-136205000D03*
X232664000Y-134305000D03*
%TD*%
D16*
%TO.C,C3*%
X280228000Y-147421600D03*
X282128000Y-147421600D03*
%TD*%
D20*
%TO.C,U1*%
X241086420Y-90165600D03*
X241736420Y-90165600D03*
X242386420Y-90165600D03*
X243036420Y-90165600D03*
X243686420Y-90165600D03*
X244336420Y-90165600D03*
X244986420Y-90165600D03*
X245636420Y-90165600D03*
X246286420Y-90165600D03*
X246936420Y-90165600D03*
X246936420Y-95965600D03*
X246286420Y-95965600D03*
X245636420Y-95965600D03*
X244986420Y-95965600D03*
X244336420Y-95965600D03*
X243686420Y-95965600D03*
X243036420Y-95965600D03*
X242386420Y-95965600D03*
X241736420Y-95965600D03*
X241086420Y-95965600D03*
%TD*%
D21*
%TO.C,C20*%
X179639000Y-88138000D03*
X177739000Y-88138000D03*
%TD*%
D22*
%TO.C,R27*%
X245104000Y-136652000D03*
X245104000Y-134827000D03*
%TD*%
D23*
%TO.C,J1*%
X239324000Y-85124400D03*
X241824000Y-85124400D03*
X243824000Y-85124400D03*
X246324000Y-85124400D03*
D24*
X249809000Y-81024400D03*
X235839000Y-80924400D03*
%TD*%
D14*
%TO.C,R17*%
X266700000Y-97639500D03*
X266700000Y-99464500D03*
%TD*%
D25*
%TO.C,Y1*%
X251377420Y-88917200D03*
X251377420Y-97417200D03*
%TD*%
D16*
%TO.C,C38*%
X258280500Y-145542000D03*
X260180500Y-145542000D03*
%TD*%
D26*
%TO.C,C16*%
X203708000Y-142196000D03*
X203708000Y-149396000D03*
%TD*%
D21*
%TO.C,C10*%
X241684820Y-98806000D03*
X239784820Y-98806000D03*
%TD*%
D18*
%TO.C,J11*%
X286964000Y-75056000D03*
X279964000Y-75056000D03*
X286964000Y-78456000D03*
X279964000Y-82256000D03*
X279964000Y-84456000D03*
X286964000Y-83956000D03*
%TD*%
D10*
%TO.C,R32*%
X215876500Y-139573000D03*
X217701500Y-139573000D03*
%TD*%
D16*
%TO.C,C18*%
X185552000Y-88696800D03*
X187452000Y-88696800D03*
%TD*%
D12*
%TO.C,R5*%
X282039700Y-143052800D03*
X280214700Y-143052800D03*
%TD*%
D27*
%TO.C,Q2*%
X217805000Y-135890000D03*
X217805000Y-137668000D03*
X215788240Y-136779000D03*
%TD*%
D18*
%TO.C,J9*%
X269956400Y-172898800D03*
X276956400Y-172898800D03*
X269956400Y-169498800D03*
X276956400Y-165698800D03*
X276956400Y-163498800D03*
X269956400Y-163998800D03*
%TD*%
D28*
%TO.C,C35*%
X213741000Y-134747000D03*
X213741000Y-136647000D03*
%TD*%
D13*
%TO.C,C17*%
X244348000Y-99705200D03*
X244348000Y-97805200D03*
%TD*%
D16*
%TO.C,C5*%
X280228000Y-140868400D03*
X282128000Y-140868400D03*
%TD*%
D12*
%TO.C,R31*%
X217701500Y-133858000D03*
X215876500Y-133858000D03*
%TD*%
D21*
%TO.C,C32*%
X231582000Y-140589000D03*
X229682000Y-140589000D03*
%TD*%
D10*
%TO.C,R25*%
X247874500Y-134010400D03*
X249699500Y-134010400D03*
%TD*%
D12*
%TO.C,R8*%
X263736500Y-140887750D03*
X261911500Y-140887750D03*
%TD*%
D10*
%TO.C,R26*%
X237212500Y-134620000D03*
X239037500Y-134620000D03*
%TD*%
D12*
%TO.C,R4*%
X282039700Y-145237200D03*
X280214700Y-145237200D03*
%TD*%
%TO.C,R12*%
X260016000Y-138684000D03*
X258191000Y-138684000D03*
%TD*%
D16*
%TO.C,C12*%
X261874000Y-143046750D03*
X263774000Y-143046750D03*
%TD*%
D29*
%TO.C,C21*%
X242062000Y-110774500D03*
X242062000Y-106649500D03*
%TD*%
D16*
%TO.C,C31*%
X241112000Y-136906000D03*
X243012000Y-136906000D03*
%TD*%
D19*
%TO.C,C33*%
X234472500Y-144907000D03*
X230347500Y-144907000D03*
%TD*%
D14*
%TO.C,R19*%
X260604000Y-97489000D03*
X260604000Y-99314000D03*
%TD*%
D22*
%TO.C,R29*%
X230378000Y-136167500D03*
X230378000Y-134342500D03*
%TD*%
D21*
%TO.C,C28*%
X243078000Y-134620000D03*
X241178000Y-134620000D03*
%TD*%
D27*
%TO.C,Q6*%
X235204000Y-139065000D03*
X235204000Y-140843000D03*
X233187240Y-139954000D03*
%TD*%
M02*
