M48
; DRILL file {KiCad (6.0.11-0)} date martes, 23 de mayo de 2023, 17:56:36
; FORMAT={-:-/ absolute / metric / decimal}
; #@! TF.CreationDate,2023-05-23T17:56:36+02:00
; #@! TF.GenerationSoftware,Kicad,Pcbnew,(6.0.11-0)
; #@! TF.FileFunction,Plated,1,2,PTH
FMAT,2
METRIC
; #@! TA.AperFunction,Plated,PTH,ViaDrill
T1C0.400
; #@! TA.AperFunction,Plated,PTH,ComponentDrill
T2C0.550
; #@! TA.AperFunction,Plated,PTH,ComponentDrill
T3C0.762
; #@! TA.AperFunction,Plated,PTH,ComponentDrill
T4C0.800
; #@! TA.AperFunction,Plated,PTH,ComponentDrill
T5C0.899
; #@! TA.AperFunction,Plated,PTH,ComponentDrill
T6C0.900
; #@! TA.AperFunction,Plated,PTH,ComponentDrill
T7C0.950
; #@! TA.AperFunction,Plated,PTH,ComponentDrill
T8C1.000
; #@! TA.AperFunction,Plated,PTH,ComponentDrill
T9C1.200
; #@! TA.AperFunction,Plated,PTH,ComponentDrill
T10C1.220
; #@! TA.AperFunction,Plated,PTH,ComponentDrill
T11C1.250
; #@! TA.AperFunction,Plated,PTH,ComponentDrill
T12C1.300
; #@! TA.AperFunction,Plated,PTH,ComponentDrill
T13C1.500
; #@! TA.AperFunction,Plated,PTH,ComponentDrill
T14C3.200
; #@! TA.AperFunction,Plated,PTH,ComponentDrill
T15C3.400
%
G90
G05
T1
X176.327Y-123.546
X176.327Y-128.067
X176.378Y-106.985
X176.428Y-94.945
X176.428Y-99.619
X176.428Y-101.905
X176.428Y-104.191
X176.428Y-110.134
X176.581Y-112.674
X176.876Y-136.141
X178.067Y-114.249
X178.41Y-136.296
X178.423Y-127.966
X178.943Y-93.726
X179.68Y-136.398
X179.832Y-90.119
X180.044Y-96.114
X180.186Y-126.122
X180.494Y-97.485
X180.494Y-99.619
X180.494Y-102.006
X180.494Y-104.292
X180.494Y-106.934
X180.494Y-110.134
X180.594Y-112.624
X180.635Y-115.128
X181.661Y-129.184
X181.813Y-114.974
X181.813Y-123.444
X182.016Y-126.543
X182.045Y-127.596
X182.169Y-135.128
X182.169Y-138.227
X182.22Y-94.031
X182.22Y-96.622
X182.626Y-167.005
X184.023Y-126.365
X184.252Y-144.678
X184.404Y-139.141
X184.556Y-129.235
X184.709Y-96.672
X184.76Y-92.202
X185.217Y-137.719
X185.674Y-79.756
X185.725Y-120.955
X186.436Y-135.128
X186.588Y-155.905
X186.944Y-136.398
X186.944Y-137.465
X187.147Y-122.428
X187.155Y-92.475
X187.452Y-112.573
X187.452Y-115.164
X187.706Y-94.437
X187.706Y-97.231
X187.757Y-100.99
X187.757Y-108.407
X187.833Y-157.607
X187.858Y-144.729
X187.858Y-152.959
X187.918Y-139.14
X188.099Y-92.802
X188.773Y-102.108
X188.773Y-114.974
X188.874Y-88.697
X189.078Y-137.998
X189.078Y-139.141
X189.078Y-140.411
X189.103Y-142.24
X189.103Y-143.383
X189.103Y-144.653
X189.103Y-145.796
X189.103Y-146.939
X189.535Y-150.368
X189.941Y-97.18
X189.941Y-100.99
X190.094Y-112.725
X190.144Y-89.002
X190.144Y-91.846
X190.221Y-137.998
X190.221Y-139.141
X190.221Y-140.411
X190.246Y-108.458
X190.246Y-142.24
X190.246Y-143.383
X190.246Y-144.653
X190.246Y-145.796
X190.246Y-146.939
X190.805Y-80.721
X190.995Y-95.352
X191.11Y-105.918
X191.364Y-137.998
X191.364Y-139.141
X191.364Y-140.411
X191.389Y-123.444
X191.389Y-142.24
X191.389Y-143.383
X191.389Y-144.653
X191.389Y-145.796
X191.389Y-146.939
X191.872Y-125.374
X191.973Y-163.068
X192.024Y-161.29
X192.075Y-135.89
X192.507Y-137.998
X192.507Y-139.141
X192.507Y-140.411
X192.532Y-142.24
X192.532Y-143.383
X192.532Y-144.653
X192.532Y-145.796
X192.532Y-146.939
X192.684Y-112.776
X192.735Y-123.139
X192.837Y-87.427
X192.938Y-108.458
X193.65Y-137.998
X193.65Y-139.141
X193.65Y-140.411
X193.675Y-142.24
X193.675Y-143.383
X193.675Y-144.653
X193.675Y-145.796
X193.675Y-146.939
X194.008Y-101.865
X194.347Y-123.329
X194.666Y-137.998
X194.666Y-139.141
X194.666Y-140.411
X194.691Y-142.24
X194.691Y-143.383
X194.691Y-144.653
X194.691Y-145.796
X194.691Y-146.939
X194.845Y-120.993
X194.869Y-105.054
X194.869Y-107.036
X194.92Y-108.407
X194.92Y-112.725
X195.707Y-162.306
X195.732Y-91.999
X195.749Y-100.524
X195.783Y-94.945
X195.783Y-98.755
X196.449Y-120.464
X196.596Y-138.887
X197.561Y-103.073
X197.561Y-123.901
X197.866Y-79.756
X197.866Y-87.986
X198.794Y-102.985
X199.644Y-137.16
X200.014Y-79.183
X200.914Y-145.669
X201.016Y-88.392
X201.041Y-168.148
X201.117Y-92.05
X201.117Y-94.894
X201.117Y-98.704
X201.117Y-100.381
X201.117Y-105.308
X201.168Y-141.351
X201.295Y-129.921
X201.403Y-103.331
X201.676Y-149.352
X201.981Y-123.901
X202.59Y-75.489
X202.59Y-80.48
X202.743Y-125.882
X202.743Y-137.211
X202.747Y-102.985
X202.895Y-108.001
X202.997Y-114.046
X203.231Y-105.333
X204.161Y-122.897
X204.604Y-105.095
X204.826Y-128.575
X204.826Y-131.42
X204.978Y-113.944
X205.08Y-108.001
X205.74Y-160.274
X205.994Y-149.352
X206.096Y-81.077
X206.299Y-94.793
X206.35Y-98.603
X206.35Y-100.533
X206.4Y-91.948
X206.451Y-155.905
X206.807Y-88.443
X207.104Y-105.818
X207.823Y-75.54
X207.823Y-80.48
X207.924Y-160.274
X209.601Y-79.756
X209.601Y-128.168
X209.601Y-130.759
X210.007Y-113.995
X210.414Y-88.087
X210.414Y-94.793
X210.464Y-91.44
X210.82Y-80.467
X211.125Y-150.927
X211.48Y-98.501
X211.48Y-101.041
X211.582Y-108.052
X211.582Y-121.527
X212.767Y-94.039
X212.903Y-80.366
X213.36Y-147.523
X214.176Y-120.688
X214.376Y-87.579
X215.265Y-146.812
X215.544Y-80.315
X215.825Y-87.561
X215.9Y-151.384
X215.951Y-101.092
X216.154Y-125.832
X216.205Y-121.056
X216.256Y-114.249
X216.408Y-108.001
X216.535Y-141.986
X216.662Y-147.955
X216.789Y-150.622
X217.17Y-165.608
X217.983Y-80.315
X218.034Y-95.555
X218.034Y-98.196
X218.034Y-103.137
X218.135Y-91.44
X218.821Y-141.986
X219.075Y-135.89
X219.253Y-163.068
X219.253Y-165.252
X220.015Y-114.046
X220.167Y-150.47
X220.523Y-80.264
X220.777Y-130.353
X220.828Y-121.006
X220.828Y-128.168
X220.878Y-91.491
X220.878Y-95.504
X220.878Y-98.247
X220.878Y-108.001
X220.878Y-125.882
X221.742Y-143.51
X222.87Y-102.298
X222.961Y-113.64
X223.063Y-75.387
X223.063Y-87.986
X223.114Y-108.052
X223.164Y-80.264
X223.926Y-95.656
X224.028Y-143.256
X224.384Y-125.222
X224.688Y-165.049
X224.739Y-163.17
X224.942Y-91.592
X225.044Y-133.477
X225.171Y-131.445
X226.822Y-91.821
X226.873Y-81.331
X226.949Y-153.67
X226.974Y-150.47
X227.457Y-165.608
X228.041Y-90.424
X228.219Y-139.319
X228.6Y-144.78
X229.006Y-87.986
X229.514Y-163.17
X229.514Y-165.71
X229.997Y-124.333
X230.022Y-79.705
X230.988Y-100.787
X231.546Y-87.681
X231.699Y-128.219
X231.699Y-130.404
X232.461Y-75.946
X232.512Y-96.825
X232.994Y-92.095
X233.02Y-93.726
X233.045Y-137.668
X233.045Y-141.605
X233.299Y-86.233
X234.239Y-115.011
X234.34Y-89.51
X234.34Y-113.081
X234.34Y-119.126
X234.438Y-100.715
X234.493Y-98.857
X234.544Y-109.118
X234.544Y-110.795
X234.752Y-105.897
X234.823Y-137.541
X235.274Y-83.82
X235.356Y-92.608
X235.426Y-78.029
X235.471Y-129.654
X235.61Y-118.313
X235.839Y-143.51
X236.093Y-137.414
X236.474Y-110.795
X236.677Y-119.177
X236.855Y-89.662
X236.982Y-92.329
X236.982Y-166.116
X237.185Y-100.787
X237.56Y-94.615
X237.998Y-75.844
X238.252Y-128.219
X238.252Y-130.353
X238.379Y-133.477
X239.065Y-115.113
X239.084Y-87.782
X239.185Y-96.571
X240.284Y-106.629
X241.554Y-119.126
X241.624Y-94.107
X242.672Y-97.282
X242.792Y-87.732
X243.656Y-91.44
X243.942Y-75.844
X243.942Y-167.132
X244.094Y-118.11
X244.602Y-163.22
X244.653Y-100.94
X245.002Y-87.822
X245.415Y-91.389
X245.618Y-130.353
X245.669Y-128.219
X245.974Y-105.308
X246.075Y-101.194
X246.482Y-97.333
X246.583Y-93.116
X246.761Y-118.11
X246.761Y-150.419
X246.761Y-153.543
X246.814Y-124.099
X247.142Y-166.216
X247.65Y-94.234
X247.802Y-128.219
X248.006Y-99.212
X248.031Y-140.843
X248.056Y-105.258
X248.939Y-87.528
X248.939Y-90.068
X249.123Y-101.295
X249.65Y-78.029
X249.701Y-85.039
X250.139Y-167.132
X250.292Y-126.187
X250.292Y-163.22
X250.342Y-118.415
X250.444Y-106.274
X250.596Y-101.041
X251.511Y-75.844
X251.562Y-105.156
X251.663Y-129.337
X251.714Y-139.548
X252.781Y-106.274
X252.952Y-91.643
X253.035Y-112.827
X253.46Y-87.681
X253.46Y-94.894
X253.492Y-99.568
X253.797Y-167.081
X254.965Y-131.013
X255.016Y-128.88
X255.27Y-163.17
X255.651Y-75.819
X255.651Y-77.851
X255.651Y-80.137
X255.651Y-82.423
X255.651Y-84.709
X255.829Y-118.516
X255.829Y-126.187
X256.743Y-138.582
X256.845Y-134.112
X256.896Y-145.542
X256.997Y-122.276
X257.81Y-100.584
X257.81Y-105.791
X257.962Y-98.908
X258.191Y-137.287
X258.505Y-121.352
X258.623Y-163.17
X259.08Y-79.045
X259.486Y-99.416
X259.511Y-120.646
X259.537Y-134.163
X259.69Y-128.93
X259.69Y-131.013
X259.715Y-101.559
X259.791Y-167.081
X260.045Y-137.16
X260.198Y-150.368
X260.223Y-80.645
X260.235Y-155.717
X260.461Y-120.336
X260.487Y-162.789
X260.655Y-160.68
X260.844Y-163.723
X260.858Y-130.048
X261.112Y-146.939
X261.163Y-127.711
X261.265Y-164.629
X261.366Y-119.888
X261.417Y-125.273
X261.772Y-105.766
X262.038Y-166.009
X262.382Y-81.331
X263.449Y-101.244
X264.16Y-80.391
X264.262Y-160.68
X264.272Y-156.059
X264.312Y-84.277
X264.709Y-148.971
X264.922Y-138.481
X264.973Y-134.163
X265.024Y-127.965
X265.074Y-124.968
X265.227Y-121.209
X265.557Y-75.438
X266.141Y-143.764
X266.141Y-146.202
X266.573Y-100.584
X266.827Y-150.749
X266.954Y-79.629
X267.614Y-168.758
X267.716Y-151.892
X267.767Y-81.636
X268.58Y-101.854
X268.681Y-160.68
X268.732Y-155.956
X269.088Y-84.277
X269.24Y-168.275
X269.291Y-75.133
X270.764Y-99.568
X273.253Y-101.194
X273.253Y-105.004
X275.285Y-83.363
X275.996Y-143.002
X276.352Y-79.121
X276.555Y-153.873
X277.622Y-76.454
X277.906Y-78.456
X277.978Y-74.879
X278.079Y-83.363
X278.181Y-125.019
X278.257Y-121.158
X278.486Y-169.113
X279.197Y-97.13
X279.908Y-81.153
X282.042Y-132.537
X282.143Y-83.312
X282.905Y-153.822
X283.083Y-124.841
X283.083Y-145.161
X283.769Y-151.587
X283.972Y-124.079
X284.378Y-156.616
X284.378Y-159.309
X284.493Y-143.307
X285.191Y-132.588
X285.623Y-123.317
X286.309Y-121.158
X286.639Y-117.348
X286.911Y-123.168
X287.909Y-121.158
X289.001Y-74.93
X289.154Y-83.363
X289.179Y-117.348
X293.624Y-84.988
X293.675Y-88.798
X293.675Y-92.405
X293.675Y-95.656
X293.675Y-99.619
X293.675Y-104.597
X293.675Y-110.388
X293.675Y-117.297
T2
X248.031Y-136.652
X248.031Y-137.922
X248.031Y-139.192
T3
X266.68Y-105.029
X266.7Y-107.569
X270.363Y-105.029
X270.383Y-107.569
T4
X177.305Y-83.213
X177.305Y-85.754
X179.845Y-83.213
X179.845Y-85.754
X182.385Y-83.213
X182.385Y-85.754
X184.925Y-83.213
X184.925Y-85.754
X187.465Y-83.213
X187.465Y-85.754
X190.005Y-83.213
X190.005Y-85.754
X190.005Y-116.233
X190.005Y-118.773
X192.545Y-83.213
X192.545Y-85.754
X192.545Y-116.233
X192.545Y-118.773
X195.085Y-83.213
X195.085Y-85.754
X195.085Y-116.233
X195.085Y-118.773
X197.625Y-83.213
X197.625Y-85.754
X197.625Y-116.233
X197.625Y-118.773
X200.165Y-83.213
X200.165Y-85.754
X200.165Y-116.233
X200.165Y-118.773
X202.705Y-83.213
X202.705Y-85.754
X202.705Y-116.233
X202.705Y-118.773
X205.245Y-83.213
X205.245Y-85.754
X205.245Y-116.233
X205.245Y-118.773
X207.785Y-83.213
X207.785Y-85.754
X207.785Y-116.233
X207.785Y-118.773
X210.325Y-83.213
X210.325Y-85.754
X210.325Y-116.233
X210.325Y-118.773
X212.865Y-83.213
X212.865Y-85.754
X212.865Y-116.233
X212.865Y-118.773
X215.405Y-83.213
X215.405Y-85.754
X215.405Y-116.233
X215.405Y-118.773
X217.945Y-83.213
X217.945Y-85.754
X217.945Y-116.233
X217.945Y-118.773
X220.485Y-83.213
X220.485Y-85.754
X220.485Y-116.233
X220.485Y-118.773
X223.025Y-83.213
X223.025Y-85.754
X223.025Y-116.233
X223.025Y-118.773
X225.565Y-83.213
X225.565Y-85.754
X225.565Y-95.913
X225.565Y-98.453
X225.565Y-100.993
X225.565Y-108.614
X225.565Y-111.153
X225.565Y-113.694
X225.565Y-116.233
X225.565Y-118.773
X228.105Y-83.213
X228.105Y-85.754
X228.105Y-95.913
X228.105Y-98.453
X228.105Y-100.993
X228.105Y-108.614
X228.105Y-111.153
X228.105Y-113.694
X228.105Y-116.233
X228.105Y-118.773
X257.815Y-87.366
X257.815Y-94.986
X260.355Y-87.366
X260.355Y-94.986
X264.165Y-87.366
X264.165Y-94.986
X266.705Y-87.366
X266.705Y-94.986
X270.769Y-87.366
X270.769Y-94.986
X273.309Y-87.366
X273.309Y-94.986
X277.119Y-87.366
X277.119Y-94.986
X279.659Y-87.366
X279.659Y-94.986
T5
X180.89Y-142.601
X180.89Y-144.701
X180.89Y-147.297
X180.89Y-149.398
X183.389Y-142.601
X183.389Y-146.898
X183.389Y-149.398
T6
X205.684Y-167.894
X208.224Y-167.894
X215.683Y-167.894
X218.223Y-167.894
X225.654Y-167.944
X228.194Y-167.944
X235.661Y-167.944
X238.201Y-167.944
X245.715Y-167.894
X248.255Y-167.894
X255.722Y-167.894
X258.262Y-167.894
T7
X187.358Y-129.388
X189.858Y-129.388
X192.358Y-129.388
X194.858Y-129.388
X197.358Y-129.388
T8
X265.095Y-165.12
X265.095Y-167.62
X270.916Y-150.724
X270.916Y-156.82
X281.33Y-157.074
X281.346Y-150.724
X282.964Y-97.474
X282.964Y-111.974
X285.464Y-97.474
X287.964Y-97.474
X287.964Y-111.974
T9
X187.314Y-77.421
X189.854Y-77.421
X192.394Y-77.421
X193.727Y-153.724
X193.727Y-158.224
X194.934Y-77.421
X197.474Y-77.421
X200.014Y-77.421
X200.227Y-153.724
X200.227Y-158.224
X202.554Y-77.421
X203.633Y-153.724
X203.633Y-158.224
X205.094Y-77.421
X207.634Y-77.421
X210.133Y-153.724
X210.133Y-158.224
X210.174Y-77.421
X212.714Y-77.421
X213.714Y-153.724
X213.714Y-158.224
X215.254Y-77.421
X217.794Y-77.421
X220.214Y-153.724
X220.214Y-158.224
X220.334Y-77.421
X222.874Y-77.421
X223.723Y-153.721
X223.723Y-158.221
X225.414Y-77.421
X230.223Y-153.721
X230.223Y-158.221
X233.731Y-153.721
X233.731Y-158.221
X240.231Y-153.721
X240.231Y-158.221
X243.714Y-153.757
X243.714Y-158.257
X249.861Y-108.367
X249.861Y-112.867
X250.214Y-153.757
X250.214Y-158.257
X253.747Y-153.724
X253.747Y-158.224
X256.361Y-108.367
X256.361Y-112.867
X260.247Y-153.724
X260.247Y-158.224
T10
X286.94Y-137.993
X286.94Y-164.003
X286.949Y-150.998
T11
X286.94Y-127.996
X286.94Y-130.495
X286.94Y-135.494
X286.94Y-154.005
X286.94Y-156.505
X286.94Y-161.503
X286.949Y-141.0
X286.949Y-143.5
X286.949Y-148.499
X291.939Y-132.994
X291.939Y-159.004
X291.948Y-145.999
T12
X220.639Y-140.233
X223.239Y-135.133
X225.639Y-140.233
X231.876Y-105.45
X231.876Y-110.45
X231.876Y-113.959
X231.876Y-118.959
X236.976Y-108.05
X236.976Y-116.559
X237.911Y-139.421
X240.311Y-144.52
X242.911Y-139.421
X268.56Y-141.632
X273.66Y-139.232
X273.66Y-144.232
T14
X179.527Y-171.094
X291.464Y-78.174
X291.494Y-170.993
T15
X179.814Y-77.382
X179.814Y-132.381
X272.814Y-77.382
X272.814Y-132.381
T8
G00X177.09Y-145.249
M15
G01X177.09Y-146.749
M16
G05
G00X178.638Y-139.25
M15
G01X177.138Y-139.25
M16
G05
G00X178.638Y-152.748
M15
G01X177.138Y-152.748
M16
G05
G00X179.374Y-163.574
M15
G01X179.374Y-161.374
M16
G05
G00X181.674Y-157.674
M15
G01X183.874Y-157.674
M16
G05
G00X185.674Y-163.774
M15
G01X185.674Y-161.174
M16
G05
T13
G00X279.864Y-104.324
M15
G01X279.864Y-105.624
M16
G05
G00X291.064Y-104.324
M15
G01X291.064Y-105.624
M16
G05
T0
M30
