%TF.GenerationSoftware,KiCad,Pcbnew,(6.0.11-0)*%
%TF.CreationDate,2023-05-23T17:58:13+02:00*%
%TF.ProjectId,Keyer_MEGA2560,4b657965-725f-44d4-9547-41323536302e,rev?*%
%TF.SameCoordinates,Original*%
%TF.FileFunction,Legend,Bot*%
%TF.FilePolarity,Positive*%
%FSLAX46Y46*%
G04 Gerber Fmt 4.6, Leading zero omitted, Abs format (unit mm)*
G04 Created by KiCad (PCBNEW (6.0.11-0)) date 2023-05-23 17:58:13*
%MOMM*%
%LPD*%
G01*
G04 APERTURE LIST*
%ADD10C,0.150000*%
%ADD11C,0.127000*%
%ADD12C,0.124460*%
%ADD13C,0.120000*%
%ADD14C,0.100000*%
%ADD15C,0.001000*%
%ADD16C,0.203200*%
G04 APERTURE END LIST*
D10*
X270235371Y-112098819D02*
X270235371Y-112432152D01*
X270759180Y-112575009D02*
X270759180Y-112098819D01*
X269759180Y-112098819D01*
X269759180Y-112575009D01*
X270092514Y-113003580D02*
X270759180Y-113003580D01*
X270187752Y-113003580D02*
X270140133Y-113051200D01*
X270092514Y-113146438D01*
X270092514Y-113289295D01*
X270140133Y-113384533D01*
X270235371Y-113432152D01*
X270759180Y-113432152D01*
X270759180Y-114336914D02*
X270235371Y-114336914D01*
X270140133Y-114289295D01*
X270092514Y-114194057D01*
X270092514Y-114003580D01*
X270140133Y-113908342D01*
X270711561Y-114336914D02*
X270759180Y-114241676D01*
X270759180Y-114003580D01*
X270711561Y-113908342D01*
X270616323Y-113860723D01*
X270521085Y-113860723D01*
X270425847Y-113908342D01*
X270378228Y-114003580D01*
X270378228Y-114241676D01*
X270330609Y-114336914D01*
X270759180Y-114813104D02*
X269759180Y-114813104D01*
X270140133Y-114813104D02*
X270092514Y-114908342D01*
X270092514Y-115098819D01*
X270140133Y-115194057D01*
X270187752Y-115241676D01*
X270282990Y-115289295D01*
X270568704Y-115289295D01*
X270663942Y-115241676D01*
X270711561Y-115194057D01*
X270759180Y-115098819D01*
X270759180Y-114908342D01*
X270711561Y-114813104D01*
X270759180Y-115860723D02*
X270711561Y-115765485D01*
X270616323Y-115717866D01*
X269759180Y-115717866D01*
X270711561Y-116622628D02*
X270759180Y-116527390D01*
X270759180Y-116336914D01*
X270711561Y-116241676D01*
X270616323Y-116194057D01*
X270235371Y-116194057D01*
X270140133Y-116241676D01*
X270092514Y-116336914D01*
X270092514Y-116527390D01*
X270140133Y-116622628D01*
X270235371Y-116670247D01*
X270330609Y-116670247D01*
X270425847Y-116194057D01*
X270759180Y-117860723D02*
X269759180Y-117860723D01*
X270378228Y-117955961D02*
X270759180Y-118241676D01*
X270092514Y-118241676D02*
X270473466Y-117860723D01*
X270711561Y-119051200D02*
X270759180Y-118955961D01*
X270759180Y-118765485D01*
X270711561Y-118670247D01*
X270616323Y-118622628D01*
X270235371Y-118622628D01*
X270140133Y-118670247D01*
X270092514Y-118765485D01*
X270092514Y-118955961D01*
X270140133Y-119051200D01*
X270235371Y-119098819D01*
X270330609Y-119098819D01*
X270425847Y-118622628D01*
X270092514Y-119432152D02*
X270759180Y-119670247D01*
X270092514Y-119908342D02*
X270759180Y-119670247D01*
X270997276Y-119575009D01*
X271044895Y-119527390D01*
X271092514Y-119432152D01*
X270711561Y-120670247D02*
X270759180Y-120575009D01*
X270759180Y-120384533D01*
X270711561Y-120289295D01*
X270616323Y-120241676D01*
X270235371Y-120241676D01*
X270140133Y-120289295D01*
X270092514Y-120384533D01*
X270092514Y-120575009D01*
X270140133Y-120670247D01*
X270235371Y-120717866D01*
X270330609Y-120717866D01*
X270425847Y-120241676D01*
X270759180Y-121146438D02*
X270092514Y-121146438D01*
X270282990Y-121146438D02*
X270187752Y-121194057D01*
X270140133Y-121241676D01*
X270092514Y-121336914D01*
X270092514Y-121432152D01*
X270759180Y-123051200D02*
X270759180Y-122479771D01*
X270759180Y-122765485D02*
X269759180Y-122765485D01*
X269902038Y-122670247D01*
X269997276Y-122575009D01*
X270044895Y-122479771D01*
X274878323Y-136666266D02*
X274402133Y-136666266D01*
X274973561Y-136951980D02*
X274640228Y-135951980D01*
X274306895Y-136951980D01*
X273544990Y-136285314D02*
X273544990Y-136951980D01*
X273973561Y-136285314D02*
X273973561Y-136809123D01*
X273925942Y-136904361D01*
X273830704Y-136951980D01*
X273687847Y-136951980D01*
X273592609Y-136904361D01*
X273544990Y-136856742D01*
X272640228Y-136951980D02*
X272640228Y-135951980D01*
X272640228Y-136904361D02*
X272735466Y-136951980D01*
X272925942Y-136951980D01*
X273021180Y-136904361D01*
X273068800Y-136856742D01*
X273116419Y-136761504D01*
X273116419Y-136475790D01*
X273068800Y-136380552D01*
X273021180Y-136332933D01*
X272925942Y-136285314D01*
X272735466Y-136285314D01*
X272640228Y-136332933D01*
X272164038Y-136951980D02*
X272164038Y-136285314D01*
X272164038Y-135951980D02*
X272211657Y-135999600D01*
X272164038Y-136047219D01*
X272116419Y-135999600D01*
X272164038Y-135951980D01*
X272164038Y-136047219D01*
X271544990Y-136951980D02*
X271640228Y-136904361D01*
X271687847Y-136856742D01*
X271735466Y-136761504D01*
X271735466Y-136475790D01*
X271687847Y-136380552D01*
X271640228Y-136332933D01*
X271544990Y-136285314D01*
X271402133Y-136285314D01*
X271306895Y-136332933D01*
X271259276Y-136380552D01*
X271211657Y-136475790D01*
X271211657Y-136761504D01*
X271259276Y-136856742D01*
X271306895Y-136904361D01*
X271402133Y-136951980D01*
X271544990Y-136951980D01*
X269592609Y-136285314D02*
X269592609Y-137094838D01*
X269640228Y-137190076D01*
X269687847Y-137237695D01*
X269783085Y-137285314D01*
X269925942Y-137285314D01*
X270021180Y-137237695D01*
X269592609Y-136904361D02*
X269687847Y-136951980D01*
X269878323Y-136951980D01*
X269973561Y-136904361D01*
X270021180Y-136856742D01*
X270068800Y-136761504D01*
X270068800Y-136475790D01*
X270021180Y-136380552D01*
X269973561Y-136332933D01*
X269878323Y-136285314D01*
X269687847Y-136285314D01*
X269592609Y-136332933D01*
X268687847Y-136951980D02*
X268687847Y-136428171D01*
X268735466Y-136332933D01*
X268830704Y-136285314D01*
X269021180Y-136285314D01*
X269116419Y-136332933D01*
X268687847Y-136904361D02*
X268783085Y-136951980D01*
X269021180Y-136951980D01*
X269116419Y-136904361D01*
X269164038Y-136809123D01*
X269164038Y-136713885D01*
X269116419Y-136618647D01*
X269021180Y-136571028D01*
X268783085Y-136571028D01*
X268687847Y-136523409D01*
X268211657Y-136951980D02*
X268211657Y-136285314D01*
X268211657Y-135951980D02*
X268259276Y-135999600D01*
X268211657Y-136047219D01*
X268164038Y-135999600D01*
X268211657Y-135951980D01*
X268211657Y-136047219D01*
X267735466Y-136285314D02*
X267735466Y-136951980D01*
X267735466Y-136380552D02*
X267687847Y-136332933D01*
X267592609Y-136285314D01*
X267449752Y-136285314D01*
X267354514Y-136332933D01*
X267306895Y-136428171D01*
X267306895Y-136951980D01*
X187427809Y-169108380D02*
X187427809Y-168108380D01*
X187189714Y-168108380D01*
X187046857Y-168156000D01*
X186951619Y-168251238D01*
X186904000Y-168346476D01*
X186856380Y-168536952D01*
X186856380Y-168679809D01*
X186904000Y-168870285D01*
X186951619Y-168965523D01*
X187046857Y-169060761D01*
X187189714Y-169108380D01*
X187427809Y-169108380D01*
X185856380Y-169013142D02*
X185904000Y-169060761D01*
X186046857Y-169108380D01*
X186142095Y-169108380D01*
X186284952Y-169060761D01*
X186380190Y-168965523D01*
X186427809Y-168870285D01*
X186475428Y-168679809D01*
X186475428Y-168536952D01*
X186427809Y-168346476D01*
X186380190Y-168251238D01*
X186284952Y-168156000D01*
X186142095Y-168108380D01*
X186046857Y-168108380D01*
X185904000Y-168156000D01*
X185856380Y-168203619D01*
X184665904Y-169108380D02*
X184665904Y-168108380D01*
X184189714Y-168441714D02*
X184189714Y-169108380D01*
X184189714Y-168536952D02*
X184142095Y-168489333D01*
X184046857Y-168441714D01*
X183904000Y-168441714D01*
X183808761Y-168489333D01*
X183761142Y-168584571D01*
X183761142Y-169108380D01*
X183284952Y-168441714D02*
X183284952Y-169441714D01*
X183284952Y-168489333D02*
X183189714Y-168441714D01*
X182999238Y-168441714D01*
X182904000Y-168489333D01*
X182856380Y-168536952D01*
X182808761Y-168632190D01*
X182808761Y-168917904D01*
X182856380Y-169013142D01*
X182904000Y-169060761D01*
X182999238Y-169108380D01*
X183189714Y-169108380D01*
X183284952Y-169060761D01*
X181951619Y-168441714D02*
X181951619Y-169108380D01*
X182380190Y-168441714D02*
X182380190Y-168965523D01*
X182332571Y-169060761D01*
X182237333Y-169108380D01*
X182094476Y-169108380D01*
X181999238Y-169060761D01*
X181951619Y-169013142D01*
X181618285Y-168441714D02*
X181237333Y-168441714D01*
X181475428Y-168108380D02*
X181475428Y-168965523D01*
X181427809Y-169060761D01*
X181332571Y-169108380D01*
X181237333Y-169108380D01*
X277566380Y-74552704D02*
X276566380Y-74552704D01*
X277566380Y-75124133D02*
X276994952Y-74695561D01*
X276566380Y-75124133D02*
X277137809Y-74552704D01*
X277518761Y-75933657D02*
X277566380Y-75838419D01*
X277566380Y-75647942D01*
X277518761Y-75552704D01*
X277423523Y-75505085D01*
X277042571Y-75505085D01*
X276947333Y-75552704D01*
X276899714Y-75647942D01*
X276899714Y-75838419D01*
X276947333Y-75933657D01*
X277042571Y-75981276D01*
X277137809Y-75981276D01*
X277233047Y-75505085D01*
X276899714Y-76314609D02*
X277566380Y-76552704D01*
X276899714Y-76790800D02*
X277566380Y-76552704D01*
X277804476Y-76457466D01*
X277852095Y-76409847D01*
X277899714Y-76314609D01*
X277518761Y-77552704D02*
X277566380Y-77457466D01*
X277566380Y-77266990D01*
X277518761Y-77171752D01*
X277423523Y-77124133D01*
X277042571Y-77124133D01*
X276947333Y-77171752D01*
X276899714Y-77266990D01*
X276899714Y-77457466D01*
X276947333Y-77552704D01*
X277042571Y-77600323D01*
X277137809Y-77600323D01*
X277233047Y-77124133D01*
X277566380Y-78028895D02*
X276899714Y-78028895D01*
X277090190Y-78028895D02*
X276994952Y-78076514D01*
X276947333Y-78124133D01*
X276899714Y-78219371D01*
X276899714Y-78314609D01*
X277566380Y-79552704D02*
X277518761Y-79457466D01*
X277471142Y-79409847D01*
X277375904Y-79362228D01*
X277090190Y-79362228D01*
X276994952Y-79409847D01*
X276947333Y-79457466D01*
X276899714Y-79552704D01*
X276899714Y-79695561D01*
X276947333Y-79790800D01*
X276994952Y-79838419D01*
X277090190Y-79886038D01*
X277375904Y-79886038D01*
X277471142Y-79838419D01*
X277518761Y-79790800D01*
X277566380Y-79695561D01*
X277566380Y-79552704D01*
X276899714Y-80743180D02*
X277566380Y-80743180D01*
X276899714Y-80314609D02*
X277423523Y-80314609D01*
X277518761Y-80362228D01*
X277566380Y-80457466D01*
X277566380Y-80600323D01*
X277518761Y-80695561D01*
X277471142Y-80743180D01*
X276899714Y-81076514D02*
X276899714Y-81457466D01*
X276566380Y-81219371D02*
X277423523Y-81219371D01*
X277518761Y-81266990D01*
X277566380Y-81362228D01*
X277566380Y-81457466D01*
X277566380Y-83076514D02*
X277566380Y-82505085D01*
X277566380Y-82790800D02*
X276566380Y-82790800D01*
X276709238Y-82695561D01*
X276804476Y-82600323D01*
X276852095Y-82505085D01*
X233437180Y-75039695D02*
X234246704Y-75039695D01*
X234341942Y-75087314D01*
X234389561Y-75134933D01*
X234437180Y-75230171D01*
X234437180Y-75420647D01*
X234389561Y-75515885D01*
X234341942Y-75563504D01*
X234246704Y-75611123D01*
X233437180Y-75611123D01*
X234389561Y-76039695D02*
X234437180Y-76182552D01*
X234437180Y-76420647D01*
X234389561Y-76515885D01*
X234341942Y-76563504D01*
X234246704Y-76611123D01*
X234151466Y-76611123D01*
X234056228Y-76563504D01*
X234008609Y-76515885D01*
X233960990Y-76420647D01*
X233913371Y-76230171D01*
X233865752Y-76134933D01*
X233818133Y-76087314D01*
X233722895Y-76039695D01*
X233627657Y-76039695D01*
X233532419Y-76087314D01*
X233484800Y-76134933D01*
X233437180Y-76230171D01*
X233437180Y-76468266D01*
X233484800Y-76611123D01*
X233913371Y-77373028D02*
X233960990Y-77515885D01*
X234008609Y-77563504D01*
X234103847Y-77611123D01*
X234246704Y-77611123D01*
X234341942Y-77563504D01*
X234389561Y-77515885D01*
X234437180Y-77420647D01*
X234437180Y-77039695D01*
X233437180Y-77039695D01*
X233437180Y-77373028D01*
X233484800Y-77468266D01*
X233532419Y-77515885D01*
X233627657Y-77563504D01*
X233722895Y-77563504D01*
X233818133Y-77515885D01*
X233865752Y-77468266D01*
X233913371Y-77373028D01*
X233913371Y-77039695D01*
X266730171Y-111946419D02*
X266730171Y-112279752D01*
X267253980Y-112422609D02*
X267253980Y-111946419D01*
X266253980Y-111946419D01*
X266253980Y-112422609D01*
X266587314Y-112851180D02*
X267253980Y-112851180D01*
X266682552Y-112851180D02*
X266634933Y-112898800D01*
X266587314Y-112994038D01*
X266587314Y-113136895D01*
X266634933Y-113232133D01*
X266730171Y-113279752D01*
X267253980Y-113279752D01*
X267253980Y-114184514D02*
X266730171Y-114184514D01*
X266634933Y-114136895D01*
X266587314Y-114041657D01*
X266587314Y-113851180D01*
X266634933Y-113755942D01*
X267206361Y-114184514D02*
X267253980Y-114089276D01*
X267253980Y-113851180D01*
X267206361Y-113755942D01*
X267111123Y-113708323D01*
X267015885Y-113708323D01*
X266920647Y-113755942D01*
X266873028Y-113851180D01*
X266873028Y-114089276D01*
X266825409Y-114184514D01*
X267253980Y-114660704D02*
X266253980Y-114660704D01*
X266634933Y-114660704D02*
X266587314Y-114755942D01*
X266587314Y-114946419D01*
X266634933Y-115041657D01*
X266682552Y-115089276D01*
X266777790Y-115136895D01*
X267063504Y-115136895D01*
X267158742Y-115089276D01*
X267206361Y-115041657D01*
X267253980Y-114946419D01*
X267253980Y-114755942D01*
X267206361Y-114660704D01*
X267253980Y-115708323D02*
X267206361Y-115613085D01*
X267111123Y-115565466D01*
X266253980Y-115565466D01*
X267206361Y-116470228D02*
X267253980Y-116374990D01*
X267253980Y-116184514D01*
X267206361Y-116089276D01*
X267111123Y-116041657D01*
X266730171Y-116041657D01*
X266634933Y-116089276D01*
X266587314Y-116184514D01*
X266587314Y-116374990D01*
X266634933Y-116470228D01*
X266730171Y-116517847D01*
X266825409Y-116517847D01*
X266920647Y-116041657D01*
X267253980Y-117708323D02*
X266253980Y-117708323D01*
X266873028Y-117803561D02*
X267253980Y-118089276D01*
X266587314Y-118089276D02*
X266968266Y-117708323D01*
X267206361Y-118898800D02*
X267253980Y-118803561D01*
X267253980Y-118613085D01*
X267206361Y-118517847D01*
X267111123Y-118470228D01*
X266730171Y-118470228D01*
X266634933Y-118517847D01*
X266587314Y-118613085D01*
X266587314Y-118803561D01*
X266634933Y-118898800D01*
X266730171Y-118946419D01*
X266825409Y-118946419D01*
X266920647Y-118470228D01*
X266587314Y-119279752D02*
X267253980Y-119517847D01*
X266587314Y-119755942D02*
X267253980Y-119517847D01*
X267492076Y-119422609D01*
X267539695Y-119374990D01*
X267587314Y-119279752D01*
X267206361Y-120517847D02*
X267253980Y-120422609D01*
X267253980Y-120232133D01*
X267206361Y-120136895D01*
X267111123Y-120089276D01*
X266730171Y-120089276D01*
X266634933Y-120136895D01*
X266587314Y-120232133D01*
X266587314Y-120422609D01*
X266634933Y-120517847D01*
X266730171Y-120565466D01*
X266825409Y-120565466D01*
X266920647Y-120089276D01*
X267253980Y-120994038D02*
X266587314Y-120994038D01*
X266777790Y-120994038D02*
X266682552Y-121041657D01*
X266634933Y-121089276D01*
X266587314Y-121184514D01*
X266587314Y-121279752D01*
X266349219Y-122327371D02*
X266301600Y-122374990D01*
X266253980Y-122470228D01*
X266253980Y-122708323D01*
X266301600Y-122803561D01*
X266349219Y-122851180D01*
X266444457Y-122898800D01*
X266539695Y-122898800D01*
X266682552Y-122851180D01*
X267253980Y-122279752D01*
X267253980Y-122898800D01*
X260758038Y-168877904D02*
X260710419Y-168735047D01*
X260710419Y-168496952D01*
X260758038Y-168401714D01*
X260805657Y-168354095D01*
X260900895Y-168306476D01*
X260996133Y-168306476D01*
X261091371Y-168354095D01*
X261138990Y-168401714D01*
X261186609Y-168496952D01*
X261234228Y-168687428D01*
X261281847Y-168782666D01*
X261329466Y-168830285D01*
X261424704Y-168877904D01*
X261519942Y-168877904D01*
X261615180Y-168830285D01*
X261662800Y-168782666D01*
X261710419Y-168687428D01*
X261710419Y-168449333D01*
X261662800Y-168306476D01*
X261377085Y-167877904D02*
X260377085Y-167877904D01*
X261329466Y-167877904D02*
X261377085Y-167782666D01*
X261377085Y-167592190D01*
X261329466Y-167496952D01*
X261281847Y-167449333D01*
X261186609Y-167401714D01*
X260900895Y-167401714D01*
X260805657Y-167449333D01*
X260758038Y-167496952D01*
X260710419Y-167592190D01*
X260710419Y-167782666D01*
X260758038Y-167877904D01*
X260758038Y-166592190D02*
X260710419Y-166687428D01*
X260710419Y-166877904D01*
X260758038Y-166973142D01*
X260853276Y-167020761D01*
X261234228Y-167020761D01*
X261329466Y-166973142D01*
X261377085Y-166877904D01*
X261377085Y-166687428D01*
X261329466Y-166592190D01*
X261234228Y-166544571D01*
X261138990Y-166544571D01*
X261043752Y-167020761D01*
X260710419Y-165687428D02*
X261234228Y-165687428D01*
X261329466Y-165735047D01*
X261377085Y-165830285D01*
X261377085Y-166020761D01*
X261329466Y-166116000D01*
X260758038Y-165687428D02*
X260710419Y-165782666D01*
X260710419Y-166020761D01*
X260758038Y-166116000D01*
X260853276Y-166163619D01*
X260948514Y-166163619D01*
X261043752Y-166116000D01*
X261091371Y-166020761D01*
X261091371Y-165782666D01*
X261138990Y-165687428D01*
X260710419Y-165211238D02*
X261710419Y-165211238D01*
X261091371Y-165116000D02*
X260710419Y-164830285D01*
X261377085Y-164830285D02*
X260996133Y-165211238D01*
X260758038Y-164020761D02*
X260710419Y-164116000D01*
X260710419Y-164306476D01*
X260758038Y-164401714D01*
X260853276Y-164449333D01*
X261234228Y-164449333D01*
X261329466Y-164401714D01*
X261377085Y-164306476D01*
X261377085Y-164116000D01*
X261329466Y-164020761D01*
X261234228Y-163973142D01*
X261138990Y-163973142D01*
X261043752Y-164449333D01*
X260710419Y-163544571D02*
X261377085Y-163544571D01*
X261186609Y-163544571D02*
X261281847Y-163496952D01*
X261329466Y-163449333D01*
X261377085Y-163354095D01*
X261377085Y-163258857D01*
X192390590Y-133395980D02*
X192390590Y-132395980D01*
X191962019Y-132491219D02*
X191914400Y-132443600D01*
X191819161Y-132395980D01*
X191581066Y-132395980D01*
X191485828Y-132443600D01*
X191438209Y-132491219D01*
X191390590Y-132586457D01*
X191390590Y-132681695D01*
X191438209Y-132824552D01*
X192009638Y-133395980D01*
X191390590Y-133395980D01*
X190390590Y-133300742D02*
X190438209Y-133348361D01*
X190581066Y-133395980D01*
X190676304Y-133395980D01*
X190819161Y-133348361D01*
X190914400Y-133253123D01*
X190962019Y-133157885D01*
X191009638Y-132967409D01*
X191009638Y-132824552D01*
X190962019Y-132634076D01*
X190914400Y-132538838D01*
X190819161Y-132443600D01*
X190676304Y-132395980D01*
X190581066Y-132395980D01*
X190438209Y-132443600D01*
X190390590Y-132491219D01*
X257551180Y-74654304D02*
X256551180Y-74654304D01*
X257551180Y-75225733D02*
X256979752Y-74797161D01*
X256551180Y-75225733D02*
X257122609Y-74654304D01*
X257503561Y-76035257D02*
X257551180Y-75940019D01*
X257551180Y-75749542D01*
X257503561Y-75654304D01*
X257408323Y-75606685D01*
X257027371Y-75606685D01*
X256932133Y-75654304D01*
X256884514Y-75749542D01*
X256884514Y-75940019D01*
X256932133Y-76035257D01*
X257027371Y-76082876D01*
X257122609Y-76082876D01*
X257217847Y-75606685D01*
X256884514Y-76416209D02*
X257551180Y-76654304D01*
X256884514Y-76892400D02*
X257551180Y-76654304D01*
X257789276Y-76559066D01*
X257836895Y-76511447D01*
X257884514Y-76416209D01*
X257503561Y-77654304D02*
X257551180Y-77559066D01*
X257551180Y-77368590D01*
X257503561Y-77273352D01*
X257408323Y-77225733D01*
X257027371Y-77225733D01*
X256932133Y-77273352D01*
X256884514Y-77368590D01*
X256884514Y-77559066D01*
X256932133Y-77654304D01*
X257027371Y-77701923D01*
X257122609Y-77701923D01*
X257217847Y-77225733D01*
X257551180Y-78130495D02*
X256884514Y-78130495D01*
X257074990Y-78130495D02*
X256979752Y-78178114D01*
X256932133Y-78225733D01*
X256884514Y-78320971D01*
X256884514Y-78416209D01*
X257551180Y-79654304D02*
X257503561Y-79559066D01*
X257455942Y-79511447D01*
X257360704Y-79463828D01*
X257074990Y-79463828D01*
X256979752Y-79511447D01*
X256932133Y-79559066D01*
X256884514Y-79654304D01*
X256884514Y-79797161D01*
X256932133Y-79892400D01*
X256979752Y-79940019D01*
X257074990Y-79987638D01*
X257360704Y-79987638D01*
X257455942Y-79940019D01*
X257503561Y-79892400D01*
X257551180Y-79797161D01*
X257551180Y-79654304D01*
X256884514Y-80844780D02*
X257551180Y-80844780D01*
X256884514Y-80416209D02*
X257408323Y-80416209D01*
X257503561Y-80463828D01*
X257551180Y-80559066D01*
X257551180Y-80701923D01*
X257503561Y-80797161D01*
X257455942Y-80844780D01*
X256884514Y-81178114D02*
X256884514Y-81559066D01*
X256551180Y-81320971D02*
X257408323Y-81320971D01*
X257503561Y-81368590D01*
X257551180Y-81463828D01*
X257551180Y-81559066D01*
X256646419Y-82606685D02*
X256598800Y-82654304D01*
X256551180Y-82749542D01*
X256551180Y-82987638D01*
X256598800Y-83082876D01*
X256646419Y-83130495D01*
X256741657Y-83178114D01*
X256836895Y-83178114D01*
X256979752Y-83130495D01*
X257551180Y-82559066D01*
X257551180Y-83178114D01*
X212879485Y-121832666D02*
X212403295Y-121832666D01*
X212974723Y-122118380D02*
X212641390Y-121118380D01*
X212308057Y-122118380D01*
X212117580Y-121118380D02*
X211546152Y-121118380D01*
X211831866Y-122118380D02*
X211831866Y-121118380D01*
X211212819Y-122118380D02*
X211212819Y-121118380D01*
X210879485Y-121832666D01*
X210546152Y-121118380D01*
X210546152Y-122118380D01*
X210069961Y-121594571D02*
X209736628Y-121594571D01*
X209593771Y-122118380D02*
X210069961Y-122118380D01*
X210069961Y-121118380D01*
X209593771Y-121118380D01*
X208641390Y-121166000D02*
X208736628Y-121118380D01*
X208879485Y-121118380D01*
X209022342Y-121166000D01*
X209117580Y-121261238D01*
X209165200Y-121356476D01*
X209212819Y-121546952D01*
X209212819Y-121689809D01*
X209165200Y-121880285D01*
X209117580Y-121975523D01*
X209022342Y-122070761D01*
X208879485Y-122118380D01*
X208784247Y-122118380D01*
X208641390Y-122070761D01*
X208593771Y-122023142D01*
X208593771Y-121689809D01*
X208784247Y-121689809D01*
X208212819Y-121832666D02*
X207736628Y-121832666D01*
X208308057Y-122118380D02*
X207974723Y-121118380D01*
X207641390Y-122118380D01*
X206593771Y-121213619D02*
X206546152Y-121166000D01*
X206450914Y-121118380D01*
X206212819Y-121118380D01*
X206117580Y-121166000D01*
X206069961Y-121213619D01*
X206022342Y-121308857D01*
X206022342Y-121404095D01*
X206069961Y-121546952D01*
X206641390Y-122118380D01*
X206022342Y-122118380D01*
X205117580Y-121118380D02*
X205593771Y-121118380D01*
X205641390Y-121594571D01*
X205593771Y-121546952D01*
X205498533Y-121499333D01*
X205260438Y-121499333D01*
X205165200Y-121546952D01*
X205117580Y-121594571D01*
X205069961Y-121689809D01*
X205069961Y-121927904D01*
X205117580Y-122023142D01*
X205165200Y-122070761D01*
X205260438Y-122118380D01*
X205498533Y-122118380D01*
X205593771Y-122070761D01*
X205641390Y-122023142D01*
X204212819Y-121118380D02*
X204403295Y-121118380D01*
X204498533Y-121166000D01*
X204546152Y-121213619D01*
X204641390Y-121356476D01*
X204689009Y-121546952D01*
X204689009Y-121927904D01*
X204641390Y-122023142D01*
X204593771Y-122070761D01*
X204498533Y-122118380D01*
X204308057Y-122118380D01*
X204212819Y-122070761D01*
X204165200Y-122023142D01*
X204117580Y-121927904D01*
X204117580Y-121689809D01*
X204165200Y-121594571D01*
X204212819Y-121546952D01*
X204308057Y-121499333D01*
X204498533Y-121499333D01*
X204593771Y-121546952D01*
X204641390Y-121594571D01*
X204689009Y-121689809D01*
X203498533Y-121118380D02*
X203403295Y-121118380D01*
X203308057Y-121166000D01*
X203260438Y-121213619D01*
X203212819Y-121308857D01*
X203165200Y-121499333D01*
X203165200Y-121737428D01*
X203212819Y-121927904D01*
X203260438Y-122023142D01*
X203308057Y-122070761D01*
X203403295Y-122118380D01*
X203498533Y-122118380D01*
X203593771Y-122070761D01*
X203641390Y-122023142D01*
X203689009Y-121927904D01*
X203736628Y-121737428D01*
X203736628Y-121499333D01*
X203689009Y-121308857D01*
X203641390Y-121213619D01*
X203593771Y-121166000D01*
X203498533Y-121118380D01*
X201974723Y-122118380D02*
X201974723Y-121118380D01*
X201593771Y-121118380D01*
X201498533Y-121166000D01*
X201450914Y-121213619D01*
X201403295Y-121308857D01*
X201403295Y-121451714D01*
X201450914Y-121546952D01*
X201498533Y-121594571D01*
X201593771Y-121642190D01*
X201974723Y-121642190D01*
X200403295Y-122118380D02*
X200736628Y-121642190D01*
X200974723Y-122118380D02*
X200974723Y-121118380D01*
X200593771Y-121118380D01*
X200498533Y-121166000D01*
X200450914Y-121213619D01*
X200403295Y-121308857D01*
X200403295Y-121451714D01*
X200450914Y-121546952D01*
X200498533Y-121594571D01*
X200593771Y-121642190D01*
X200974723Y-121642190D01*
X199784247Y-121118380D02*
X199593771Y-121118380D01*
X199498533Y-121166000D01*
X199403295Y-121261238D01*
X199355676Y-121451714D01*
X199355676Y-121785047D01*
X199403295Y-121975523D01*
X199498533Y-122070761D01*
X199593771Y-122118380D01*
X199784247Y-122118380D01*
X199879485Y-122070761D01*
X199974723Y-121975523D01*
X200022342Y-121785047D01*
X200022342Y-121451714D01*
X199974723Y-121261238D01*
X199879485Y-121166000D01*
X199784247Y-121118380D01*
X198165200Y-122118380D02*
X198165200Y-121118380D01*
X197831866Y-121832666D01*
X197498533Y-121118380D01*
X197498533Y-122118380D01*
X197022342Y-122118380D02*
X197022342Y-121118380D01*
X196546152Y-122118380D02*
X196546152Y-121118380D01*
X195974723Y-122118380D01*
X195974723Y-121118380D01*
X195498533Y-122118380D02*
X195498533Y-121118380D01*
X225962838Y-131481580D02*
X225629504Y-132481580D01*
X225296171Y-131481580D01*
X224819980Y-132481580D02*
X224915219Y-132433961D01*
X224962838Y-132386342D01*
X225010457Y-132291104D01*
X225010457Y-132005390D01*
X224962838Y-131910152D01*
X224915219Y-131862533D01*
X224819980Y-131814914D01*
X224677123Y-131814914D01*
X224581885Y-131862533D01*
X224534266Y-131910152D01*
X224486647Y-132005390D01*
X224486647Y-132291104D01*
X224534266Y-132386342D01*
X224581885Y-132433961D01*
X224677123Y-132481580D01*
X224819980Y-132481580D01*
X223915219Y-132481580D02*
X224010457Y-132433961D01*
X224058076Y-132338723D01*
X224058076Y-131481580D01*
X223105695Y-131814914D02*
X223105695Y-132481580D01*
X223534266Y-131814914D02*
X223534266Y-132338723D01*
X223486647Y-132433961D01*
X223391409Y-132481580D01*
X223248552Y-132481580D01*
X223153314Y-132433961D01*
X223105695Y-132386342D01*
X222629504Y-132481580D02*
X222629504Y-131814914D01*
X222629504Y-131910152D02*
X222581885Y-131862533D01*
X222486647Y-131814914D01*
X222343790Y-131814914D01*
X222248552Y-131862533D01*
X222200933Y-131957771D01*
X222200933Y-132481580D01*
X222200933Y-131957771D02*
X222153314Y-131862533D01*
X222058076Y-131814914D01*
X221915219Y-131814914D01*
X221819980Y-131862533D01*
X221772361Y-131957771D01*
X221772361Y-132481580D01*
X220915219Y-132433961D02*
X221010457Y-132481580D01*
X221200933Y-132481580D01*
X221296171Y-132433961D01*
X221343790Y-132338723D01*
X221343790Y-131957771D01*
X221296171Y-131862533D01*
X221200933Y-131814914D01*
X221010457Y-131814914D01*
X220915219Y-131862533D01*
X220867600Y-131957771D01*
X220867600Y-132053009D01*
X221343790Y-132148247D01*
X185867276Y-155138380D02*
X185867276Y-154138380D01*
X185295847Y-155138380D02*
X185724419Y-154566952D01*
X185295847Y-154138380D02*
X185867276Y-154709809D01*
X184486323Y-155090761D02*
X184581561Y-155138380D01*
X184772038Y-155138380D01*
X184867276Y-155090761D01*
X184914895Y-154995523D01*
X184914895Y-154614571D01*
X184867276Y-154519333D01*
X184772038Y-154471714D01*
X184581561Y-154471714D01*
X184486323Y-154519333D01*
X184438704Y-154614571D01*
X184438704Y-154709809D01*
X184914895Y-154805047D01*
X184105371Y-154471714D02*
X183867276Y-155138380D01*
X183629180Y-154471714D02*
X183867276Y-155138380D01*
X183962514Y-155376476D01*
X184010133Y-155424095D01*
X184105371Y-155471714D01*
X183248228Y-155138380D02*
X183248228Y-154138380D01*
X183248228Y-154519333D02*
X183152990Y-154471714D01*
X182962514Y-154471714D01*
X182867276Y-154519333D01*
X182819657Y-154566952D01*
X182772038Y-154662190D01*
X182772038Y-154947904D01*
X182819657Y-155043142D01*
X182867276Y-155090761D01*
X182962514Y-155138380D01*
X183152990Y-155138380D01*
X183248228Y-155090761D01*
X182200609Y-155138380D02*
X182295847Y-155090761D01*
X182343466Y-155043142D01*
X182391085Y-154947904D01*
X182391085Y-154662190D01*
X182343466Y-154566952D01*
X182295847Y-154519333D01*
X182200609Y-154471714D01*
X182057752Y-154471714D01*
X181962514Y-154519333D01*
X181914895Y-154566952D01*
X181867276Y-154662190D01*
X181867276Y-154947904D01*
X181914895Y-155043142D01*
X181962514Y-155090761D01*
X182057752Y-155138380D01*
X182200609Y-155138380D01*
X181010133Y-155138380D02*
X181010133Y-154614571D01*
X181057752Y-154519333D01*
X181152990Y-154471714D01*
X181343466Y-154471714D01*
X181438704Y-154519333D01*
X181010133Y-155090761D02*
X181105371Y-155138380D01*
X181343466Y-155138380D01*
X181438704Y-155090761D01*
X181486323Y-154995523D01*
X181486323Y-154900285D01*
X181438704Y-154805047D01*
X181343466Y-154757428D01*
X181105371Y-154757428D01*
X181010133Y-154709809D01*
X180533942Y-155138380D02*
X180533942Y-154471714D01*
X180533942Y-154662190D02*
X180486323Y-154566952D01*
X180438704Y-154519333D01*
X180343466Y-154471714D01*
X180248228Y-154471714D01*
X179486323Y-155138380D02*
X179486323Y-154138380D01*
X179486323Y-155090761D02*
X179581561Y-155138380D01*
X179772038Y-155138380D01*
X179867276Y-155090761D01*
X179914895Y-155043142D01*
X179962514Y-154947904D01*
X179962514Y-154662190D01*
X179914895Y-154566952D01*
X179867276Y-154519333D01*
X179772038Y-154471714D01*
X179581561Y-154471714D01*
X179486323Y-154519333D01*
X237181733Y-102973142D02*
X237229352Y-103020761D01*
X237372209Y-103068380D01*
X237467447Y-103068380D01*
X237610304Y-103020761D01*
X237705542Y-102925523D01*
X237753161Y-102830285D01*
X237800780Y-102639809D01*
X237800780Y-102496952D01*
X237753161Y-102306476D01*
X237705542Y-102211238D01*
X237610304Y-102116000D01*
X237467447Y-102068380D01*
X237372209Y-102068380D01*
X237229352Y-102116000D01*
X237181733Y-102163619D01*
X236610304Y-103068380D02*
X236705542Y-103020761D01*
X236753161Y-102973142D01*
X236800780Y-102877904D01*
X236800780Y-102592190D01*
X236753161Y-102496952D01*
X236705542Y-102449333D01*
X236610304Y-102401714D01*
X236467447Y-102401714D01*
X236372209Y-102449333D01*
X236324590Y-102496952D01*
X236276971Y-102592190D01*
X236276971Y-102877904D01*
X236324590Y-102973142D01*
X236372209Y-103020761D01*
X236467447Y-103068380D01*
X236610304Y-103068380D01*
X235848400Y-102401714D02*
X235848400Y-103068380D01*
X235848400Y-102496952D02*
X235800780Y-102449333D01*
X235705542Y-102401714D01*
X235562685Y-102401714D01*
X235467447Y-102449333D01*
X235419828Y-102544571D01*
X235419828Y-103068380D01*
X235086495Y-102401714D02*
X234705542Y-102401714D01*
X234943638Y-102068380D02*
X234943638Y-102925523D01*
X234896019Y-103020761D01*
X234800780Y-103068380D01*
X234705542Y-103068380D01*
X234372209Y-103068380D02*
X234372209Y-102401714D01*
X234372209Y-102592190D02*
X234324590Y-102496952D01*
X234276971Y-102449333D01*
X234181733Y-102401714D01*
X234086495Y-102401714D01*
X233324590Y-103068380D02*
X233324590Y-102544571D01*
X233372209Y-102449333D01*
X233467447Y-102401714D01*
X233657923Y-102401714D01*
X233753161Y-102449333D01*
X233324590Y-103020761D02*
X233419828Y-103068380D01*
X233657923Y-103068380D01*
X233753161Y-103020761D01*
X233800780Y-102925523D01*
X233800780Y-102830285D01*
X233753161Y-102735047D01*
X233657923Y-102687428D01*
X233419828Y-102687428D01*
X233324590Y-102639809D01*
X232896019Y-103020761D02*
X232800780Y-103068380D01*
X232610304Y-103068380D01*
X232515066Y-103020761D01*
X232467447Y-102925523D01*
X232467447Y-102877904D01*
X232515066Y-102782666D01*
X232610304Y-102735047D01*
X232753161Y-102735047D01*
X232848400Y-102687428D01*
X232896019Y-102592190D01*
X232896019Y-102544571D01*
X232848400Y-102449333D01*
X232753161Y-102401714D01*
X232610304Y-102401714D01*
X232515066Y-102449333D01*
X232181733Y-102401714D02*
X231800780Y-102401714D01*
X232038876Y-102068380D02*
X232038876Y-102925523D01*
X231991257Y-103020761D01*
X231896019Y-103068380D01*
X231800780Y-103068380D01*
X248303847Y-144283180D02*
X247732419Y-144283180D01*
X248018133Y-145283180D02*
X248018133Y-144283180D01*
X247256228Y-145283180D02*
X247351466Y-145235561D01*
X247399085Y-145187942D01*
X247446704Y-145092704D01*
X247446704Y-144806990D01*
X247399085Y-144711752D01*
X247351466Y-144664133D01*
X247256228Y-144616514D01*
X247113371Y-144616514D01*
X247018133Y-144664133D01*
X246970514Y-144711752D01*
X246922895Y-144806990D01*
X246922895Y-145092704D01*
X246970514Y-145187942D01*
X247018133Y-145235561D01*
X247113371Y-145283180D01*
X247256228Y-145283180D01*
X246494323Y-144616514D02*
X246494323Y-145283180D01*
X246494323Y-144711752D02*
X246446704Y-144664133D01*
X246351466Y-144616514D01*
X246208609Y-144616514D01*
X246113371Y-144664133D01*
X246065752Y-144759371D01*
X246065752Y-145283180D01*
X245208609Y-145235561D02*
X245303847Y-145283180D01*
X245494323Y-145283180D01*
X245589561Y-145235561D01*
X245637180Y-145140323D01*
X245637180Y-144759371D01*
X245589561Y-144664133D01*
X245494323Y-144616514D01*
X245303847Y-144616514D01*
X245208609Y-144664133D01*
X245160990Y-144759371D01*
X245160990Y-144854609D01*
X245637180Y-144949847D01*
X237397561Y-121594571D02*
X237254704Y-121642190D01*
X237207085Y-121689809D01*
X237159466Y-121785047D01*
X237159466Y-121927904D01*
X237207085Y-122023142D01*
X237254704Y-122070761D01*
X237349942Y-122118380D01*
X237730895Y-122118380D01*
X237730895Y-121118380D01*
X237397561Y-121118380D01*
X237302323Y-121166000D01*
X237254704Y-121213619D01*
X237207085Y-121308857D01*
X237207085Y-121404095D01*
X237254704Y-121499333D01*
X237302323Y-121546952D01*
X237397561Y-121594571D01*
X237730895Y-121594571D01*
X236302323Y-122118380D02*
X236302323Y-121594571D01*
X236349942Y-121499333D01*
X236445180Y-121451714D01*
X236635657Y-121451714D01*
X236730895Y-121499333D01*
X236302323Y-122070761D02*
X236397561Y-122118380D01*
X236635657Y-122118380D01*
X236730895Y-122070761D01*
X236778514Y-121975523D01*
X236778514Y-121880285D01*
X236730895Y-121785047D01*
X236635657Y-121737428D01*
X236397561Y-121737428D01*
X236302323Y-121689809D01*
X235397561Y-122070761D02*
X235492800Y-122118380D01*
X235683276Y-122118380D01*
X235778514Y-122070761D01*
X235826133Y-122023142D01*
X235873752Y-121927904D01*
X235873752Y-121642190D01*
X235826133Y-121546952D01*
X235778514Y-121499333D01*
X235683276Y-121451714D01*
X235492800Y-121451714D01*
X235397561Y-121499333D01*
X234968990Y-122118380D02*
X234968990Y-121118380D01*
X234873752Y-121737428D02*
X234588038Y-122118380D01*
X234588038Y-121451714D02*
X234968990Y-121832666D01*
X234016609Y-122118380D02*
X234111847Y-122070761D01*
X234159466Y-121975523D01*
X234159466Y-121118380D01*
X233635657Y-122118380D02*
X233635657Y-121451714D01*
X233635657Y-121118380D02*
X233683276Y-121166000D01*
X233635657Y-121213619D01*
X233588038Y-121166000D01*
X233635657Y-121118380D01*
X233635657Y-121213619D01*
X232730895Y-121451714D02*
X232730895Y-122261238D01*
X232778514Y-122356476D01*
X232826133Y-122404095D01*
X232921371Y-122451714D01*
X233064228Y-122451714D01*
X233159466Y-122404095D01*
X232730895Y-122070761D02*
X232826133Y-122118380D01*
X233016609Y-122118380D01*
X233111847Y-122070761D01*
X233159466Y-122023142D01*
X233207085Y-121927904D01*
X233207085Y-121642190D01*
X233159466Y-121546952D01*
X233111847Y-121499333D01*
X233016609Y-121451714D01*
X232826133Y-121451714D01*
X232730895Y-121499333D01*
X232254704Y-122118380D02*
X232254704Y-121118380D01*
X231826133Y-122118380D02*
X231826133Y-121594571D01*
X231873752Y-121499333D01*
X231968990Y-121451714D01*
X232111847Y-121451714D01*
X232207085Y-121499333D01*
X232254704Y-121546952D01*
X231492800Y-121451714D02*
X231111847Y-121451714D01*
X231349942Y-121118380D02*
X231349942Y-121975523D01*
X231302323Y-122070761D01*
X231207085Y-122118380D01*
X231111847Y-122118380D01*
X279557219Y-172613104D02*
X280557219Y-172613104D01*
X280081028Y-172613104D02*
X280081028Y-172041676D01*
X279557219Y-172041676D02*
X280557219Y-172041676D01*
X279604838Y-171184533D02*
X279557219Y-171279771D01*
X279557219Y-171470247D01*
X279604838Y-171565485D01*
X279700076Y-171613104D01*
X280081028Y-171613104D01*
X280176266Y-171565485D01*
X280223885Y-171470247D01*
X280223885Y-171279771D01*
X280176266Y-171184533D01*
X280081028Y-171136914D01*
X279985790Y-171136914D01*
X279890552Y-171613104D01*
X279557219Y-170279771D02*
X280081028Y-170279771D01*
X280176266Y-170327390D01*
X280223885Y-170422628D01*
X280223885Y-170613104D01*
X280176266Y-170708342D01*
X279604838Y-170279771D02*
X279557219Y-170375009D01*
X279557219Y-170613104D01*
X279604838Y-170708342D01*
X279700076Y-170755961D01*
X279795314Y-170755961D01*
X279890552Y-170708342D01*
X279938171Y-170613104D01*
X279938171Y-170375009D01*
X279985790Y-170279771D01*
X279557219Y-169375009D02*
X280557219Y-169375009D01*
X279604838Y-169375009D02*
X279557219Y-169470247D01*
X279557219Y-169660723D01*
X279604838Y-169755961D01*
X279652457Y-169803580D01*
X279747695Y-169851200D01*
X280033409Y-169851200D01*
X280128647Y-169803580D01*
X280176266Y-169755961D01*
X280223885Y-169660723D01*
X280223885Y-169470247D01*
X280176266Y-169375009D01*
X280223885Y-168898819D02*
X279223885Y-168898819D01*
X280176266Y-168898819D02*
X280223885Y-168803580D01*
X280223885Y-168613104D01*
X280176266Y-168517866D01*
X280128647Y-168470247D01*
X280033409Y-168422628D01*
X279747695Y-168422628D01*
X279652457Y-168470247D01*
X279604838Y-168517866D01*
X279557219Y-168613104D01*
X279557219Y-168803580D01*
X279604838Y-168898819D01*
X279557219Y-167994057D02*
X280557219Y-167994057D01*
X279557219Y-167565485D02*
X280081028Y-167565485D01*
X280176266Y-167613104D01*
X280223885Y-167708342D01*
X280223885Y-167851200D01*
X280176266Y-167946438D01*
X280128647Y-167994057D01*
X279557219Y-166946438D02*
X279604838Y-167041676D01*
X279652457Y-167089295D01*
X279747695Y-167136914D01*
X280033409Y-167136914D01*
X280128647Y-167089295D01*
X280176266Y-167041676D01*
X280223885Y-166946438D01*
X280223885Y-166803580D01*
X280176266Y-166708342D01*
X280128647Y-166660723D01*
X280033409Y-166613104D01*
X279747695Y-166613104D01*
X279652457Y-166660723D01*
X279604838Y-166708342D01*
X279557219Y-166803580D01*
X279557219Y-166946438D01*
X280223885Y-166184533D02*
X279557219Y-166184533D01*
X280128647Y-166184533D02*
X280176266Y-166136914D01*
X280223885Y-166041676D01*
X280223885Y-165898819D01*
X280176266Y-165803580D01*
X280081028Y-165755961D01*
X279557219Y-165755961D01*
X279604838Y-164898819D02*
X279557219Y-164994057D01*
X279557219Y-165184533D01*
X279604838Y-165279771D01*
X279700076Y-165327390D01*
X280081028Y-165327390D01*
X280176266Y-165279771D01*
X280223885Y-165184533D01*
X280223885Y-164994057D01*
X280176266Y-164898819D01*
X280081028Y-164851200D01*
X279985790Y-164851200D01*
X279890552Y-165327390D01*
X279604838Y-164470247D02*
X279557219Y-164375009D01*
X279557219Y-164184533D01*
X279604838Y-164089295D01*
X279700076Y-164041676D01*
X279747695Y-164041676D01*
X279842933Y-164089295D01*
X279890552Y-164184533D01*
X279890552Y-164327390D01*
X279938171Y-164422628D01*
X280033409Y-164470247D01*
X280081028Y-164470247D01*
X280176266Y-164422628D01*
X280223885Y-164327390D01*
X280223885Y-164184533D01*
X280176266Y-164089295D01*
%TO.C,R11*%
X256444357Y-143835380D02*
X256777690Y-143359190D01*
X257015785Y-143835380D02*
X257015785Y-142835380D01*
X256634833Y-142835380D01*
X256539595Y-142883000D01*
X256491976Y-142930619D01*
X256444357Y-143025857D01*
X256444357Y-143168714D01*
X256491976Y-143263952D01*
X256539595Y-143311571D01*
X256634833Y-143359190D01*
X257015785Y-143359190D01*
X255491976Y-143835380D02*
X256063404Y-143835380D01*
X255777690Y-143835380D02*
X255777690Y-142835380D01*
X255872928Y-142978238D01*
X255968166Y-143073476D01*
X256063404Y-143121095D01*
X254539595Y-143835380D02*
X255111023Y-143835380D01*
X254825309Y-143835380D02*
X254825309Y-142835380D01*
X254920547Y-142978238D01*
X255015785Y-143073476D01*
X255111023Y-143121095D01*
%TO.C,C34*%
X219971857Y-147931142D02*
X220019476Y-147978761D01*
X220162333Y-148026380D01*
X220257571Y-148026380D01*
X220400428Y-147978761D01*
X220495666Y-147883523D01*
X220543285Y-147788285D01*
X220590904Y-147597809D01*
X220590904Y-147454952D01*
X220543285Y-147264476D01*
X220495666Y-147169238D01*
X220400428Y-147074000D01*
X220257571Y-147026380D01*
X220162333Y-147026380D01*
X220019476Y-147074000D01*
X219971857Y-147121619D01*
X219638523Y-147026380D02*
X219019476Y-147026380D01*
X219352809Y-147407333D01*
X219209952Y-147407333D01*
X219114714Y-147454952D01*
X219067095Y-147502571D01*
X219019476Y-147597809D01*
X219019476Y-147835904D01*
X219067095Y-147931142D01*
X219114714Y-147978761D01*
X219209952Y-148026380D01*
X219495666Y-148026380D01*
X219590904Y-147978761D01*
X219638523Y-147931142D01*
X218162333Y-147359714D02*
X218162333Y-148026380D01*
X218400428Y-146978761D02*
X218638523Y-147693047D01*
X218019476Y-147693047D01*
%TO.C,R28*%
X235542057Y-138069580D02*
X235875390Y-137593390D01*
X236113485Y-138069580D02*
X236113485Y-137069580D01*
X235732533Y-137069580D01*
X235637295Y-137117200D01*
X235589676Y-137164819D01*
X235542057Y-137260057D01*
X235542057Y-137402914D01*
X235589676Y-137498152D01*
X235637295Y-137545771D01*
X235732533Y-137593390D01*
X236113485Y-137593390D01*
X235161104Y-137164819D02*
X235113485Y-137117200D01*
X235018247Y-137069580D01*
X234780152Y-137069580D01*
X234684914Y-137117200D01*
X234637295Y-137164819D01*
X234589676Y-137260057D01*
X234589676Y-137355295D01*
X234637295Y-137498152D01*
X235208723Y-138069580D01*
X234589676Y-138069580D01*
X234018247Y-137498152D02*
X234113485Y-137450533D01*
X234161104Y-137402914D01*
X234208723Y-137307676D01*
X234208723Y-137260057D01*
X234161104Y-137164819D01*
X234113485Y-137117200D01*
X234018247Y-137069580D01*
X233827771Y-137069580D01*
X233732533Y-137117200D01*
X233684914Y-137164819D01*
X233637295Y-137260057D01*
X233637295Y-137307676D01*
X233684914Y-137402914D01*
X233732533Y-137450533D01*
X233827771Y-137498152D01*
X234018247Y-137498152D01*
X234113485Y-137545771D01*
X234161104Y-137593390D01*
X234208723Y-137688628D01*
X234208723Y-137879104D01*
X234161104Y-137974342D01*
X234113485Y-138021961D01*
X234018247Y-138069580D01*
X233827771Y-138069580D01*
X233732533Y-138021961D01*
X233684914Y-137974342D01*
X233637295Y-137879104D01*
X233637295Y-137688628D01*
X233684914Y-137593390D01*
X233732533Y-137545771D01*
X233827771Y-137498152D01*
%TO.C,Q1*%
X247993238Y-142025619D02*
X248088476Y-141978000D01*
X248183714Y-141882761D01*
X248326571Y-141739904D01*
X248421809Y-141692285D01*
X248517047Y-141692285D01*
X248469428Y-141930380D02*
X248564666Y-141882761D01*
X248659904Y-141787523D01*
X248707523Y-141597047D01*
X248707523Y-141263714D01*
X248659904Y-141073238D01*
X248564666Y-140978000D01*
X248469428Y-140930380D01*
X248278952Y-140930380D01*
X248183714Y-140978000D01*
X248088476Y-141073238D01*
X248040857Y-141263714D01*
X248040857Y-141597047D01*
X248088476Y-141787523D01*
X248183714Y-141882761D01*
X248278952Y-141930380D01*
X248469428Y-141930380D01*
X247088476Y-141930380D02*
X247659904Y-141930380D01*
X247374190Y-141930380D02*
X247374190Y-140930380D01*
X247469428Y-141073238D01*
X247564666Y-141168476D01*
X247659904Y-141216095D01*
%TO.C,C27*%
X252223857Y-140311142D02*
X252271476Y-140358761D01*
X252414333Y-140406380D01*
X252509571Y-140406380D01*
X252652428Y-140358761D01*
X252747666Y-140263523D01*
X252795285Y-140168285D01*
X252842904Y-139977809D01*
X252842904Y-139834952D01*
X252795285Y-139644476D01*
X252747666Y-139549238D01*
X252652428Y-139454000D01*
X252509571Y-139406380D01*
X252414333Y-139406380D01*
X252271476Y-139454000D01*
X252223857Y-139501619D01*
X251842904Y-139501619D02*
X251795285Y-139454000D01*
X251700047Y-139406380D01*
X251461952Y-139406380D01*
X251366714Y-139454000D01*
X251319095Y-139501619D01*
X251271476Y-139596857D01*
X251271476Y-139692095D01*
X251319095Y-139834952D01*
X251890523Y-140406380D01*
X251271476Y-140406380D01*
X250938142Y-139406380D02*
X250271476Y-139406380D01*
X250700047Y-140406380D01*
%TO.C,R18*%
X273756380Y-101363542D02*
X273280190Y-101030209D01*
X273756380Y-100792114D02*
X272756380Y-100792114D01*
X272756380Y-101173066D01*
X272804000Y-101268304D01*
X272851619Y-101315923D01*
X272946857Y-101363542D01*
X273089714Y-101363542D01*
X273184952Y-101315923D01*
X273232571Y-101268304D01*
X273280190Y-101173066D01*
X273280190Y-100792114D01*
X273756380Y-102315923D02*
X273756380Y-101744495D01*
X273756380Y-102030209D02*
X272756380Y-102030209D01*
X272899238Y-101934971D01*
X272994476Y-101839733D01*
X273042095Y-101744495D01*
X273184952Y-102887352D02*
X273137333Y-102792114D01*
X273089714Y-102744495D01*
X272994476Y-102696876D01*
X272946857Y-102696876D01*
X272851619Y-102744495D01*
X272804000Y-102792114D01*
X272756380Y-102887352D01*
X272756380Y-103077828D01*
X272804000Y-103173066D01*
X272851619Y-103220685D01*
X272946857Y-103268304D01*
X272994476Y-103268304D01*
X273089714Y-103220685D01*
X273137333Y-103173066D01*
X273184952Y-103077828D01*
X273184952Y-102887352D01*
X273232571Y-102792114D01*
X273280190Y-102744495D01*
X273375428Y-102696876D01*
X273565904Y-102696876D01*
X273661142Y-102744495D01*
X273708761Y-102792114D01*
X273756380Y-102887352D01*
X273756380Y-103077828D01*
X273708761Y-103173066D01*
X273661142Y-103220685D01*
X273565904Y-103268304D01*
X273375428Y-103268304D01*
X273280190Y-103220685D01*
X273232571Y-103173066D01*
X273184952Y-103077828D01*
%TO.C,C19*%
X186062857Y-92686142D02*
X186110476Y-92733761D01*
X186253333Y-92781380D01*
X186348571Y-92781380D01*
X186491428Y-92733761D01*
X186586666Y-92638523D01*
X186634285Y-92543285D01*
X186681904Y-92352809D01*
X186681904Y-92209952D01*
X186634285Y-92019476D01*
X186586666Y-91924238D01*
X186491428Y-91829000D01*
X186348571Y-91781380D01*
X186253333Y-91781380D01*
X186110476Y-91829000D01*
X186062857Y-91876619D01*
X185110476Y-92781380D02*
X185681904Y-92781380D01*
X185396190Y-92781380D02*
X185396190Y-91781380D01*
X185491428Y-91924238D01*
X185586666Y-92019476D01*
X185681904Y-92067095D01*
X184634285Y-92781380D02*
X184443809Y-92781380D01*
X184348571Y-92733761D01*
X184300952Y-92686142D01*
X184205714Y-92543285D01*
X184158095Y-92352809D01*
X184158095Y-91971857D01*
X184205714Y-91876619D01*
X184253333Y-91829000D01*
X184348571Y-91781380D01*
X184539047Y-91781380D01*
X184634285Y-91829000D01*
X184681904Y-91876619D01*
X184729523Y-91971857D01*
X184729523Y-92209952D01*
X184681904Y-92305190D01*
X184634285Y-92352809D01*
X184539047Y-92400428D01*
X184348571Y-92400428D01*
X184253333Y-92352809D01*
X184205714Y-92305190D01*
X184158095Y-92209952D01*
D11*
%TO.C,J3*%
X183643270Y-137537371D02*
X183643270Y-137972800D01*
X183672298Y-138059885D01*
X183730355Y-138117942D01*
X183817441Y-138146971D01*
X183875498Y-138146971D01*
X183411041Y-137537371D02*
X183033670Y-137537371D01*
X183236870Y-137769600D01*
X183149784Y-137769600D01*
X183091727Y-137798628D01*
X183062698Y-137827657D01*
X183033670Y-137885714D01*
X183033670Y-138030857D01*
X183062698Y-138088914D01*
X183091727Y-138117942D01*
X183149784Y-138146971D01*
X183323955Y-138146971D01*
X183382012Y-138117942D01*
X183411041Y-138088914D01*
D10*
%TO.C,JP3*%
X235427733Y-90282780D02*
X235427733Y-90997066D01*
X235475352Y-91139923D01*
X235570590Y-91235161D01*
X235713447Y-91282780D01*
X235808685Y-91282780D01*
X234951542Y-91282780D02*
X234951542Y-90282780D01*
X234570590Y-90282780D01*
X234475352Y-90330400D01*
X234427733Y-90378019D01*
X234380114Y-90473257D01*
X234380114Y-90616114D01*
X234427733Y-90711352D01*
X234475352Y-90758971D01*
X234570590Y-90806590D01*
X234951542Y-90806590D01*
X234046780Y-90282780D02*
X233427733Y-90282780D01*
X233761066Y-90663733D01*
X233618209Y-90663733D01*
X233522971Y-90711352D01*
X233475352Y-90758971D01*
X233427733Y-90854209D01*
X233427733Y-91092304D01*
X233475352Y-91187542D01*
X233522971Y-91235161D01*
X233618209Y-91282780D01*
X233903923Y-91282780D01*
X233999161Y-91235161D01*
X234046780Y-91187542D01*
X230998780Y-87693866D02*
X230998780Y-88312914D01*
X231379733Y-87979580D01*
X231379733Y-88122438D01*
X231427352Y-88217676D01*
X231474971Y-88265295D01*
X231570209Y-88312914D01*
X231808304Y-88312914D01*
X231903542Y-88265295D01*
X231951161Y-88217676D01*
X231998780Y-88122438D01*
X231998780Y-87836723D01*
X231951161Y-87741485D01*
X231903542Y-87693866D01*
X231998780Y-93512914D02*
X231998780Y-92941485D01*
X231998780Y-93227200D02*
X230998780Y-93227200D01*
X231141638Y-93131961D01*
X231236876Y-93036723D01*
X231284495Y-92941485D01*
%TO.C,JP7*%
X248940533Y-102881180D02*
X248940533Y-103595466D01*
X248988152Y-103738323D01*
X249083390Y-103833561D01*
X249226247Y-103881180D01*
X249321485Y-103881180D01*
X248464342Y-103881180D02*
X248464342Y-102881180D01*
X248083390Y-102881180D01*
X247988152Y-102928800D01*
X247940533Y-102976419D01*
X247892914Y-103071657D01*
X247892914Y-103214514D01*
X247940533Y-103309752D01*
X247988152Y-103357371D01*
X248083390Y-103404990D01*
X248464342Y-103404990D01*
X247559580Y-102881180D02*
X246892914Y-102881180D01*
X247321485Y-103881180D01*
%TO.C,JP2*%
X235580133Y-96175580D02*
X235580133Y-96889866D01*
X235627752Y-97032723D01*
X235722990Y-97127961D01*
X235865847Y-97175580D01*
X235961085Y-97175580D01*
X235103942Y-97175580D02*
X235103942Y-96175580D01*
X234722990Y-96175580D01*
X234627752Y-96223200D01*
X234580133Y-96270819D01*
X234532514Y-96366057D01*
X234532514Y-96508914D01*
X234580133Y-96604152D01*
X234627752Y-96651771D01*
X234722990Y-96699390D01*
X235103942Y-96699390D01*
X234151561Y-96270819D02*
X234103942Y-96223200D01*
X234008704Y-96175580D01*
X233770609Y-96175580D01*
X233675371Y-96223200D01*
X233627752Y-96270819D01*
X233580133Y-96366057D01*
X233580133Y-96461295D01*
X233627752Y-96604152D01*
X234199180Y-97175580D01*
X233580133Y-97175580D01*
X230947980Y-93993066D02*
X230947980Y-94612114D01*
X231328933Y-94278780D01*
X231328933Y-94421638D01*
X231376552Y-94516876D01*
X231424171Y-94564495D01*
X231519409Y-94612114D01*
X231757504Y-94612114D01*
X231852742Y-94564495D01*
X231900361Y-94516876D01*
X231947980Y-94421638D01*
X231947980Y-94135923D01*
X231900361Y-94040685D01*
X231852742Y-93993066D01*
X231947980Y-99812114D02*
X231947980Y-99240685D01*
X231947980Y-99526400D02*
X230947980Y-99526400D01*
X231090838Y-99431161D01*
X231186076Y-99335923D01*
X231233695Y-99240685D01*
%TO.C,U6*%
X270763904Y-96353380D02*
X270763904Y-97162904D01*
X270716285Y-97258142D01*
X270668666Y-97305761D01*
X270573428Y-97353380D01*
X270382952Y-97353380D01*
X270287714Y-97305761D01*
X270240095Y-97258142D01*
X270192476Y-97162904D01*
X270192476Y-96353380D01*
X269287714Y-96353380D02*
X269478190Y-96353380D01*
X269573428Y-96401000D01*
X269621047Y-96448619D01*
X269716285Y-96591476D01*
X269763904Y-96781952D01*
X269763904Y-97162904D01*
X269716285Y-97258142D01*
X269668666Y-97305761D01*
X269573428Y-97353380D01*
X269382952Y-97353380D01*
X269287714Y-97305761D01*
X269240095Y-97258142D01*
X269192476Y-97162904D01*
X269192476Y-96924809D01*
X269240095Y-96829571D01*
X269287714Y-96781952D01*
X269382952Y-96734333D01*
X269573428Y-96734333D01*
X269668666Y-96781952D01*
X269716285Y-96829571D01*
X269763904Y-96924809D01*
%TO.C,J2*%
X189020773Y-162215580D02*
X189020773Y-162929866D01*
X189068392Y-163072723D01*
X189163630Y-163167961D01*
X189306487Y-163215580D01*
X189401725Y-163215580D01*
X188592201Y-162310819D02*
X188544582Y-162263200D01*
X188449344Y-162215580D01*
X188211249Y-162215580D01*
X188116011Y-162263200D01*
X188068392Y-162310819D01*
X188020773Y-162406057D01*
X188020773Y-162501295D01*
X188068392Y-162644152D01*
X188639820Y-163215580D01*
X188020773Y-163215580D01*
%TO.C,L1*%
X244514666Y-116149380D02*
X244990857Y-116149380D01*
X244990857Y-115149380D01*
X243657523Y-116149380D02*
X244228952Y-116149380D01*
X243943238Y-116149380D02*
X243943238Y-115149380D01*
X244038476Y-115292238D01*
X244133714Y-115387476D01*
X244228952Y-115435095D01*
%TO.C,C29*%
X235434142Y-131437142D02*
X235481761Y-131389523D01*
X235529380Y-131246666D01*
X235529380Y-131151428D01*
X235481761Y-131008571D01*
X235386523Y-130913333D01*
X235291285Y-130865714D01*
X235100809Y-130818095D01*
X234957952Y-130818095D01*
X234767476Y-130865714D01*
X234672238Y-130913333D01*
X234577000Y-131008571D01*
X234529380Y-131151428D01*
X234529380Y-131246666D01*
X234577000Y-131389523D01*
X234624619Y-131437142D01*
X234624619Y-131818095D02*
X234577000Y-131865714D01*
X234529380Y-131960952D01*
X234529380Y-132199047D01*
X234577000Y-132294285D01*
X234624619Y-132341904D01*
X234719857Y-132389523D01*
X234815095Y-132389523D01*
X234957952Y-132341904D01*
X235529380Y-131770476D01*
X235529380Y-132389523D01*
X235529380Y-132865714D02*
X235529380Y-133056190D01*
X235481761Y-133151428D01*
X235434142Y-133199047D01*
X235291285Y-133294285D01*
X235100809Y-133341904D01*
X234719857Y-133341904D01*
X234624619Y-133294285D01*
X234577000Y-133246666D01*
X234529380Y-133151428D01*
X234529380Y-132960952D01*
X234577000Y-132865714D01*
X234624619Y-132818095D01*
X234719857Y-132770476D01*
X234957952Y-132770476D01*
X235053190Y-132818095D01*
X235100809Y-132865714D01*
X235148428Y-132960952D01*
X235148428Y-133151428D01*
X235100809Y-133246666D01*
X235053190Y-133294285D01*
X234957952Y-133341904D01*
%TO.C,S7*%
X254432904Y-115608561D02*
X254290047Y-115656180D01*
X254051952Y-115656180D01*
X253956714Y-115608561D01*
X253909095Y-115560942D01*
X253861476Y-115465704D01*
X253861476Y-115370466D01*
X253909095Y-115275228D01*
X253956714Y-115227609D01*
X254051952Y-115179990D01*
X254242428Y-115132371D01*
X254337666Y-115084752D01*
X254385285Y-115037133D01*
X254432904Y-114941895D01*
X254432904Y-114846657D01*
X254385285Y-114751419D01*
X254337666Y-114703800D01*
X254242428Y-114656180D01*
X254004333Y-114656180D01*
X253861476Y-114703800D01*
X253528142Y-114656180D02*
X252861476Y-114656180D01*
X253290047Y-115656180D01*
%TO.C,J6*%
X192691333Y-126039980D02*
X192691333Y-126754266D01*
X192738952Y-126897123D01*
X192834190Y-126992361D01*
X192977047Y-127039980D01*
X193072285Y-127039980D01*
X191786571Y-126039980D02*
X191977047Y-126039980D01*
X192072285Y-126087600D01*
X192119904Y-126135219D01*
X192215142Y-126278076D01*
X192262761Y-126468552D01*
X192262761Y-126849504D01*
X192215142Y-126944742D01*
X192167523Y-126992361D01*
X192072285Y-127039980D01*
X191881809Y-127039980D01*
X191786571Y-126992361D01*
X191738952Y-126944742D01*
X191691333Y-126849504D01*
X191691333Y-126611409D01*
X191738952Y-126516171D01*
X191786571Y-126468552D01*
X191881809Y-126420933D01*
X192072285Y-126420933D01*
X192167523Y-126468552D01*
X192215142Y-126516171D01*
X192262761Y-126611409D01*
%TO.C,R30*%
X228544380Y-137533142D02*
X228068190Y-137199809D01*
X228544380Y-136961714D02*
X227544380Y-136961714D01*
X227544380Y-137342666D01*
X227592000Y-137437904D01*
X227639619Y-137485523D01*
X227734857Y-137533142D01*
X227877714Y-137533142D01*
X227972952Y-137485523D01*
X228020571Y-137437904D01*
X228068190Y-137342666D01*
X228068190Y-136961714D01*
X227544380Y-137866476D02*
X227544380Y-138485523D01*
X227925333Y-138152190D01*
X227925333Y-138295047D01*
X227972952Y-138390285D01*
X228020571Y-138437904D01*
X228115809Y-138485523D01*
X228353904Y-138485523D01*
X228449142Y-138437904D01*
X228496761Y-138390285D01*
X228544380Y-138295047D01*
X228544380Y-138009333D01*
X228496761Y-137914095D01*
X228449142Y-137866476D01*
X227544380Y-139104571D02*
X227544380Y-139199809D01*
X227592000Y-139295047D01*
X227639619Y-139342666D01*
X227734857Y-139390285D01*
X227925333Y-139437904D01*
X228163428Y-139437904D01*
X228353904Y-139390285D01*
X228449142Y-139342666D01*
X228496761Y-139295047D01*
X228544380Y-139199809D01*
X228544380Y-139104571D01*
X228496761Y-139009333D01*
X228449142Y-138961714D01*
X228353904Y-138914095D01*
X228163428Y-138866476D01*
X227925333Y-138866476D01*
X227734857Y-138914095D01*
X227639619Y-138961714D01*
X227592000Y-139009333D01*
X227544380Y-139104571D01*
%TO.C,J7*%
X265382333Y-160996380D02*
X265382333Y-161710666D01*
X265429952Y-161853523D01*
X265525190Y-161948761D01*
X265668047Y-161996380D01*
X265763285Y-161996380D01*
X265001380Y-160996380D02*
X264334714Y-160996380D01*
X264763285Y-161996380D01*
%TO.C,RV4*%
X219644838Y-142946380D02*
X219978171Y-142470190D01*
X220216266Y-142946380D02*
X220216266Y-141946380D01*
X219835314Y-141946380D01*
X219740076Y-141994000D01*
X219692457Y-142041619D01*
X219644838Y-142136857D01*
X219644838Y-142279714D01*
X219692457Y-142374952D01*
X219740076Y-142422571D01*
X219835314Y-142470190D01*
X220216266Y-142470190D01*
X219359123Y-141946380D02*
X219025790Y-142946380D01*
X218692457Y-141946380D01*
X217930552Y-142279714D02*
X217930552Y-142946380D01*
X218168647Y-141898761D02*
X218406742Y-142613047D01*
X217787695Y-142613047D01*
%TO.C,JP4*%
X246578333Y-120251380D02*
X246578333Y-120965666D01*
X246625952Y-121108523D01*
X246721190Y-121203761D01*
X246864047Y-121251380D01*
X246959285Y-121251380D01*
X246102142Y-121251380D02*
X246102142Y-120251380D01*
X245721190Y-120251380D01*
X245625952Y-120299000D01*
X245578333Y-120346619D01*
X245530714Y-120441857D01*
X245530714Y-120584714D01*
X245578333Y-120679952D01*
X245625952Y-120727571D01*
X245721190Y-120775190D01*
X246102142Y-120775190D01*
X244673571Y-120584714D02*
X244673571Y-121251380D01*
X244911666Y-120203761D02*
X245149761Y-120918047D01*
X244530714Y-120918047D01*
%TO.C,C14*%
X256317357Y-141327142D02*
X256364976Y-141374761D01*
X256507833Y-141422380D01*
X256603071Y-141422380D01*
X256745928Y-141374761D01*
X256841166Y-141279523D01*
X256888785Y-141184285D01*
X256936404Y-140993809D01*
X256936404Y-140850952D01*
X256888785Y-140660476D01*
X256841166Y-140565238D01*
X256745928Y-140470000D01*
X256603071Y-140422380D01*
X256507833Y-140422380D01*
X256364976Y-140470000D01*
X256317357Y-140517619D01*
X255364976Y-141422380D02*
X255936404Y-141422380D01*
X255650690Y-141422380D02*
X255650690Y-140422380D01*
X255745928Y-140565238D01*
X255841166Y-140660476D01*
X255936404Y-140708095D01*
X254507833Y-140755714D02*
X254507833Y-141422380D01*
X254745928Y-140374761D02*
X254984023Y-141089047D01*
X254364976Y-141089047D01*
%TO.C,C7*%
X200064666Y-171654742D02*
X200112285Y-171702361D01*
X200255142Y-171749980D01*
X200350380Y-171749980D01*
X200493238Y-171702361D01*
X200588476Y-171607123D01*
X200636095Y-171511885D01*
X200683714Y-171321409D01*
X200683714Y-171178552D01*
X200636095Y-170988076D01*
X200588476Y-170892838D01*
X200493238Y-170797600D01*
X200350380Y-170749980D01*
X200255142Y-170749980D01*
X200112285Y-170797600D01*
X200064666Y-170845219D01*
X199731333Y-170749980D02*
X199064666Y-170749980D01*
X199493238Y-171749980D01*
%TO.C,RV5*%
X241168738Y-147745380D02*
X241502071Y-147269190D01*
X241740166Y-147745380D02*
X241740166Y-146745380D01*
X241359214Y-146745380D01*
X241263976Y-146793000D01*
X241216357Y-146840619D01*
X241168738Y-146935857D01*
X241168738Y-147078714D01*
X241216357Y-147173952D01*
X241263976Y-147221571D01*
X241359214Y-147269190D01*
X241740166Y-147269190D01*
X240883023Y-146745380D02*
X240549690Y-147745380D01*
X240216357Y-146745380D01*
X239406833Y-146745380D02*
X239883023Y-146745380D01*
X239930642Y-147221571D01*
X239883023Y-147173952D01*
X239787785Y-147126333D01*
X239549690Y-147126333D01*
X239454452Y-147173952D01*
X239406833Y-147221571D01*
X239359214Y-147316809D01*
X239359214Y-147554904D01*
X239406833Y-147650142D01*
X239454452Y-147697761D01*
X239549690Y-147745380D01*
X239787785Y-147745380D01*
X239883023Y-147697761D01*
X239930642Y-147650142D01*
%TO.C,U4*%
X264159904Y-96353380D02*
X264159904Y-97162904D01*
X264112285Y-97258142D01*
X264064666Y-97305761D01*
X263969428Y-97353380D01*
X263778952Y-97353380D01*
X263683714Y-97305761D01*
X263636095Y-97258142D01*
X263588476Y-97162904D01*
X263588476Y-96353380D01*
X262683714Y-96686714D02*
X262683714Y-97353380D01*
X262921809Y-96305761D02*
X263159904Y-97020047D01*
X262540857Y-97020047D01*
%TO.C,R20*%
X277566380Y-101261942D02*
X277090190Y-100928609D01*
X277566380Y-100690514D02*
X276566380Y-100690514D01*
X276566380Y-101071466D01*
X276614000Y-101166704D01*
X276661619Y-101214323D01*
X276756857Y-101261942D01*
X276899714Y-101261942D01*
X276994952Y-101214323D01*
X277042571Y-101166704D01*
X277090190Y-101071466D01*
X277090190Y-100690514D01*
X276661619Y-101642895D02*
X276614000Y-101690514D01*
X276566380Y-101785752D01*
X276566380Y-102023847D01*
X276614000Y-102119085D01*
X276661619Y-102166704D01*
X276756857Y-102214323D01*
X276852095Y-102214323D01*
X276994952Y-102166704D01*
X277566380Y-101595276D01*
X277566380Y-102214323D01*
X276566380Y-102833371D02*
X276566380Y-102928609D01*
X276614000Y-103023847D01*
X276661619Y-103071466D01*
X276756857Y-103119085D01*
X276947333Y-103166704D01*
X277185428Y-103166704D01*
X277375904Y-103119085D01*
X277471142Y-103071466D01*
X277518761Y-103023847D01*
X277566380Y-102928609D01*
X277566380Y-102833371D01*
X277518761Y-102738133D01*
X277471142Y-102690514D01*
X277375904Y-102642895D01*
X277185428Y-102595276D01*
X276947333Y-102595276D01*
X276756857Y-102642895D01*
X276661619Y-102690514D01*
X276614000Y-102738133D01*
X276566380Y-102833371D01*
%TO.C,J10*%
X270963923Y-83526380D02*
X270963923Y-84240666D01*
X271011542Y-84383523D01*
X271106780Y-84478761D01*
X271249638Y-84526380D01*
X271344876Y-84526380D01*
X269963923Y-84526380D02*
X270535352Y-84526380D01*
X270249638Y-84526380D02*
X270249638Y-83526380D01*
X270344876Y-83669238D01*
X270440114Y-83764476D01*
X270535352Y-83812095D01*
X269344876Y-83526380D02*
X269249638Y-83526380D01*
X269154400Y-83574000D01*
X269106780Y-83621619D01*
X269059161Y-83716857D01*
X269011542Y-83907333D01*
X269011542Y-84145428D01*
X269059161Y-84335904D01*
X269106780Y-84431142D01*
X269154400Y-84478761D01*
X269249638Y-84526380D01*
X269344876Y-84526380D01*
X269440114Y-84478761D01*
X269487733Y-84431142D01*
X269535352Y-84335904D01*
X269582971Y-84145428D01*
X269582971Y-83907333D01*
X269535352Y-83716857D01*
X269487733Y-83621619D01*
X269440114Y-83574000D01*
X269344876Y-83526380D01*
%TO.C,C36*%
X211081857Y-147550142D02*
X211129476Y-147597761D01*
X211272333Y-147645380D01*
X211367571Y-147645380D01*
X211510428Y-147597761D01*
X211605666Y-147502523D01*
X211653285Y-147407285D01*
X211700904Y-147216809D01*
X211700904Y-147073952D01*
X211653285Y-146883476D01*
X211605666Y-146788238D01*
X211510428Y-146693000D01*
X211367571Y-146645380D01*
X211272333Y-146645380D01*
X211129476Y-146693000D01*
X211081857Y-146740619D01*
X210748523Y-146645380D02*
X210129476Y-146645380D01*
X210462809Y-147026333D01*
X210319952Y-147026333D01*
X210224714Y-147073952D01*
X210177095Y-147121571D01*
X210129476Y-147216809D01*
X210129476Y-147454904D01*
X210177095Y-147550142D01*
X210224714Y-147597761D01*
X210319952Y-147645380D01*
X210605666Y-147645380D01*
X210700904Y-147597761D01*
X210748523Y-147550142D01*
X209272333Y-146645380D02*
X209462809Y-146645380D01*
X209558047Y-146693000D01*
X209605666Y-146740619D01*
X209700904Y-146883476D01*
X209748523Y-147073952D01*
X209748523Y-147454904D01*
X209700904Y-147550142D01*
X209653285Y-147597761D01*
X209558047Y-147645380D01*
X209367571Y-147645380D01*
X209272333Y-147597761D01*
X209224714Y-147550142D01*
X209177095Y-147454904D01*
X209177095Y-147216809D01*
X209224714Y-147121571D01*
X209272333Y-147073952D01*
X209367571Y-147026333D01*
X209558047Y-147026333D01*
X209653285Y-147073952D01*
X209700904Y-147121571D01*
X209748523Y-147216809D01*
%TO.C,C30*%
X233148142Y-131437142D02*
X233195761Y-131389523D01*
X233243380Y-131246666D01*
X233243380Y-131151428D01*
X233195761Y-131008571D01*
X233100523Y-130913333D01*
X233005285Y-130865714D01*
X232814809Y-130818095D01*
X232671952Y-130818095D01*
X232481476Y-130865714D01*
X232386238Y-130913333D01*
X232291000Y-131008571D01*
X232243380Y-131151428D01*
X232243380Y-131246666D01*
X232291000Y-131389523D01*
X232338619Y-131437142D01*
X232243380Y-131770476D02*
X232243380Y-132389523D01*
X232624333Y-132056190D01*
X232624333Y-132199047D01*
X232671952Y-132294285D01*
X232719571Y-132341904D01*
X232814809Y-132389523D01*
X233052904Y-132389523D01*
X233148142Y-132341904D01*
X233195761Y-132294285D01*
X233243380Y-132199047D01*
X233243380Y-131913333D01*
X233195761Y-131818095D01*
X233148142Y-131770476D01*
X232243380Y-133008571D02*
X232243380Y-133103809D01*
X232291000Y-133199047D01*
X232338619Y-133246666D01*
X232433857Y-133294285D01*
X232624333Y-133341904D01*
X232862428Y-133341904D01*
X233052904Y-133294285D01*
X233148142Y-133246666D01*
X233195761Y-133199047D01*
X233243380Y-133103809D01*
X233243380Y-133008571D01*
X233195761Y-132913333D01*
X233148142Y-132865714D01*
X233052904Y-132818095D01*
X232862428Y-132770476D01*
X232624333Y-132770476D01*
X232433857Y-132818095D01*
X232338619Y-132865714D01*
X232291000Y-132913333D01*
X232243380Y-133008571D01*
%TO.C,RV3*%
X241133238Y-120594380D02*
X241466571Y-120118190D01*
X241704666Y-120594380D02*
X241704666Y-119594380D01*
X241323714Y-119594380D01*
X241228476Y-119642000D01*
X241180857Y-119689619D01*
X241133238Y-119784857D01*
X241133238Y-119927714D01*
X241180857Y-120022952D01*
X241228476Y-120070571D01*
X241323714Y-120118190D01*
X241704666Y-120118190D01*
X240847523Y-119594380D02*
X240514190Y-120594380D01*
X240180857Y-119594380D01*
X239942761Y-119594380D02*
X239323714Y-119594380D01*
X239657047Y-119975333D01*
X239514190Y-119975333D01*
X239418952Y-120022952D01*
X239371333Y-120070571D01*
X239323714Y-120165809D01*
X239323714Y-120403904D01*
X239371333Y-120499142D01*
X239418952Y-120546761D01*
X239514190Y-120594380D01*
X239799904Y-120594380D01*
X239895142Y-120546761D01*
X239942761Y-120499142D01*
%TO.C,U3*%
X179323904Y-120813580D02*
X179323904Y-121623104D01*
X179276285Y-121718342D01*
X179228666Y-121765961D01*
X179133428Y-121813580D01*
X178942952Y-121813580D01*
X178847714Y-121765961D01*
X178800095Y-121718342D01*
X178752476Y-121623104D01*
X178752476Y-120813580D01*
X178371523Y-120813580D02*
X177752476Y-120813580D01*
X178085809Y-121194533D01*
X177942952Y-121194533D01*
X177847714Y-121242152D01*
X177800095Y-121289771D01*
X177752476Y-121385009D01*
X177752476Y-121623104D01*
X177800095Y-121718342D01*
X177847714Y-121765961D01*
X177942952Y-121813580D01*
X178228666Y-121813580D01*
X178323904Y-121765961D01*
X178371523Y-121718342D01*
%TO.C,C3*%
X283973542Y-147102533D02*
X284021161Y-147054914D01*
X284068780Y-146912057D01*
X284068780Y-146816819D01*
X284021161Y-146673961D01*
X283925923Y-146578723D01*
X283830685Y-146531104D01*
X283640209Y-146483485D01*
X283497352Y-146483485D01*
X283306876Y-146531104D01*
X283211638Y-146578723D01*
X283116400Y-146673961D01*
X283068780Y-146816819D01*
X283068780Y-146912057D01*
X283116400Y-147054914D01*
X283164019Y-147102533D01*
X283068780Y-147435866D02*
X283068780Y-148054914D01*
X283449733Y-147721580D01*
X283449733Y-147864438D01*
X283497352Y-147959676D01*
X283544971Y-148007295D01*
X283640209Y-148054914D01*
X283878304Y-148054914D01*
X283973542Y-148007295D01*
X284021161Y-147959676D01*
X284068780Y-147864438D01*
X284068780Y-147578723D01*
X284021161Y-147483485D01*
X283973542Y-147435866D01*
%TO.C,U1*%
X239775904Y-92365580D02*
X239775904Y-93175104D01*
X239728285Y-93270342D01*
X239680666Y-93317961D01*
X239585428Y-93365580D01*
X239394952Y-93365580D01*
X239299714Y-93317961D01*
X239252095Y-93270342D01*
X239204476Y-93175104D01*
X239204476Y-92365580D01*
X238204476Y-93365580D02*
X238775904Y-93365580D01*
X238490190Y-93365580D02*
X238490190Y-92365580D01*
X238585428Y-92508438D01*
X238680666Y-92603676D01*
X238775904Y-92651295D01*
%TO.C,U5*%
X257860704Y-96226380D02*
X257860704Y-97035904D01*
X257813085Y-97131142D01*
X257765466Y-97178761D01*
X257670228Y-97226380D01*
X257479752Y-97226380D01*
X257384514Y-97178761D01*
X257336895Y-97131142D01*
X257289276Y-97035904D01*
X257289276Y-96226380D01*
X256336895Y-96226380D02*
X256813085Y-96226380D01*
X256860704Y-96702571D01*
X256813085Y-96654952D01*
X256717847Y-96607333D01*
X256479752Y-96607333D01*
X256384514Y-96654952D01*
X256336895Y-96702571D01*
X256289276Y-96797809D01*
X256289276Y-97035904D01*
X256336895Y-97131142D01*
X256384514Y-97178761D01*
X256479752Y-97226380D01*
X256717847Y-97226380D01*
X256813085Y-97178761D01*
X256860704Y-97131142D01*
%TO.C,C20*%
X182633857Y-88622142D02*
X182681476Y-88669761D01*
X182824333Y-88717380D01*
X182919571Y-88717380D01*
X183062428Y-88669761D01*
X183157666Y-88574523D01*
X183205285Y-88479285D01*
X183252904Y-88288809D01*
X183252904Y-88145952D01*
X183205285Y-87955476D01*
X183157666Y-87860238D01*
X183062428Y-87765000D01*
X182919571Y-87717380D01*
X182824333Y-87717380D01*
X182681476Y-87765000D01*
X182633857Y-87812619D01*
X182252904Y-87812619D02*
X182205285Y-87765000D01*
X182110047Y-87717380D01*
X181871952Y-87717380D01*
X181776714Y-87765000D01*
X181729095Y-87812619D01*
X181681476Y-87907857D01*
X181681476Y-88003095D01*
X181729095Y-88145952D01*
X182300523Y-88717380D01*
X181681476Y-88717380D01*
X181062428Y-87717380D02*
X180967190Y-87717380D01*
X180871952Y-87765000D01*
X180824333Y-87812619D01*
X180776714Y-87907857D01*
X180729095Y-88098333D01*
X180729095Y-88336428D01*
X180776714Y-88526904D01*
X180824333Y-88622142D01*
X180871952Y-88669761D01*
X180967190Y-88717380D01*
X181062428Y-88717380D01*
X181157666Y-88669761D01*
X181205285Y-88622142D01*
X181252904Y-88526904D01*
X181300523Y-88336428D01*
X181300523Y-88098333D01*
X181252904Y-87907857D01*
X181205285Y-87812619D01*
X181157666Y-87765000D01*
X181062428Y-87717380D01*
%TO.C,R27*%
X245683380Y-131818142D02*
X245207190Y-131484809D01*
X245683380Y-131246714D02*
X244683380Y-131246714D01*
X244683380Y-131627666D01*
X244731000Y-131722904D01*
X244778619Y-131770523D01*
X244873857Y-131818142D01*
X245016714Y-131818142D01*
X245111952Y-131770523D01*
X245159571Y-131722904D01*
X245207190Y-131627666D01*
X245207190Y-131246714D01*
X244778619Y-132199095D02*
X244731000Y-132246714D01*
X244683380Y-132341952D01*
X244683380Y-132580047D01*
X244731000Y-132675285D01*
X244778619Y-132722904D01*
X244873857Y-132770523D01*
X244969095Y-132770523D01*
X245111952Y-132722904D01*
X245683380Y-132151476D01*
X245683380Y-132770523D01*
X244683380Y-133103857D02*
X244683380Y-133770523D01*
X245683380Y-133341952D01*
D12*
%TO.C,J1*%
X243023813Y-78896135D02*
X243023813Y-79324306D01*
X243052358Y-79409940D01*
X243109447Y-79467030D01*
X243195081Y-79495575D01*
X243252171Y-79495575D01*
X242424373Y-79495575D02*
X242766910Y-79495575D01*
X242595641Y-79495575D02*
X242595641Y-78896135D01*
X242652731Y-78981769D01*
X242709820Y-79038859D01*
X242766910Y-79067403D01*
X244208420Y-80596135D02*
X244208420Y-81081396D01*
X244179876Y-81138485D01*
X244151331Y-81167030D01*
X244094241Y-81195575D01*
X243980062Y-81195575D01*
X243922973Y-81167030D01*
X243894428Y-81138485D01*
X243865883Y-81081396D01*
X243865883Y-80596135D01*
X243608980Y-81167030D02*
X243523346Y-81195575D01*
X243380622Y-81195575D01*
X243323533Y-81167030D01*
X243294988Y-81138485D01*
X243266443Y-81081396D01*
X243266443Y-81024306D01*
X243294988Y-80967217D01*
X243323533Y-80938672D01*
X243380622Y-80910127D01*
X243494801Y-80881582D01*
X243551891Y-80853038D01*
X243580436Y-80824493D01*
X243608980Y-80767403D01*
X243608980Y-80710314D01*
X243580436Y-80653224D01*
X243551891Y-80624680D01*
X243494801Y-80596135D01*
X243352078Y-80596135D01*
X243266443Y-80624680D01*
X242809727Y-80881582D02*
X242724093Y-80910127D01*
X242695548Y-80938672D01*
X242667003Y-80995761D01*
X242667003Y-81081396D01*
X242695548Y-81138485D01*
X242724093Y-81167030D01*
X242781182Y-81195575D01*
X243009540Y-81195575D01*
X243009540Y-80596135D01*
X242809727Y-80596135D01*
X242752638Y-80624680D01*
X242724093Y-80653224D01*
X242695548Y-80710314D01*
X242695548Y-80767403D01*
X242724093Y-80824493D01*
X242752638Y-80853038D01*
X242809727Y-80881582D01*
X243009540Y-80881582D01*
X242410100Y-80967217D02*
X241953384Y-80967217D01*
X241696481Y-81024306D02*
X241411034Y-81024306D01*
X241753571Y-81195575D02*
X241553758Y-80596135D01*
X241353944Y-81195575D01*
D10*
%TO.C,JP6*%
X216733333Y-149363180D02*
X216733333Y-150077466D01*
X216780952Y-150220323D01*
X216876190Y-150315561D01*
X217019047Y-150363180D01*
X217114285Y-150363180D01*
X216257142Y-150363180D02*
X216257142Y-149363180D01*
X215876190Y-149363180D01*
X215780952Y-149410800D01*
X215733333Y-149458419D01*
X215685714Y-149553657D01*
X215685714Y-149696514D01*
X215733333Y-149791752D01*
X215780952Y-149839371D01*
X215876190Y-149886990D01*
X216257142Y-149886990D01*
X214828571Y-149363180D02*
X215019047Y-149363180D01*
X215114285Y-149410800D01*
X215161904Y-149458419D01*
X215257142Y-149601276D01*
X215304761Y-149791752D01*
X215304761Y-150172704D01*
X215257142Y-150267942D01*
X215209523Y-150315561D01*
X215114285Y-150363180D01*
X214923809Y-150363180D01*
X214828571Y-150315561D01*
X214780952Y-150267942D01*
X214733333Y-150172704D01*
X214733333Y-149934609D01*
X214780952Y-149839371D01*
X214828571Y-149791752D01*
X214923809Y-149744133D01*
X215114285Y-149744133D01*
X215209523Y-149791752D01*
X215257142Y-149839371D01*
X215304761Y-149934609D01*
%TO.C,R17*%
X267152380Y-101617542D02*
X266676190Y-101284209D01*
X267152380Y-101046114D02*
X266152380Y-101046114D01*
X266152380Y-101427066D01*
X266200000Y-101522304D01*
X266247619Y-101569923D01*
X266342857Y-101617542D01*
X266485714Y-101617542D01*
X266580952Y-101569923D01*
X266628571Y-101522304D01*
X266676190Y-101427066D01*
X266676190Y-101046114D01*
X267152380Y-102569923D02*
X267152380Y-101998495D01*
X267152380Y-102284209D02*
X266152380Y-102284209D01*
X266295238Y-102188971D01*
X266390476Y-102093733D01*
X266438095Y-101998495D01*
X266152380Y-102903257D02*
X266152380Y-103569923D01*
X267152380Y-103141352D01*
D11*
%TO.C,T1*%
X280474057Y-159432171D02*
X280125714Y-159432171D01*
X280299885Y-160041771D02*
X280299885Y-159432171D01*
X279603200Y-160041771D02*
X279951542Y-160041771D01*
X279777371Y-160041771D02*
X279777371Y-159432171D01*
X279835428Y-159519257D01*
X279893485Y-159577314D01*
X279951542Y-159606342D01*
D10*
%TO.C,Y1*%
X251885390Y-85472590D02*
X251885390Y-85948780D01*
X252218723Y-84948780D02*
X251885390Y-85472590D01*
X251552057Y-84948780D01*
X250694914Y-85948780D02*
X251266342Y-85948780D01*
X250980628Y-85948780D02*
X250980628Y-84948780D01*
X251075866Y-85091638D01*
X251171104Y-85186876D01*
X251266342Y-85234495D01*
%TO.C,C38*%
X259873357Y-147579142D02*
X259920976Y-147626761D01*
X260063833Y-147674380D01*
X260159071Y-147674380D01*
X260301928Y-147626761D01*
X260397166Y-147531523D01*
X260444785Y-147436285D01*
X260492404Y-147245809D01*
X260492404Y-147102952D01*
X260444785Y-146912476D01*
X260397166Y-146817238D01*
X260301928Y-146722000D01*
X260159071Y-146674380D01*
X260063833Y-146674380D01*
X259920976Y-146722000D01*
X259873357Y-146769619D01*
X259540023Y-146674380D02*
X258920976Y-146674380D01*
X259254309Y-147055333D01*
X259111452Y-147055333D01*
X259016214Y-147102952D01*
X258968595Y-147150571D01*
X258920976Y-147245809D01*
X258920976Y-147483904D01*
X258968595Y-147579142D01*
X259016214Y-147626761D01*
X259111452Y-147674380D01*
X259397166Y-147674380D01*
X259492404Y-147626761D01*
X259540023Y-147579142D01*
X258349547Y-147102952D02*
X258444785Y-147055333D01*
X258492404Y-147007714D01*
X258540023Y-146912476D01*
X258540023Y-146864857D01*
X258492404Y-146769619D01*
X258444785Y-146722000D01*
X258349547Y-146674380D01*
X258159071Y-146674380D01*
X258063833Y-146722000D01*
X258016214Y-146769619D01*
X257968595Y-146864857D01*
X257968595Y-146912476D01*
X258016214Y-147007714D01*
X258063833Y-147055333D01*
X258159071Y-147102952D01*
X258349547Y-147102952D01*
X258444785Y-147150571D01*
X258492404Y-147198190D01*
X258540023Y-147293428D01*
X258540023Y-147483904D01*
X258492404Y-147579142D01*
X258444785Y-147626761D01*
X258349547Y-147674380D01*
X258159071Y-147674380D01*
X258063833Y-147626761D01*
X258016214Y-147579142D01*
X257968595Y-147483904D01*
X257968595Y-147293428D01*
X258016214Y-147198190D01*
X258063833Y-147150571D01*
X258159071Y-147102952D01*
%TO.C,C16*%
X207398857Y-140819142D02*
X207446476Y-140866761D01*
X207589333Y-140914380D01*
X207684571Y-140914380D01*
X207827428Y-140866761D01*
X207922666Y-140771523D01*
X207970285Y-140676285D01*
X208017904Y-140485809D01*
X208017904Y-140342952D01*
X207970285Y-140152476D01*
X207922666Y-140057238D01*
X207827428Y-139962000D01*
X207684571Y-139914380D01*
X207589333Y-139914380D01*
X207446476Y-139962000D01*
X207398857Y-140009619D01*
X206446476Y-140914380D02*
X207017904Y-140914380D01*
X206732190Y-140914380D02*
X206732190Y-139914380D01*
X206827428Y-140057238D01*
X206922666Y-140152476D01*
X207017904Y-140200095D01*
X205589333Y-139914380D02*
X205779809Y-139914380D01*
X205875047Y-139962000D01*
X205922666Y-140009619D01*
X206017904Y-140152476D01*
X206065523Y-140342952D01*
X206065523Y-140723904D01*
X206017904Y-140819142D01*
X205970285Y-140866761D01*
X205875047Y-140914380D01*
X205684571Y-140914380D01*
X205589333Y-140866761D01*
X205541714Y-140819142D01*
X205494095Y-140723904D01*
X205494095Y-140485809D01*
X205541714Y-140390571D01*
X205589333Y-140342952D01*
X205684571Y-140295333D01*
X205875047Y-140295333D01*
X205970285Y-140342952D01*
X206017904Y-140390571D01*
X206065523Y-140485809D01*
%TO.C,J14*%
X271319523Y-109434380D02*
X271319523Y-110148666D01*
X271367142Y-110291523D01*
X271462380Y-110386761D01*
X271605238Y-110434380D01*
X271700476Y-110434380D01*
X270319523Y-110434380D02*
X270890952Y-110434380D01*
X270605238Y-110434380D02*
X270605238Y-109434380D01*
X270700476Y-109577238D01*
X270795714Y-109672476D01*
X270890952Y-109720095D01*
X269462380Y-109767714D02*
X269462380Y-110434380D01*
X269700476Y-109386761D02*
X269938571Y-110101047D01*
X269319523Y-110101047D01*
%TO.C,C10*%
X241485657Y-100941142D02*
X241533276Y-100988761D01*
X241676133Y-101036380D01*
X241771371Y-101036380D01*
X241914228Y-100988761D01*
X242009466Y-100893523D01*
X242057085Y-100798285D01*
X242104704Y-100607809D01*
X242104704Y-100464952D01*
X242057085Y-100274476D01*
X242009466Y-100179238D01*
X241914228Y-100084000D01*
X241771371Y-100036380D01*
X241676133Y-100036380D01*
X241533276Y-100084000D01*
X241485657Y-100131619D01*
X240533276Y-101036380D02*
X241104704Y-101036380D01*
X240818990Y-101036380D02*
X240818990Y-100036380D01*
X240914228Y-100179238D01*
X241009466Y-100274476D01*
X241104704Y-100322095D01*
X239914228Y-100036380D02*
X239818990Y-100036380D01*
X239723752Y-100084000D01*
X239676133Y-100131619D01*
X239628514Y-100226857D01*
X239580895Y-100417333D01*
X239580895Y-100655428D01*
X239628514Y-100845904D01*
X239676133Y-100941142D01*
X239723752Y-100988761D01*
X239818990Y-101036380D01*
X239914228Y-101036380D01*
X240009466Y-100988761D01*
X240057085Y-100941142D01*
X240104704Y-100845904D01*
X240152323Y-100655428D01*
X240152323Y-100417333D01*
X240104704Y-100226857D01*
X240057085Y-100131619D01*
X240009466Y-100084000D01*
X239914228Y-100036380D01*
%TO.C,J11*%
X290775923Y-81392780D02*
X290775923Y-82107066D01*
X290823542Y-82249923D01*
X290918780Y-82345161D01*
X291061638Y-82392780D01*
X291156876Y-82392780D01*
X289775923Y-82392780D02*
X290347352Y-82392780D01*
X290061638Y-82392780D02*
X290061638Y-81392780D01*
X290156876Y-81535638D01*
X290252114Y-81630876D01*
X290347352Y-81678495D01*
X288823542Y-82392780D02*
X289394971Y-82392780D01*
X289109257Y-82392780D02*
X289109257Y-81392780D01*
X289204495Y-81535638D01*
X289299733Y-81630876D01*
X289394971Y-81678495D01*
%TO.C,R32*%
X213952057Y-139949180D02*
X214285390Y-139472990D01*
X214523485Y-139949180D02*
X214523485Y-138949180D01*
X214142533Y-138949180D01*
X214047295Y-138996800D01*
X213999676Y-139044419D01*
X213952057Y-139139657D01*
X213952057Y-139282514D01*
X213999676Y-139377752D01*
X214047295Y-139425371D01*
X214142533Y-139472990D01*
X214523485Y-139472990D01*
X213618723Y-138949180D02*
X212999676Y-138949180D01*
X213333009Y-139330133D01*
X213190152Y-139330133D01*
X213094914Y-139377752D01*
X213047295Y-139425371D01*
X212999676Y-139520609D01*
X212999676Y-139758704D01*
X213047295Y-139853942D01*
X213094914Y-139901561D01*
X213190152Y-139949180D01*
X213475866Y-139949180D01*
X213571104Y-139901561D01*
X213618723Y-139853942D01*
X212618723Y-139044419D02*
X212571104Y-138996800D01*
X212475866Y-138949180D01*
X212237771Y-138949180D01*
X212142533Y-138996800D01*
X212094914Y-139044419D01*
X212047295Y-139139657D01*
X212047295Y-139234895D01*
X212094914Y-139377752D01*
X212666342Y-139949180D01*
X212047295Y-139949180D01*
%TO.C,J13*%
X267763523Y-109307380D02*
X267763523Y-110021666D01*
X267811142Y-110164523D01*
X267906380Y-110259761D01*
X268049238Y-110307380D01*
X268144476Y-110307380D01*
X266763523Y-110307380D02*
X267334952Y-110307380D01*
X267049238Y-110307380D02*
X267049238Y-109307380D01*
X267144476Y-109450238D01*
X267239714Y-109545476D01*
X267334952Y-109593095D01*
X266430190Y-109307380D02*
X265811142Y-109307380D01*
X266144476Y-109688333D01*
X266001619Y-109688333D01*
X265906380Y-109735952D01*
X265858761Y-109783571D01*
X265811142Y-109878809D01*
X265811142Y-110116904D01*
X265858761Y-110212142D01*
X265906380Y-110259761D01*
X266001619Y-110307380D01*
X266287333Y-110307380D01*
X266382571Y-110259761D01*
X266430190Y-110212142D01*
%TO.C,C18*%
X190787257Y-89155542D02*
X190834876Y-89203161D01*
X190977733Y-89250780D01*
X191072971Y-89250780D01*
X191215828Y-89203161D01*
X191311066Y-89107923D01*
X191358685Y-89012685D01*
X191406304Y-88822209D01*
X191406304Y-88679352D01*
X191358685Y-88488876D01*
X191311066Y-88393638D01*
X191215828Y-88298400D01*
X191072971Y-88250780D01*
X190977733Y-88250780D01*
X190834876Y-88298400D01*
X190787257Y-88346019D01*
X189834876Y-89250780D02*
X190406304Y-89250780D01*
X190120590Y-89250780D02*
X190120590Y-88250780D01*
X190215828Y-88393638D01*
X190311066Y-88488876D01*
X190406304Y-88536495D01*
X189263447Y-88679352D02*
X189358685Y-88631733D01*
X189406304Y-88584114D01*
X189453923Y-88488876D01*
X189453923Y-88441257D01*
X189406304Y-88346019D01*
X189358685Y-88298400D01*
X189263447Y-88250780D01*
X189072971Y-88250780D01*
X188977733Y-88298400D01*
X188930114Y-88346019D01*
X188882495Y-88441257D01*
X188882495Y-88488876D01*
X188930114Y-88584114D01*
X188977733Y-88631733D01*
X189072971Y-88679352D01*
X189263447Y-88679352D01*
X189358685Y-88726971D01*
X189406304Y-88774590D01*
X189453923Y-88869828D01*
X189453923Y-89060304D01*
X189406304Y-89155542D01*
X189358685Y-89203161D01*
X189263447Y-89250780D01*
X189072971Y-89250780D01*
X188977733Y-89203161D01*
X188930114Y-89155542D01*
X188882495Y-89060304D01*
X188882495Y-88869828D01*
X188930114Y-88774590D01*
X188977733Y-88726971D01*
X189072971Y-88679352D01*
%TO.C,R5*%
X278450966Y-143454380D02*
X278784300Y-142978190D01*
X279022395Y-143454380D02*
X279022395Y-142454380D01*
X278641442Y-142454380D01*
X278546204Y-142502000D01*
X278498585Y-142549619D01*
X278450966Y-142644857D01*
X278450966Y-142787714D01*
X278498585Y-142882952D01*
X278546204Y-142930571D01*
X278641442Y-142978190D01*
X279022395Y-142978190D01*
X277546204Y-142454380D02*
X278022395Y-142454380D01*
X278070014Y-142930571D01*
X278022395Y-142882952D01*
X277927157Y-142835333D01*
X277689061Y-142835333D01*
X277593823Y-142882952D01*
X277546204Y-142930571D01*
X277498585Y-143025809D01*
X277498585Y-143263904D01*
X277546204Y-143359142D01*
X277593823Y-143406761D01*
X277689061Y-143454380D01*
X277927157Y-143454380D01*
X278022395Y-143406761D01*
X278070014Y-143359142D01*
%TO.C,J9*%
X269878133Y-160437580D02*
X269878133Y-161151866D01*
X269925752Y-161294723D01*
X270020990Y-161389961D01*
X270163847Y-161437580D01*
X270259085Y-161437580D01*
X269354323Y-161437580D02*
X269163847Y-161437580D01*
X269068609Y-161389961D01*
X269020990Y-161342342D01*
X268925752Y-161199485D01*
X268878133Y-161009009D01*
X268878133Y-160628057D01*
X268925752Y-160532819D01*
X268973371Y-160485200D01*
X269068609Y-160437580D01*
X269259085Y-160437580D01*
X269354323Y-160485200D01*
X269401942Y-160532819D01*
X269449561Y-160628057D01*
X269449561Y-160866152D01*
X269401942Y-160961390D01*
X269354323Y-161009009D01*
X269259085Y-161056628D01*
X269068609Y-161056628D01*
X268973371Y-161009009D01*
X268925752Y-160961390D01*
X268878133Y-160866152D01*
%TO.C,C35*%
X214098142Y-131818142D02*
X214145761Y-131770523D01*
X214193380Y-131627666D01*
X214193380Y-131532428D01*
X214145761Y-131389571D01*
X214050523Y-131294333D01*
X213955285Y-131246714D01*
X213764809Y-131199095D01*
X213621952Y-131199095D01*
X213431476Y-131246714D01*
X213336238Y-131294333D01*
X213241000Y-131389571D01*
X213193380Y-131532428D01*
X213193380Y-131627666D01*
X213241000Y-131770523D01*
X213288619Y-131818142D01*
X213193380Y-132151476D02*
X213193380Y-132770523D01*
X213574333Y-132437190D01*
X213574333Y-132580047D01*
X213621952Y-132675285D01*
X213669571Y-132722904D01*
X213764809Y-132770523D01*
X214002904Y-132770523D01*
X214098142Y-132722904D01*
X214145761Y-132675285D01*
X214193380Y-132580047D01*
X214193380Y-132294333D01*
X214145761Y-132199095D01*
X214098142Y-132151476D01*
X213193380Y-133675285D02*
X213193380Y-133199095D01*
X213669571Y-133151476D01*
X213621952Y-133199095D01*
X213574333Y-133294333D01*
X213574333Y-133532428D01*
X213621952Y-133627666D01*
X213669571Y-133675285D01*
X213764809Y-133722904D01*
X214002904Y-133722904D01*
X214098142Y-133675285D01*
X214145761Y-133627666D01*
X214193380Y-133532428D01*
X214193380Y-133294333D01*
X214145761Y-133199095D01*
X214098142Y-133151476D01*
%TO.C,C17*%
X246385142Y-98112342D02*
X246432761Y-98064723D01*
X246480380Y-97921866D01*
X246480380Y-97826628D01*
X246432761Y-97683771D01*
X246337523Y-97588533D01*
X246242285Y-97540914D01*
X246051809Y-97493295D01*
X245908952Y-97493295D01*
X245718476Y-97540914D01*
X245623238Y-97588533D01*
X245528000Y-97683771D01*
X245480380Y-97826628D01*
X245480380Y-97921866D01*
X245528000Y-98064723D01*
X245575619Y-98112342D01*
X246480380Y-99064723D02*
X246480380Y-98493295D01*
X246480380Y-98779009D02*
X245480380Y-98779009D01*
X245623238Y-98683771D01*
X245718476Y-98588533D01*
X245766095Y-98493295D01*
X245480380Y-99398057D02*
X245480380Y-100064723D01*
X246480380Y-99636152D01*
%TO.C,C5*%
X278601466Y-141225542D02*
X278649085Y-141273161D01*
X278791942Y-141320780D01*
X278887180Y-141320780D01*
X279030038Y-141273161D01*
X279125276Y-141177923D01*
X279172895Y-141082685D01*
X279220514Y-140892209D01*
X279220514Y-140749352D01*
X279172895Y-140558876D01*
X279125276Y-140463638D01*
X279030038Y-140368400D01*
X278887180Y-140320780D01*
X278791942Y-140320780D01*
X278649085Y-140368400D01*
X278601466Y-140416019D01*
X277696704Y-140320780D02*
X278172895Y-140320780D01*
X278220514Y-140796971D01*
X278172895Y-140749352D01*
X278077657Y-140701733D01*
X277839561Y-140701733D01*
X277744323Y-140749352D01*
X277696704Y-140796971D01*
X277649085Y-140892209D01*
X277649085Y-141130304D01*
X277696704Y-141225542D01*
X277744323Y-141273161D01*
X277839561Y-141320780D01*
X278077657Y-141320780D01*
X278172895Y-141273161D01*
X278220514Y-141225542D01*
%TO.C,R31*%
X217304857Y-132532380D02*
X217638190Y-132056190D01*
X217876285Y-132532380D02*
X217876285Y-131532380D01*
X217495333Y-131532380D01*
X217400095Y-131580000D01*
X217352476Y-131627619D01*
X217304857Y-131722857D01*
X217304857Y-131865714D01*
X217352476Y-131960952D01*
X217400095Y-132008571D01*
X217495333Y-132056190D01*
X217876285Y-132056190D01*
X216971523Y-131532380D02*
X216352476Y-131532380D01*
X216685809Y-131913333D01*
X216542952Y-131913333D01*
X216447714Y-131960952D01*
X216400095Y-132008571D01*
X216352476Y-132103809D01*
X216352476Y-132341904D01*
X216400095Y-132437142D01*
X216447714Y-132484761D01*
X216542952Y-132532380D01*
X216828666Y-132532380D01*
X216923904Y-132484761D01*
X216971523Y-132437142D01*
X215400095Y-132532380D02*
X215971523Y-132532380D01*
X215685809Y-132532380D02*
X215685809Y-131532380D01*
X215781047Y-131675238D01*
X215876285Y-131770476D01*
X215971523Y-131818095D01*
%TO.C,U7*%
X280669904Y-96480380D02*
X280669904Y-97289904D01*
X280622285Y-97385142D01*
X280574666Y-97432761D01*
X280479428Y-97480380D01*
X280288952Y-97480380D01*
X280193714Y-97432761D01*
X280146095Y-97385142D01*
X280098476Y-97289904D01*
X280098476Y-96480380D01*
X279717523Y-96480380D02*
X279050857Y-96480380D01*
X279479428Y-97480380D01*
%TO.C,C32*%
X228449142Y-140581142D02*
X228496761Y-140533523D01*
X228544380Y-140390666D01*
X228544380Y-140295428D01*
X228496761Y-140152571D01*
X228401523Y-140057333D01*
X228306285Y-140009714D01*
X228115809Y-139962095D01*
X227972952Y-139962095D01*
X227782476Y-140009714D01*
X227687238Y-140057333D01*
X227592000Y-140152571D01*
X227544380Y-140295428D01*
X227544380Y-140390666D01*
X227592000Y-140533523D01*
X227639619Y-140581142D01*
X227544380Y-140914476D02*
X227544380Y-141533523D01*
X227925333Y-141200190D01*
X227925333Y-141343047D01*
X227972952Y-141438285D01*
X228020571Y-141485904D01*
X228115809Y-141533523D01*
X228353904Y-141533523D01*
X228449142Y-141485904D01*
X228496761Y-141438285D01*
X228544380Y-141343047D01*
X228544380Y-141057333D01*
X228496761Y-140962095D01*
X228449142Y-140914476D01*
X227639619Y-141914476D02*
X227592000Y-141962095D01*
X227544380Y-142057333D01*
X227544380Y-142295428D01*
X227592000Y-142390666D01*
X227639619Y-142438285D01*
X227734857Y-142485904D01*
X227830095Y-142485904D01*
X227972952Y-142438285D01*
X228544380Y-141866857D01*
X228544380Y-142485904D01*
%TO.C,RV2*%
X241336438Y-104084380D02*
X241669771Y-103608190D01*
X241907866Y-104084380D02*
X241907866Y-103084380D01*
X241526914Y-103084380D01*
X241431676Y-103132000D01*
X241384057Y-103179619D01*
X241336438Y-103274857D01*
X241336438Y-103417714D01*
X241384057Y-103512952D01*
X241431676Y-103560571D01*
X241526914Y-103608190D01*
X241907866Y-103608190D01*
X241050723Y-103084380D02*
X240717390Y-104084380D01*
X240384057Y-103084380D01*
X240098342Y-103179619D02*
X240050723Y-103132000D01*
X239955485Y-103084380D01*
X239717390Y-103084380D01*
X239622152Y-103132000D01*
X239574533Y-103179619D01*
X239526914Y-103274857D01*
X239526914Y-103370095D01*
X239574533Y-103512952D01*
X240145961Y-104084380D01*
X239526914Y-104084380D01*
%TO.C,R25*%
X252604857Y-134462780D02*
X252938190Y-133986590D01*
X253176285Y-134462780D02*
X253176285Y-133462780D01*
X252795333Y-133462780D01*
X252700095Y-133510400D01*
X252652476Y-133558019D01*
X252604857Y-133653257D01*
X252604857Y-133796114D01*
X252652476Y-133891352D01*
X252700095Y-133938971D01*
X252795333Y-133986590D01*
X253176285Y-133986590D01*
X252223904Y-133558019D02*
X252176285Y-133510400D01*
X252081047Y-133462780D01*
X251842952Y-133462780D01*
X251747714Y-133510400D01*
X251700095Y-133558019D01*
X251652476Y-133653257D01*
X251652476Y-133748495D01*
X251700095Y-133891352D01*
X252271523Y-134462780D01*
X251652476Y-134462780D01*
X250747714Y-133462780D02*
X251223904Y-133462780D01*
X251271523Y-133938971D01*
X251223904Y-133891352D01*
X251128666Y-133843733D01*
X250890571Y-133843733D01*
X250795333Y-133891352D01*
X250747714Y-133938971D01*
X250700095Y-134034209D01*
X250700095Y-134272304D01*
X250747714Y-134367542D01*
X250795333Y-134415161D01*
X250890571Y-134462780D01*
X251128666Y-134462780D01*
X251223904Y-134415161D01*
X251271523Y-134367542D01*
D11*
%TO.C,J12*%
X283805085Y-164359771D02*
X283805085Y-164795200D01*
X283834114Y-164882285D01*
X283892171Y-164940342D01*
X283979257Y-164969371D01*
X284037314Y-164969371D01*
X283195485Y-164969371D02*
X283543828Y-164969371D01*
X283369657Y-164969371D02*
X283369657Y-164359771D01*
X283427714Y-164446857D01*
X283485771Y-164504914D01*
X283543828Y-164533942D01*
X282963257Y-164417828D02*
X282934228Y-164388800D01*
X282876171Y-164359771D01*
X282731028Y-164359771D01*
X282672971Y-164388800D01*
X282643942Y-164417828D01*
X282614914Y-164475885D01*
X282614914Y-164533942D01*
X282643942Y-164621028D01*
X282992285Y-164969371D01*
X282614914Y-164969371D01*
D10*
%TO.C,JP1*%
X256611333Y-100442780D02*
X256611333Y-101157066D01*
X256658952Y-101299923D01*
X256754190Y-101395161D01*
X256897047Y-101442780D01*
X256992285Y-101442780D01*
X256135142Y-101442780D02*
X256135142Y-100442780D01*
X255754190Y-100442780D01*
X255658952Y-100490400D01*
X255611333Y-100538019D01*
X255563714Y-100633257D01*
X255563714Y-100776114D01*
X255611333Y-100871352D01*
X255658952Y-100918971D01*
X255754190Y-100966590D01*
X256135142Y-100966590D01*
X254611333Y-101442780D02*
X255182761Y-101442780D01*
X254897047Y-101442780D02*
X254897047Y-100442780D01*
X254992285Y-100585638D01*
X255087523Y-100680876D01*
X255182761Y-100728495D01*
D11*
%TO.C,J5*%
X283870400Y-139416971D02*
X283870400Y-139852400D01*
X283899428Y-139939485D01*
X283957485Y-139997542D01*
X284044571Y-140026571D01*
X284102628Y-140026571D01*
X283289828Y-139416971D02*
X283580114Y-139416971D01*
X283609142Y-139707257D01*
X283580114Y-139678228D01*
X283522057Y-139649200D01*
X283376914Y-139649200D01*
X283318857Y-139678228D01*
X283289828Y-139707257D01*
X283260800Y-139765314D01*
X283260800Y-139910457D01*
X283289828Y-139968514D01*
X283318857Y-139997542D01*
X283376914Y-140026571D01*
X283522057Y-140026571D01*
X283580114Y-139997542D01*
X283609142Y-139968514D01*
D10*
%TO.C,R8*%
X262990666Y-139690130D02*
X263324000Y-139213940D01*
X263562095Y-139690130D02*
X263562095Y-138690130D01*
X263181142Y-138690130D01*
X263085904Y-138737750D01*
X263038285Y-138785369D01*
X262990666Y-138880607D01*
X262990666Y-139023464D01*
X263038285Y-139118702D01*
X263085904Y-139166321D01*
X263181142Y-139213940D01*
X263562095Y-139213940D01*
X262419238Y-139118702D02*
X262514476Y-139071083D01*
X262562095Y-139023464D01*
X262609714Y-138928226D01*
X262609714Y-138880607D01*
X262562095Y-138785369D01*
X262514476Y-138737750D01*
X262419238Y-138690130D01*
X262228761Y-138690130D01*
X262133523Y-138737750D01*
X262085904Y-138785369D01*
X262038285Y-138880607D01*
X262038285Y-138928226D01*
X262085904Y-139023464D01*
X262133523Y-139071083D01*
X262228761Y-139118702D01*
X262419238Y-139118702D01*
X262514476Y-139166321D01*
X262562095Y-139213940D01*
X262609714Y-139309178D01*
X262609714Y-139499654D01*
X262562095Y-139594892D01*
X262514476Y-139642511D01*
X262419238Y-139690130D01*
X262228761Y-139690130D01*
X262133523Y-139642511D01*
X262085904Y-139594892D01*
X262038285Y-139499654D01*
X262038285Y-139309178D01*
X262085904Y-139213940D01*
X262133523Y-139166321D01*
X262228761Y-139118702D01*
%TO.C,R26*%
X239021857Y-133421380D02*
X239355190Y-132945190D01*
X239593285Y-133421380D02*
X239593285Y-132421380D01*
X239212333Y-132421380D01*
X239117095Y-132469000D01*
X239069476Y-132516619D01*
X239021857Y-132611857D01*
X239021857Y-132754714D01*
X239069476Y-132849952D01*
X239117095Y-132897571D01*
X239212333Y-132945190D01*
X239593285Y-132945190D01*
X238640904Y-132516619D02*
X238593285Y-132469000D01*
X238498047Y-132421380D01*
X238259952Y-132421380D01*
X238164714Y-132469000D01*
X238117095Y-132516619D01*
X238069476Y-132611857D01*
X238069476Y-132707095D01*
X238117095Y-132849952D01*
X238688523Y-133421380D01*
X238069476Y-133421380D01*
X237212333Y-132421380D02*
X237402809Y-132421380D01*
X237498047Y-132469000D01*
X237545666Y-132516619D01*
X237640904Y-132659476D01*
X237688523Y-132849952D01*
X237688523Y-133230904D01*
X237640904Y-133326142D01*
X237593285Y-133373761D01*
X237498047Y-133421380D01*
X237307571Y-133421380D01*
X237212333Y-133373761D01*
X237164714Y-133326142D01*
X237117095Y-133230904D01*
X237117095Y-132992809D01*
X237164714Y-132897571D01*
X237212333Y-132849952D01*
X237307571Y-132802333D01*
X237498047Y-132802333D01*
X237593285Y-132849952D01*
X237640904Y-132897571D01*
X237688523Y-132992809D01*
%TO.C,R4*%
X278398266Y-145791180D02*
X278731600Y-145314990D01*
X278969695Y-145791180D02*
X278969695Y-144791180D01*
X278588742Y-144791180D01*
X278493504Y-144838800D01*
X278445885Y-144886419D01*
X278398266Y-144981657D01*
X278398266Y-145124514D01*
X278445885Y-145219752D01*
X278493504Y-145267371D01*
X278588742Y-145314990D01*
X278969695Y-145314990D01*
X277541123Y-145124514D02*
X277541123Y-145791180D01*
X277779219Y-144743561D02*
X278017314Y-145457847D01*
X277398266Y-145457847D01*
%TO.C,R12*%
X256317357Y-139136380D02*
X256650690Y-138660190D01*
X256888785Y-139136380D02*
X256888785Y-138136380D01*
X256507833Y-138136380D01*
X256412595Y-138184000D01*
X256364976Y-138231619D01*
X256317357Y-138326857D01*
X256317357Y-138469714D01*
X256364976Y-138564952D01*
X256412595Y-138612571D01*
X256507833Y-138660190D01*
X256888785Y-138660190D01*
X255364976Y-139136380D02*
X255936404Y-139136380D01*
X255650690Y-139136380D02*
X255650690Y-138136380D01*
X255745928Y-138279238D01*
X255841166Y-138374476D01*
X255936404Y-138422095D01*
X254984023Y-138231619D02*
X254936404Y-138184000D01*
X254841166Y-138136380D01*
X254603071Y-138136380D01*
X254507833Y-138184000D01*
X254460214Y-138231619D01*
X254412595Y-138326857D01*
X254412595Y-138422095D01*
X254460214Y-138564952D01*
X255031642Y-139136380D01*
X254412595Y-139136380D01*
%TO.C,C12*%
X263466857Y-145083892D02*
X263514476Y-145131511D01*
X263657333Y-145179130D01*
X263752571Y-145179130D01*
X263895428Y-145131511D01*
X263990666Y-145036273D01*
X264038285Y-144941035D01*
X264085904Y-144750559D01*
X264085904Y-144607702D01*
X264038285Y-144417226D01*
X263990666Y-144321988D01*
X263895428Y-144226750D01*
X263752571Y-144179130D01*
X263657333Y-144179130D01*
X263514476Y-144226750D01*
X263466857Y-144274369D01*
X262514476Y-145179130D02*
X263085904Y-145179130D01*
X262800190Y-145179130D02*
X262800190Y-144179130D01*
X262895428Y-144321988D01*
X262990666Y-144417226D01*
X263085904Y-144464845D01*
X262133523Y-144274369D02*
X262085904Y-144226750D01*
X261990666Y-144179130D01*
X261752571Y-144179130D01*
X261657333Y-144226750D01*
X261609714Y-144274369D01*
X261562095Y-144369607D01*
X261562095Y-144464845D01*
X261609714Y-144607702D01*
X262181142Y-145179130D01*
X261562095Y-145179130D01*
%TO.C,C21*%
X245752857Y-112777542D02*
X245800476Y-112825161D01*
X245943333Y-112872780D01*
X246038571Y-112872780D01*
X246181428Y-112825161D01*
X246276666Y-112729923D01*
X246324285Y-112634685D01*
X246371904Y-112444209D01*
X246371904Y-112301352D01*
X246324285Y-112110876D01*
X246276666Y-112015638D01*
X246181428Y-111920400D01*
X246038571Y-111872780D01*
X245943333Y-111872780D01*
X245800476Y-111920400D01*
X245752857Y-111968019D01*
X245371904Y-111968019D02*
X245324285Y-111920400D01*
X245229047Y-111872780D01*
X244990952Y-111872780D01*
X244895714Y-111920400D01*
X244848095Y-111968019D01*
X244800476Y-112063257D01*
X244800476Y-112158495D01*
X244848095Y-112301352D01*
X245419523Y-112872780D01*
X244800476Y-112872780D01*
X243848095Y-112872780D02*
X244419523Y-112872780D01*
X244133809Y-112872780D02*
X244133809Y-111872780D01*
X244229047Y-112015638D01*
X244324285Y-112110876D01*
X244419523Y-112158495D01*
%TO.C,C31*%
X242704857Y-133326142D02*
X242752476Y-133373761D01*
X242895333Y-133421380D01*
X242990571Y-133421380D01*
X243133428Y-133373761D01*
X243228666Y-133278523D01*
X243276285Y-133183285D01*
X243323904Y-132992809D01*
X243323904Y-132849952D01*
X243276285Y-132659476D01*
X243228666Y-132564238D01*
X243133428Y-132469000D01*
X242990571Y-132421380D01*
X242895333Y-132421380D01*
X242752476Y-132469000D01*
X242704857Y-132516619D01*
X242371523Y-132421380D02*
X241752476Y-132421380D01*
X242085809Y-132802333D01*
X241942952Y-132802333D01*
X241847714Y-132849952D01*
X241800095Y-132897571D01*
X241752476Y-132992809D01*
X241752476Y-133230904D01*
X241800095Y-133326142D01*
X241847714Y-133373761D01*
X241942952Y-133421380D01*
X242228666Y-133421380D01*
X242323904Y-133373761D01*
X242371523Y-133326142D01*
X240800095Y-133421380D02*
X241371523Y-133421380D01*
X241085809Y-133421380D02*
X241085809Y-132421380D01*
X241181047Y-132564238D01*
X241276285Y-132659476D01*
X241371523Y-132707095D01*
D11*
%TO.C,J4*%
X283921200Y-126869371D02*
X283921200Y-127304800D01*
X283950228Y-127391885D01*
X284008285Y-127449942D01*
X284095371Y-127478971D01*
X284153428Y-127478971D01*
X283369657Y-127072571D02*
X283369657Y-127478971D01*
X283514800Y-126840342D02*
X283659942Y-127275771D01*
X283282571Y-127275771D01*
D10*
%TO.C,C33*%
X228607857Y-147296142D02*
X228655476Y-147343761D01*
X228798333Y-147391380D01*
X228893571Y-147391380D01*
X229036428Y-147343761D01*
X229131666Y-147248523D01*
X229179285Y-147153285D01*
X229226904Y-146962809D01*
X229226904Y-146819952D01*
X229179285Y-146629476D01*
X229131666Y-146534238D01*
X229036428Y-146439000D01*
X228893571Y-146391380D01*
X228798333Y-146391380D01*
X228655476Y-146439000D01*
X228607857Y-146486619D01*
X228274523Y-146391380D02*
X227655476Y-146391380D01*
X227988809Y-146772333D01*
X227845952Y-146772333D01*
X227750714Y-146819952D01*
X227703095Y-146867571D01*
X227655476Y-146962809D01*
X227655476Y-147200904D01*
X227703095Y-147296142D01*
X227750714Y-147343761D01*
X227845952Y-147391380D01*
X228131666Y-147391380D01*
X228226904Y-147343761D01*
X228274523Y-147296142D01*
X227322142Y-146391380D02*
X226703095Y-146391380D01*
X227036428Y-146772333D01*
X226893571Y-146772333D01*
X226798333Y-146819952D01*
X226750714Y-146867571D01*
X226703095Y-146962809D01*
X226703095Y-147200904D01*
X226750714Y-147296142D01*
X226798333Y-147343761D01*
X226893571Y-147391380D01*
X227179285Y-147391380D01*
X227274523Y-147343761D01*
X227322142Y-147296142D01*
%TO.C,R19*%
X261056380Y-101160342D02*
X260580190Y-100827009D01*
X261056380Y-100588914D02*
X260056380Y-100588914D01*
X260056380Y-100969866D01*
X260104000Y-101065104D01*
X260151619Y-101112723D01*
X260246857Y-101160342D01*
X260389714Y-101160342D01*
X260484952Y-101112723D01*
X260532571Y-101065104D01*
X260580190Y-100969866D01*
X260580190Y-100588914D01*
X261056380Y-102112723D02*
X261056380Y-101541295D01*
X261056380Y-101827009D02*
X260056380Y-101827009D01*
X260199238Y-101731771D01*
X260294476Y-101636533D01*
X260342095Y-101541295D01*
X261056380Y-102588914D02*
X261056380Y-102779390D01*
X261008761Y-102874628D01*
X260961142Y-102922247D01*
X260818285Y-103017485D01*
X260627809Y-103065104D01*
X260246857Y-103065104D01*
X260151619Y-103017485D01*
X260104000Y-102969866D01*
X260056380Y-102874628D01*
X260056380Y-102684152D01*
X260104000Y-102588914D01*
X260151619Y-102541295D01*
X260246857Y-102493676D01*
X260484952Y-102493676D01*
X260580190Y-102541295D01*
X260627809Y-102588914D01*
X260675428Y-102684152D01*
X260675428Y-102874628D01*
X260627809Y-102969866D01*
X260580190Y-103017485D01*
X260484952Y-103065104D01*
%TO.C,JP5*%
X250801380Y-130230666D02*
X251515666Y-130230666D01*
X251658523Y-130183047D01*
X251753761Y-130087809D01*
X251801380Y-129944952D01*
X251801380Y-129849714D01*
X251801380Y-130706857D02*
X250801380Y-130706857D01*
X250801380Y-131087809D01*
X250849000Y-131183047D01*
X250896619Y-131230666D01*
X250991857Y-131278285D01*
X251134714Y-131278285D01*
X251229952Y-131230666D01*
X251277571Y-131183047D01*
X251325190Y-131087809D01*
X251325190Y-130706857D01*
X250801380Y-132183047D02*
X250801380Y-131706857D01*
X251277571Y-131659238D01*
X251229952Y-131706857D01*
X251182333Y-131802095D01*
X251182333Y-132040190D01*
X251229952Y-132135428D01*
X251277571Y-132183047D01*
X251372809Y-132230666D01*
X251610904Y-132230666D01*
X251706142Y-132183047D01*
X251753761Y-132135428D01*
X251801380Y-132040190D01*
X251801380Y-131802095D01*
X251753761Y-131706857D01*
X251706142Y-131659238D01*
%TO.C,RV1*%
X268514438Y-147315180D02*
X268847771Y-146838990D01*
X269085866Y-147315180D02*
X269085866Y-146315180D01*
X268704914Y-146315180D01*
X268609676Y-146362800D01*
X268562057Y-146410419D01*
X268514438Y-146505657D01*
X268514438Y-146648514D01*
X268562057Y-146743752D01*
X268609676Y-146791371D01*
X268704914Y-146838990D01*
X269085866Y-146838990D01*
X268228723Y-146315180D02*
X267895390Y-147315180D01*
X267562057Y-146315180D01*
X266704914Y-147315180D02*
X267276342Y-147315180D01*
X266990628Y-147315180D02*
X266990628Y-146315180D01*
X267085866Y-146458038D01*
X267181104Y-146553276D01*
X267276342Y-146600895D01*
%TO.C,R29*%
X230957380Y-131413642D02*
X230481190Y-131080309D01*
X230957380Y-130842214D02*
X229957380Y-130842214D01*
X229957380Y-131223166D01*
X230005000Y-131318404D01*
X230052619Y-131366023D01*
X230147857Y-131413642D01*
X230290714Y-131413642D01*
X230385952Y-131366023D01*
X230433571Y-131318404D01*
X230481190Y-131223166D01*
X230481190Y-130842214D01*
X230052619Y-131794595D02*
X230005000Y-131842214D01*
X229957380Y-131937452D01*
X229957380Y-132175547D01*
X230005000Y-132270785D01*
X230052619Y-132318404D01*
X230147857Y-132366023D01*
X230243095Y-132366023D01*
X230385952Y-132318404D01*
X230957380Y-131746976D01*
X230957380Y-132366023D01*
X230957380Y-132842214D02*
X230957380Y-133032690D01*
X230909761Y-133127928D01*
X230862142Y-133175547D01*
X230719285Y-133270785D01*
X230528809Y-133318404D01*
X230147857Y-133318404D01*
X230052619Y-133270785D01*
X230005000Y-133223166D01*
X229957380Y-133127928D01*
X229957380Y-132937452D01*
X230005000Y-132842214D01*
X230052619Y-132794595D01*
X230147857Y-132746976D01*
X230385952Y-132746976D01*
X230481190Y-132794595D01*
X230528809Y-132842214D01*
X230576428Y-132937452D01*
X230576428Y-133127928D01*
X230528809Y-133223166D01*
X230481190Y-133270785D01*
X230385952Y-133318404D01*
%TO.C,C28*%
X242704857Y-131929142D02*
X242752476Y-131976761D01*
X242895333Y-132024380D01*
X242990571Y-132024380D01*
X243133428Y-131976761D01*
X243228666Y-131881523D01*
X243276285Y-131786285D01*
X243323904Y-131595809D01*
X243323904Y-131452952D01*
X243276285Y-131262476D01*
X243228666Y-131167238D01*
X243133428Y-131072000D01*
X242990571Y-131024380D01*
X242895333Y-131024380D01*
X242752476Y-131072000D01*
X242704857Y-131119619D01*
X242323904Y-131119619D02*
X242276285Y-131072000D01*
X242181047Y-131024380D01*
X241942952Y-131024380D01*
X241847714Y-131072000D01*
X241800095Y-131119619D01*
X241752476Y-131214857D01*
X241752476Y-131310095D01*
X241800095Y-131452952D01*
X242371523Y-132024380D01*
X241752476Y-132024380D01*
X241181047Y-131452952D02*
X241276285Y-131405333D01*
X241323904Y-131357714D01*
X241371523Y-131262476D01*
X241371523Y-131214857D01*
X241323904Y-131119619D01*
X241276285Y-131072000D01*
X241181047Y-131024380D01*
X240990571Y-131024380D01*
X240895333Y-131072000D01*
X240847714Y-131119619D01*
X240800095Y-131214857D01*
X240800095Y-131262476D01*
X240847714Y-131357714D01*
X240895333Y-131405333D01*
X240990571Y-131452952D01*
X241181047Y-131452952D01*
X241276285Y-131500571D01*
X241323904Y-131548190D01*
X241371523Y-131643428D01*
X241371523Y-131833904D01*
X241323904Y-131929142D01*
X241276285Y-131976761D01*
X241181047Y-132024380D01*
X240990571Y-132024380D01*
X240895333Y-131976761D01*
X240847714Y-131929142D01*
X240800095Y-131833904D01*
X240800095Y-131643428D01*
X240847714Y-131548190D01*
X240895333Y-131500571D01*
X240990571Y-131452952D01*
D13*
%TO.C,R11*%
X259003436Y-142521000D02*
X259457564Y-142521000D01*
X259003436Y-143991000D02*
X259457564Y-143991000D01*
%TO.C,C34*%
X221443437Y-142147000D02*
X225899000Y-142147000D01*
X225899000Y-147667000D02*
X225899000Y-145967000D01*
X220379000Y-143211437D02*
X221443437Y-142147000D01*
X225899000Y-142147000D02*
X225899000Y-143847000D01*
X220379000Y-146602563D02*
X220379000Y-145967000D01*
X220379000Y-143211437D02*
X220379000Y-143847000D01*
X220379000Y-146602563D02*
X221443437Y-147667000D01*
X221443437Y-147667000D02*
X225899000Y-147667000D01*
%TO.C,R28*%
X238352064Y-136044000D02*
X237897936Y-136044000D01*
X238352064Y-137514000D02*
X237897936Y-137514000D01*
D14*
%TO.C,Q1*%
X246431000Y-135572000D02*
X246431000Y-135872000D01*
X246431000Y-140272000D02*
X246731000Y-140422000D01*
X246431000Y-139972000D02*
X246431000Y-140272000D01*
X246431000Y-135572000D02*
X246731000Y-135422000D01*
D10*
X249631000Y-139822000D02*
G75*
G03*
X249581000Y-135972000I-1950000J1900000D01*
G01*
D13*
%TO.C,C27*%
X250973000Y-137548252D02*
X250973000Y-137025748D01*
X252443000Y-137548252D02*
X252443000Y-137025748D01*
%TO.C,R18*%
X274039000Y-98324936D02*
X274039000Y-98779064D01*
X272569000Y-98324936D02*
X272569000Y-98779064D01*
%TO.C,C19*%
X178517437Y-89442000D02*
X182973000Y-89442000D01*
X182973000Y-89442000D02*
X182973000Y-91142000D01*
X177453000Y-93897563D02*
X178517437Y-94962000D01*
X178517437Y-94962000D02*
X182973000Y-94962000D01*
X182973000Y-94962000D02*
X182973000Y-93262000D01*
X177453000Y-93897563D02*
X177453000Y-93262000D01*
X177453000Y-90506437D02*
X177453000Y-91142000D01*
X177453000Y-90506437D02*
X178517437Y-89442000D01*
D11*
%TO.C,J3*%
X175291750Y-153497280D02*
X176241710Y-153497280D01*
X185388250Y-153497280D02*
X179538630Y-153497280D01*
X175291750Y-138501120D02*
X176241710Y-138501120D01*
X175291750Y-138501120D02*
X175291750Y-153497280D01*
X185388250Y-138501120D02*
X185388250Y-153497280D01*
X185388250Y-138501120D02*
X179538630Y-138501120D01*
D13*
%TO.C,JP3*%
X232546400Y-92027200D02*
X232546400Y-89227200D01*
X230546400Y-89227200D02*
X230546400Y-92027200D01*
X231846400Y-88577200D02*
X231246400Y-88577200D01*
X231246400Y-92677200D02*
X231846400Y-92677200D01*
X230546400Y-91977200D02*
G75*
G03*
X231246400Y-92677200I699999J-1D01*
G01*
X232546400Y-89277200D02*
G75*
G03*
X231846400Y-88577200I-700000J0D01*
G01*
X231246400Y-88577200D02*
G75*
G03*
X230546400Y-89277200I0J-700000D01*
G01*
X231846400Y-92677200D02*
G75*
G03*
X232546400Y-91977200I1J699999D01*
G01*
%TO.C,JP7*%
X247654800Y-102187200D02*
X248254800Y-102187200D01*
X248254800Y-99387200D02*
X247654800Y-99387200D01*
X248954800Y-101487200D02*
X248954800Y-100087200D01*
X246954800Y-100087200D02*
X246954800Y-101487200D01*
X247654800Y-99387200D02*
G75*
G03*
X246954800Y-100087200I-1J-699999D01*
G01*
X248254800Y-102187200D02*
G75*
G03*
X248954800Y-101487200I0J700000D01*
G01*
X248954800Y-100087200D02*
G75*
G03*
X248254800Y-99387200I-699999J1D01*
G01*
X246954800Y-101487200D02*
G75*
G03*
X247654800Y-102187200I700000J0D01*
G01*
%TO.C,JP2*%
X232495600Y-98326400D02*
X232495600Y-95526400D01*
X230495600Y-95526400D02*
X230495600Y-98326400D01*
X231795600Y-94876400D02*
X231195600Y-94876400D01*
X231195600Y-98976400D02*
X231795600Y-98976400D01*
X232495600Y-95576400D02*
G75*
G03*
X231795600Y-94876400I-700000J0D01*
G01*
X231795600Y-98976400D02*
G75*
G03*
X232495600Y-98276400I1J699999D01*
G01*
X231195600Y-94876400D02*
G75*
G03*
X230495600Y-95576400I0J-700000D01*
G01*
X230495600Y-98276400D02*
G75*
G03*
X231195600Y-98976400I699999J-1D01*
G01*
%TO.C,U6*%
X274639000Y-88526000D02*
X274639000Y-90176000D01*
X269439000Y-88526000D02*
X274639000Y-88526000D01*
X269439000Y-93826000D02*
X269439000Y-88526000D01*
X274639000Y-93826000D02*
X269439000Y-93826000D01*
X274639000Y-92176000D02*
X274639000Y-93826000D01*
X274639000Y-90176000D02*
G75*
G03*
X274639000Y-92176000I0J-1000000D01*
G01*
%TO.C,J2*%
X186674000Y-165674000D02*
X186674000Y-167374000D01*
X186374000Y-157874000D02*
X185074000Y-157874000D01*
X176674000Y-167074000D02*
X186374000Y-167074000D01*
X176674000Y-157874000D02*
X176674000Y-167074000D01*
X180474000Y-157874000D02*
X176674000Y-157874000D01*
X186674000Y-167374000D02*
X185374000Y-167374000D01*
X186374000Y-167074000D02*
X186374000Y-165074000D01*
X186374000Y-159874000D02*
X186374000Y-157874000D01*
%TO.C,L1*%
X240194000Y-115094936D02*
X240194000Y-116299064D01*
X242914000Y-115094936D02*
X242914000Y-116299064D01*
%TO.C,C29*%
X235685000Y-135516252D02*
X235685000Y-134993748D01*
X234215000Y-135516252D02*
X234215000Y-134993748D01*
D14*
%TO.C,S7*%
X251061000Y-113908400D02*
X255728400Y-113908400D01*
X250064200Y-111673200D02*
X250064200Y-109565000D01*
X256170200Y-111662200D02*
X256170200Y-109567000D01*
X250064200Y-111666600D02*
X249814200Y-111666600D01*
X255753800Y-107304400D02*
X250461000Y-107314200D01*
D13*
%TO.C,J6*%
X199468000Y-129387600D02*
X199468000Y-128177600D01*
X199968000Y-131697600D02*
X184748000Y-131697600D01*
X184748000Y-127677600D02*
X199968000Y-127677600D01*
X185248000Y-129387600D02*
X184748000Y-129387600D01*
X199468000Y-128177600D02*
X185248000Y-128177600D01*
X184748000Y-131697600D02*
X184748000Y-127677600D01*
X199968000Y-129387600D02*
X199468000Y-129387600D01*
X184748000Y-130197600D02*
X185748000Y-130197600D01*
X199968000Y-130197600D02*
X198968000Y-130197600D01*
X200268000Y-131997600D02*
X197768000Y-131997600D01*
X185248000Y-128177600D02*
X185248000Y-129387600D01*
X199968000Y-127677600D02*
X199968000Y-131697600D01*
X200268000Y-129497600D02*
X200268000Y-131997600D01*
X198968000Y-130197600D02*
X198968000Y-131697600D01*
X185748000Y-130197600D02*
X185748000Y-131697600D01*
%TO.C,R30*%
X230859064Y-137568000D02*
X230404936Y-137568000D01*
X230859064Y-139038000D02*
X230404936Y-139038000D01*
%TO.C,J7*%
X266305000Y-169730000D02*
X266305000Y-163010000D01*
X262485000Y-170530000D02*
X262485000Y-168030000D01*
X266805000Y-162510000D02*
X266805000Y-170230000D01*
X262785000Y-162510000D02*
X266805000Y-162510000D01*
X266305000Y-163010000D02*
X265095000Y-163010000D01*
X265095000Y-169730000D02*
X266305000Y-169730000D01*
X264985000Y-170530000D02*
X262485000Y-170530000D01*
X262785000Y-170230000D02*
X262785000Y-162510000D01*
X265095000Y-163010000D02*
X265095000Y-162510000D01*
X264285000Y-163510000D02*
X262785000Y-163510000D01*
X265095000Y-170230000D02*
X265095000Y-169730000D01*
X264285000Y-169230000D02*
X262785000Y-169230000D01*
X264285000Y-162510000D02*
X264285000Y-163510000D01*
X264285000Y-170230000D02*
X264285000Y-169230000D01*
X266805000Y-170230000D02*
X262785000Y-170230000D01*
%TO.C,RV4*%
X227139000Y-141633500D02*
X219139000Y-141633500D01*
X219139000Y-141633500D02*
X219139000Y-133433500D01*
X219139000Y-133433500D02*
X227139000Y-133433500D01*
X227139000Y-133433500D02*
X227139000Y-141633500D01*
%TO.C,JP4*%
X245045000Y-119999000D02*
X246445000Y-119999000D01*
X244345000Y-118699000D02*
X244345000Y-119299000D01*
X246445000Y-117999000D02*
X245045000Y-117999000D01*
X247145000Y-119299000D02*
X247145000Y-118699000D01*
X247145000Y-118699000D02*
G75*
G03*
X246445000Y-117999000I-700000J0D01*
G01*
X244345000Y-119299000D02*
G75*
G03*
X245045000Y-119999000I699999J-1D01*
G01*
X245045000Y-117999000D02*
G75*
G03*
X244345000Y-118699000I-1J-699999D01*
G01*
X246445000Y-119999000D02*
G75*
G03*
X247145000Y-119299000I0J700000D01*
G01*
%TO.C,C14*%
X258842248Y-140235000D02*
X259364752Y-140235000D01*
X258842248Y-141705000D02*
X259364752Y-141705000D01*
%TO.C,C7*%
X189923000Y-171216563D02*
X190987437Y-172281000D01*
X190987437Y-172281000D02*
X198443000Y-172281000D01*
X189923000Y-164825437D02*
X189923000Y-166711000D01*
X190987437Y-163761000D02*
X198443000Y-163761000D01*
X198443000Y-172281000D02*
X198443000Y-169331000D01*
X198443000Y-163761000D02*
X198443000Y-166711000D01*
X189923000Y-171216563D02*
X189923000Y-169331000D01*
X189923000Y-164825437D02*
X190987437Y-163761000D01*
%TO.C,RV5*%
X236411000Y-138020500D02*
X244411000Y-138020500D01*
X244411000Y-138020500D02*
X244411000Y-146220500D01*
X244411000Y-146220500D02*
X236411000Y-146220500D01*
X236411000Y-146220500D02*
X236411000Y-138020500D01*
%TO.C,U4*%
X262835000Y-88526000D02*
X268035000Y-88526000D01*
X268035000Y-88526000D02*
X268035000Y-90176000D01*
X262835000Y-93826000D02*
X262835000Y-88526000D01*
X268035000Y-92176000D02*
X268035000Y-93826000D01*
X268035000Y-93826000D02*
X262835000Y-93826000D01*
X268035000Y-90176000D02*
G75*
G03*
X268035000Y-92176000I0J-1000000D01*
G01*
%TO.C,R20*%
X277595000Y-98197936D02*
X277595000Y-98652064D01*
X276125000Y-98197936D02*
X276125000Y-98652064D01*
%TO.C,J10*%
X266599600Y-73664600D02*
X260399600Y-73664600D01*
X260399600Y-76014600D02*
X260399600Y-81264600D01*
X260399600Y-83214600D02*
X260399600Y-83514600D01*
X266599600Y-74164600D02*
X266599600Y-73664600D01*
X266599600Y-83014600D02*
X266599600Y-79414600D01*
X261149600Y-85064600D02*
X266599600Y-85064600D01*
X266599600Y-74164600D02*
X267949600Y-74164600D01*
X260399600Y-73664600D02*
X260399600Y-74064600D01*
X266599600Y-76014600D02*
X267949600Y-76014600D01*
X266599600Y-77514600D02*
X266599600Y-76014600D01*
%TO.C,C36*%
X211997000Y-142274000D02*
X211997000Y-143974000D01*
X217517000Y-143338437D02*
X216452563Y-142274000D01*
X217517000Y-143338437D02*
X217517000Y-143974000D01*
X216452563Y-147794000D02*
X211997000Y-147794000D01*
X211997000Y-147794000D02*
X211997000Y-146094000D01*
X216452563Y-142274000D02*
X211997000Y-142274000D01*
X217517000Y-146729563D02*
X216452563Y-147794000D01*
X217517000Y-146729563D02*
X217517000Y-146094000D01*
%TO.C,C30*%
X231929000Y-135516252D02*
X231929000Y-134993748D01*
X233399000Y-135516252D02*
X233399000Y-134993748D01*
%TO.C,RV3*%
X230476500Y-120459000D02*
X238676500Y-120459000D01*
X238676500Y-120459000D02*
X238676500Y-112459000D01*
X238676500Y-112459000D02*
X230476500Y-112459000D01*
X230476500Y-112459000D02*
X230476500Y-120459000D01*
D11*
%TO.C,U3*%
X175504760Y-81993500D02*
X175504760Y-119993500D01*
X175504760Y-81993500D02*
X229504760Y-81993500D01*
X229504760Y-81993500D02*
X229504760Y-119993500D01*
X175504760Y-119993500D02*
X229504760Y-119993500D01*
D13*
%TO.C,C3*%
X280916748Y-146686600D02*
X281439252Y-146686600D01*
X280916748Y-148156600D02*
X281439252Y-148156600D01*
D10*
%TO.C,U1*%
X247386420Y-90740600D02*
X247361420Y-90740600D01*
X247386420Y-90740600D02*
X247386420Y-95390600D01*
X247386420Y-95390600D02*
X247361420Y-95390600D01*
X240561420Y-95390600D02*
X240661420Y-95390600D01*
X240561420Y-89665600D02*
X240561420Y-95390600D01*
D13*
%TO.C,U5*%
X261685000Y-92176000D02*
X261685000Y-93826000D01*
X261685000Y-88526000D02*
X261685000Y-90176000D01*
X261685000Y-93826000D02*
X256485000Y-93826000D01*
X256485000Y-93826000D02*
X256485000Y-88526000D01*
X256485000Y-88526000D02*
X261685000Y-88526000D01*
X261685000Y-90176000D02*
G75*
G03*
X261685000Y-92176000I0J-1000000D01*
G01*
%TO.C,C20*%
X178950252Y-87403000D02*
X178427748Y-87403000D01*
X178950252Y-88873000D02*
X178427748Y-88873000D01*
%TO.C,R27*%
X244369000Y-135966564D02*
X244369000Y-135512436D01*
X245839000Y-135966564D02*
X245839000Y-135512436D01*
D15*
%TO.C,J1*%
X250024000Y-70624400D02*
X235624000Y-70624400D01*
X235624000Y-78384400D02*
X250024000Y-78384400D01*
X250024000Y-78384400D02*
X250024000Y-70624400D01*
X235624000Y-70624400D02*
X235624000Y-78384400D01*
D13*
%TO.C,JP6*%
X214207600Y-150407600D02*
X214207600Y-149007600D01*
X212907600Y-151107600D02*
X213507600Y-151107600D01*
X213507600Y-148307600D02*
X212907600Y-148307600D01*
X212207600Y-149007600D02*
X212207600Y-150407600D01*
X213507600Y-151107600D02*
G75*
G03*
X214207600Y-150407600I0J700000D01*
G01*
X214207600Y-149007600D02*
G75*
G03*
X213507600Y-148307600I-699999J1D01*
G01*
X212907600Y-148307600D02*
G75*
G03*
X212207600Y-149007600I-1J-699999D01*
G01*
X212207600Y-150407600D02*
G75*
G03*
X212907600Y-151107600I700000J0D01*
G01*
%TO.C,R17*%
X267435000Y-98324936D02*
X267435000Y-98779064D01*
X265965000Y-98324936D02*
X265965000Y-98779064D01*
D11*
%TO.C,T1*%
X278790400Y-161391600D02*
X273202400Y-161391600D01*
X269646400Y-148691600D02*
X282600400Y-148691600D01*
X269646400Y-158851600D02*
X269646400Y-148691600D01*
X282600400Y-158851600D02*
X269646400Y-158851600D01*
X273202400Y-146151600D02*
X273202400Y-149047200D01*
X278790400Y-146151600D02*
X273202400Y-146151600D01*
X278790400Y-148945600D02*
X278790400Y-146151600D01*
X282600400Y-148691600D02*
X282600400Y-158851600D01*
X278790400Y-158673800D02*
X278790400Y-161391600D01*
X273202400Y-161391600D02*
X273202400Y-158496000D01*
D13*
%TO.C,Y1*%
X253927420Y-86467200D02*
X253927420Y-99067200D01*
X248827420Y-86467200D02*
X253927420Y-86467200D01*
X248827420Y-99067200D02*
X248827420Y-86467200D01*
%TO.C,C38*%
X258969248Y-146277000D02*
X259491752Y-146277000D01*
X258969248Y-144807000D02*
X259491752Y-144807000D01*
%TO.C,C16*%
X206903563Y-141536000D02*
X205018000Y-141536000D01*
X207968000Y-150056000D02*
X205018000Y-150056000D01*
X207968000Y-142600437D02*
X207968000Y-150056000D01*
X200512437Y-141536000D02*
X202398000Y-141536000D01*
X199448000Y-142600437D02*
X199448000Y-150056000D01*
X200512437Y-141536000D02*
X199448000Y-142600437D01*
X206903563Y-141536000D02*
X207968000Y-142600437D01*
X199448000Y-150056000D02*
X202398000Y-150056000D01*
D14*
%TO.C,J14*%
X268983000Y-103669000D02*
X269483000Y-103669000D01*
X271783000Y-108969000D02*
X271783000Y-108469000D01*
X268983000Y-108969000D02*
X269483000Y-108969000D01*
X268983000Y-103669000D02*
X268983000Y-104169000D01*
X268983000Y-108969000D02*
X268983000Y-108469000D01*
X271783000Y-103669000D02*
X271783000Y-104169000D01*
X271783000Y-103669000D02*
X271283000Y-103669000D01*
X271783000Y-108969000D02*
X271283000Y-108969000D01*
D13*
%TO.C,C10*%
X240996072Y-98071000D02*
X240473568Y-98071000D01*
X240996072Y-99541000D02*
X240473568Y-99541000D01*
%TO.C,J11*%
X280364000Y-83206000D02*
X280364000Y-83506000D01*
X286564000Y-73656000D02*
X280364000Y-73656000D01*
X281114000Y-85056000D02*
X286564000Y-85056000D01*
X286564000Y-76006000D02*
X287914000Y-76006000D01*
X286564000Y-77506000D02*
X286564000Y-76006000D01*
X286564000Y-74156000D02*
X287914000Y-74156000D01*
X280364000Y-76006000D02*
X280364000Y-81256000D01*
X286564000Y-74156000D02*
X286564000Y-73656000D01*
X286564000Y-83006000D02*
X286564000Y-79406000D01*
X280364000Y-73656000D02*
X280364000Y-74056000D01*
%TO.C,R32*%
X216561936Y-138838000D02*
X217016064Y-138838000D01*
X216561936Y-140308000D02*
X217016064Y-140308000D01*
D14*
%TO.C,J13*%
X265300000Y-103669000D02*
X265300000Y-104169000D01*
X265300000Y-108969000D02*
X265300000Y-108469000D01*
X265300000Y-103669000D02*
X265800000Y-103669000D01*
X268100000Y-108969000D02*
X267600000Y-108969000D01*
X268100000Y-103669000D02*
X268100000Y-104169000D01*
X268100000Y-108969000D02*
X268100000Y-108469000D01*
X265300000Y-108969000D02*
X265800000Y-108969000D01*
X268100000Y-103669000D02*
X267600000Y-103669000D01*
D13*
%TO.C,C18*%
X186240748Y-87961800D02*
X186763252Y-87961800D01*
X186240748Y-89431800D02*
X186763252Y-89431800D01*
%TO.C,R5*%
X281354264Y-143787800D02*
X280900136Y-143787800D01*
X281354264Y-142317800D02*
X280900136Y-142317800D01*
%TO.C,J9*%
X270356400Y-173798800D02*
X270356400Y-174298800D01*
X276556400Y-164748800D02*
X276556400Y-164448800D01*
X270356400Y-170448800D02*
X270356400Y-171948800D01*
X275806400Y-162898800D02*
X270356400Y-162898800D01*
X270356400Y-164948800D02*
X270356400Y-168548800D01*
X270356400Y-171948800D02*
X269006400Y-171948800D01*
X270356400Y-173798800D02*
X269006400Y-173798800D01*
X270356400Y-174298800D02*
X276556400Y-174298800D01*
X276556400Y-171948800D02*
X276556400Y-166698800D01*
X276556400Y-174298800D02*
X276556400Y-173898800D01*
%TO.C,C35*%
X213006000Y-135435748D02*
X213006000Y-135958252D01*
X214476000Y-135435748D02*
X214476000Y-135958252D01*
%TO.C,C17*%
X245083000Y-99016452D02*
X245083000Y-98493948D01*
X243613000Y-99016452D02*
X243613000Y-98493948D01*
%TO.C,C5*%
X280916748Y-141603400D02*
X281439252Y-141603400D01*
X280916748Y-140133400D02*
X281439252Y-140133400D01*
%TO.C,R31*%
X217016064Y-133123000D02*
X216561936Y-133123000D01*
X217016064Y-134593000D02*
X216561936Y-134593000D01*
%TO.C,U7*%
X280989000Y-93826000D02*
X275789000Y-93826000D01*
X275789000Y-93826000D02*
X275789000Y-88526000D01*
X280989000Y-88526000D02*
X280989000Y-90176000D01*
X280989000Y-92176000D02*
X280989000Y-93826000D01*
X275789000Y-88526000D02*
X280989000Y-88526000D01*
X280989000Y-90176000D02*
G75*
G03*
X280989000Y-92176000I0J-1000000D01*
G01*
%TO.C,C32*%
X230893252Y-141324000D02*
X230370748Y-141324000D01*
X230893252Y-139854000D02*
X230370748Y-139854000D01*
%TO.C,RV2*%
X230476500Y-111950000D02*
X238676500Y-111950000D01*
X238676500Y-111950000D02*
X238676500Y-103950000D01*
X238676500Y-103950000D02*
X230476500Y-103950000D01*
X230476500Y-103950000D02*
X230476500Y-111950000D01*
%TO.C,R25*%
X248559936Y-134745400D02*
X249014064Y-134745400D01*
X248559936Y-133275400D02*
X249014064Y-133275400D01*
D16*
%TO.C,J12*%
X295436290Y-153004520D02*
X295436290Y-165003480D01*
X284440630Y-165003480D02*
X285438850Y-165003480D01*
X284440630Y-153004520D02*
X285438850Y-153004520D01*
X284440630Y-153004520D02*
X284440630Y-165003480D01*
X295436290Y-153004520D02*
X288441130Y-153004520D01*
X295436290Y-165003480D02*
X288441130Y-165003480D01*
D13*
%TO.C,JP1*%
X257127200Y-99233000D02*
X257127200Y-98633000D01*
X254327200Y-98633000D02*
X254327200Y-99233000D01*
X256427200Y-97933000D02*
X255027200Y-97933000D01*
X255027200Y-99933000D02*
X256427200Y-99933000D01*
X257127200Y-98633000D02*
G75*
G03*
X256427200Y-97933000I-700000J0D01*
G01*
X255027200Y-97933000D02*
G75*
G03*
X254327200Y-98633000I-1J-699999D01*
G01*
X256427200Y-99933000D02*
G75*
G03*
X257127200Y-99233000I0J700000D01*
G01*
X254327200Y-99233000D02*
G75*
G03*
X255027200Y-99933000I699999J-1D01*
G01*
D16*
%TO.C,J5*%
X284449520Y-139999720D02*
X284449520Y-151998680D01*
X295445180Y-139999720D02*
X288450020Y-139999720D01*
X284449520Y-139999720D02*
X285447740Y-139999720D01*
X295445180Y-151998680D02*
X288450020Y-151998680D01*
X295445180Y-139999720D02*
X295445180Y-151998680D01*
X284449520Y-151998680D02*
X285447740Y-151998680D01*
D13*
%TO.C,R8*%
X263051064Y-140152750D02*
X262596936Y-140152750D01*
X263051064Y-141622750D02*
X262596936Y-141622750D01*
%TO.C,R26*%
X237897936Y-133885000D02*
X238352064Y-133885000D01*
X237897936Y-135355000D02*
X238352064Y-135355000D01*
%TO.C,R4*%
X281354264Y-145972200D02*
X280900136Y-145972200D01*
X281354264Y-144502200D02*
X280900136Y-144502200D01*
%TO.C,R12*%
X259330564Y-137949000D02*
X258876436Y-137949000D01*
X259330564Y-139419000D02*
X258876436Y-139419000D01*
%TO.C,C12*%
X262562748Y-142311750D02*
X263085252Y-142311750D01*
X262562748Y-143781750D02*
X263085252Y-143781750D01*
%TO.C,C21*%
X240366437Y-111472000D02*
X241002000Y-111472000D01*
X239302000Y-110407563D02*
X239302000Y-105952000D01*
X240366437Y-111472000D02*
X239302000Y-110407563D01*
X244822000Y-110407563D02*
X244822000Y-105952000D01*
X243757563Y-111472000D02*
X243122000Y-111472000D01*
X244822000Y-105952000D02*
X243122000Y-105952000D01*
X243757563Y-111472000D02*
X244822000Y-110407563D01*
X239302000Y-105952000D02*
X241002000Y-105952000D01*
%TO.C,C31*%
X241800748Y-137641000D02*
X242323252Y-137641000D01*
X241800748Y-136171000D02*
X242323252Y-136171000D01*
D16*
%TO.C,J4*%
X284440630Y-126994920D02*
X285438850Y-126994920D01*
X295436290Y-126994920D02*
X295436290Y-138993880D01*
X295436290Y-126994920D02*
X288441130Y-126994920D01*
X295436290Y-138993880D02*
X288441130Y-138993880D01*
X284440630Y-138993880D02*
X285438850Y-138993880D01*
X284440630Y-126994920D02*
X284440630Y-138993880D01*
D13*
%TO.C,C33*%
X234105563Y-147667000D02*
X229650000Y-147667000D01*
X229650000Y-147667000D02*
X229650000Y-145967000D01*
X235170000Y-146602563D02*
X234105563Y-147667000D01*
X234105563Y-142147000D02*
X229650000Y-142147000D01*
X235170000Y-143211437D02*
X234105563Y-142147000D01*
X235170000Y-143211437D02*
X235170000Y-143847000D01*
X229650000Y-142147000D02*
X229650000Y-143847000D01*
X235170000Y-146602563D02*
X235170000Y-145967000D01*
%TO.C,R19*%
X259869000Y-98174436D02*
X259869000Y-98628564D01*
X261339000Y-98174436D02*
X261339000Y-98628564D01*
%TO.C,JP5*%
X249849000Y-129664000D02*
X249249000Y-129664000D01*
X250549000Y-131764000D02*
X250549000Y-130364000D01*
X248549000Y-130364000D02*
X248549000Y-131764000D01*
X249249000Y-132464000D02*
X249849000Y-132464000D01*
X249849000Y-132464000D02*
G75*
G03*
X250549000Y-131764000I1J699999D01*
G01*
X250549000Y-130364000D02*
G75*
G03*
X249849000Y-129664000I-700000J0D01*
G01*
X248549000Y-131764000D02*
G75*
G03*
X249249000Y-132464000I699999J-1D01*
G01*
X249249000Y-129664000D02*
G75*
G03*
X248549000Y-130364000I0J-700000D01*
G01*
%TO.C,RV1*%
X275059700Y-137732000D02*
X266859700Y-137732000D01*
X266859700Y-137732000D02*
X266859700Y-145732000D01*
X266859700Y-145732000D02*
X275059700Y-145732000D01*
X275059700Y-145732000D02*
X275059700Y-137732000D01*
%TO.C,R29*%
X229643000Y-135482064D02*
X229643000Y-135027936D01*
X231113000Y-135482064D02*
X231113000Y-135027936D01*
%TO.C,C28*%
X242389252Y-133885000D02*
X241866748Y-133885000D01*
X242389252Y-135355000D02*
X241866748Y-135355000D01*
%TD*%
M02*
