M48
; DRILL file {KiCad (6.0.11-0)} date martes, 23 de mayo de 2023, 17:56:36
; FORMAT={-:-/ absolute / metric / decimal}
; #@! TF.CreationDate,2023-05-23T17:56:36+02:00
; #@! TF.GenerationSoftware,Kicad,Pcbnew,(6.0.11-0)
; #@! TF.FileFunction,NonPlated,1,2,NPTH
FMAT,2
METRIC
; #@! TA.AperFunction,NonPlated,NPTH,ComponentDrill
T1C1.199
; #@! TA.AperFunction,NonPlated,NPTH,ComponentDrill
T2C1.200
; #@! TA.AperFunction,NonPlated,NPTH,ComponentDrill
T3C1.500
%
G90
G05
T1
X286.94Y-132.994
X286.94Y-159.004
X286.949Y-145.999
X291.939Y-127.996
X291.939Y-137.993
X291.939Y-154.005
X291.939Y-164.003
X291.948Y-141.0
X291.948Y-150.998
X294.438Y-127.996
X294.438Y-137.993
X294.438Y-154.005
X294.438Y-164.003
X294.447Y-141.0
X294.447Y-150.998
T2
X240.324Y-80.424
X245.324Y-80.424
T3
X263.5Y-75.465
X263.5Y-82.465
X273.456Y-165.499
X273.456Y-172.499
X283.464Y-75.456
X283.464Y-82.456
T0
M30
