%TF.GenerationSoftware,KiCad,Pcbnew,(6.0.11-0)*%
%TF.CreationDate,2023-05-23T17:56:41+02:00*%
%TF.ProjectId,Keyer_MEGA2560,4b657965-725f-44d4-9547-41323536302e,rev?*%
%TF.SameCoordinates,Original*%
%TF.FileFunction,Drillmap*%
%TF.FilePolarity,Positive*%
%FSLAX45Y45*%
G04 Gerber Fmt 4.5, Leading zero omitted, Abs format (unit mm)*
G04 Created by KiCad (PCBNEW (6.0.11-0)) date 2023-05-23 17:56:41*
%MOMM*%
%LPD*%
G01*
G04 APERTURE LIST*
%ADD10C,0.100000*%
%ADD11C,0.200000*%
%ADD12C,0.119888*%
%ADD13C,0.120000*%
%ADD14C,0.150000*%
G04 APERTURE END LIST*
D10*
X29540200Y-7391400D02*
X29540200Y-17399000D01*
X17551400Y-7391400D02*
X29540200Y-7391400D01*
X17551400Y-17399000D02*
X17551400Y-7391400D01*
X29540200Y-17399000D02*
X17551400Y-17399000D01*
D11*
D12*
X28634055Y-13239496D02*
X28753943Y-13359384D01*
X28753943Y-13239496D02*
X28634055Y-13359384D01*
X28634055Y-15840456D02*
X28753943Y-15960344D01*
X28753943Y-15840456D02*
X28634055Y-15960344D01*
X28634944Y-14539976D02*
X28754832Y-14659864D01*
X28754832Y-14539976D02*
X28634944Y-14659864D01*
X29133927Y-12739624D02*
X29253815Y-12859512D01*
X29253815Y-12739624D02*
X29133927Y-12859512D01*
X29133927Y-13739368D02*
X29253815Y-13859256D01*
X29253815Y-13739368D02*
X29133927Y-13859256D01*
X29133927Y-15340584D02*
X29253815Y-15460472D01*
X29253815Y-15340584D02*
X29133927Y-15460472D01*
X29133927Y-16340328D02*
X29253815Y-16460216D01*
X29253815Y-16340328D02*
X29133927Y-16460216D01*
X29134816Y-14040104D02*
X29254704Y-14159992D01*
X29254704Y-14040104D02*
X29134816Y-14159992D01*
X29134816Y-15039848D02*
X29254704Y-15159736D01*
X29254704Y-15039848D02*
X29134816Y-15159736D01*
X29383863Y-12739624D02*
X29503751Y-12859512D01*
X29503751Y-12739624D02*
X29383863Y-12859512D01*
X29383863Y-13739368D02*
X29503751Y-13859256D01*
X29503751Y-13739368D02*
X29383863Y-13859256D01*
X29383863Y-15340584D02*
X29503751Y-15460472D01*
X29503751Y-15340584D02*
X29383863Y-15460472D01*
X29383863Y-16340328D02*
X29503751Y-16460216D01*
X29503751Y-16340328D02*
X29383863Y-16460216D01*
X29384752Y-14040104D02*
X29504640Y-14159992D01*
X29504640Y-14040104D02*
X29384752Y-14159992D01*
X29384752Y-15039848D02*
X29504640Y-15159736D01*
X29504640Y-15039848D02*
X29384752Y-15159736D01*
D13*
X24092400Y-8042440D02*
G75*
G03*
X24092400Y-8042440I-60000J0D01*
G01*
X24592400Y-8042440D02*
G75*
G03*
X24592400Y-8042440I-60000J0D01*
G01*
D14*
X26349960Y-7471460D02*
X26349960Y-7621460D01*
X26274960Y-7546460D02*
X26424960Y-7546460D01*
X26349960Y-8171460D02*
X26349960Y-8321460D01*
X26274960Y-8246460D02*
X26424960Y-8246460D01*
X27345640Y-16474880D02*
X27345640Y-16624880D01*
X27270640Y-16549880D02*
X27420640Y-16549880D01*
X27345640Y-17174880D02*
X27345640Y-17324880D01*
X27270640Y-17249880D02*
X27420640Y-17249880D01*
X28346400Y-7470600D02*
X28346400Y-7620600D01*
X28271400Y-7545600D02*
X28421400Y-7545600D01*
X28346400Y-8170600D02*
X28346400Y-8320600D01*
X28271400Y-8245600D02*
X28421400Y-8245600D01*
D11*
X17804019Y-17714476D02*
X17804019Y-17514476D01*
X17851638Y-17514476D01*
X17880210Y-17524000D01*
X17899257Y-17543048D01*
X17908781Y-17562095D01*
X17918305Y-17600190D01*
X17918305Y-17628762D01*
X17908781Y-17666857D01*
X17899257Y-17685905D01*
X17880210Y-17704952D01*
X17851638Y-17714476D01*
X17804019Y-17714476D01*
X18004019Y-17714476D02*
X18004019Y-17581143D01*
X18004019Y-17619238D02*
X18013543Y-17600190D01*
X18023067Y-17590667D01*
X18042114Y-17581143D01*
X18061162Y-17581143D01*
X18127829Y-17714476D02*
X18127829Y-17581143D01*
X18127829Y-17514476D02*
X18118305Y-17524000D01*
X18127829Y-17533524D01*
X18137352Y-17524000D01*
X18127829Y-17514476D01*
X18127829Y-17533524D01*
X18251638Y-17714476D02*
X18232590Y-17704952D01*
X18223067Y-17685905D01*
X18223067Y-17514476D01*
X18356400Y-17714476D02*
X18337352Y-17704952D01*
X18327829Y-17685905D01*
X18327829Y-17514476D01*
X18584971Y-17714476D02*
X18584971Y-17514476D01*
X18651638Y-17657333D01*
X18718305Y-17514476D01*
X18718305Y-17714476D01*
X18899257Y-17714476D02*
X18899257Y-17609714D01*
X18889733Y-17590667D01*
X18870686Y-17581143D01*
X18832590Y-17581143D01*
X18813543Y-17590667D01*
X18899257Y-17704952D02*
X18880210Y-17714476D01*
X18832590Y-17714476D01*
X18813543Y-17704952D01*
X18804019Y-17685905D01*
X18804019Y-17666857D01*
X18813543Y-17647810D01*
X18832590Y-17638286D01*
X18880210Y-17638286D01*
X18899257Y-17628762D01*
X18994495Y-17581143D02*
X18994495Y-17781143D01*
X18994495Y-17590667D02*
X19013543Y-17581143D01*
X19051638Y-17581143D01*
X19070686Y-17590667D01*
X19080210Y-17600190D01*
X19089733Y-17619238D01*
X19089733Y-17676381D01*
X19080210Y-17695429D01*
X19070686Y-17704952D01*
X19051638Y-17714476D01*
X19013543Y-17714476D01*
X18994495Y-17704952D01*
X19175448Y-17695429D02*
X19184971Y-17704952D01*
X19175448Y-17714476D01*
X19165924Y-17704952D01*
X19175448Y-17695429D01*
X19175448Y-17714476D01*
X19175448Y-17590667D02*
X19184971Y-17600190D01*
X19175448Y-17609714D01*
X19165924Y-17600190D01*
X19175448Y-17590667D01*
X19175448Y-17609714D01*
D12*
X17426512Y-17984056D02*
X17546400Y-18103944D01*
X17546400Y-17984056D02*
X17426512Y-18103944D01*
D11*
X17908781Y-18134476D02*
X17794495Y-18134476D01*
X17851638Y-18134476D02*
X17851638Y-17934476D01*
X17832590Y-17963048D01*
X17813543Y-17982095D01*
X17794495Y-17991619D01*
X17994495Y-18115429D02*
X18004019Y-18124952D01*
X17994495Y-18134476D01*
X17984971Y-18124952D01*
X17994495Y-18115429D01*
X17994495Y-18134476D01*
X18194495Y-18134476D02*
X18080210Y-18134476D01*
X18137352Y-18134476D02*
X18137352Y-17934476D01*
X18118305Y-17963048D01*
X18099257Y-17982095D01*
X18080210Y-17991619D01*
X18289733Y-18134476D02*
X18327829Y-18134476D01*
X18346876Y-18124952D01*
X18356400Y-18115429D01*
X18375448Y-18086857D01*
X18384971Y-18048762D01*
X18384971Y-17972571D01*
X18375448Y-17953524D01*
X18365924Y-17944000D01*
X18346876Y-17934476D01*
X18308781Y-17934476D01*
X18289733Y-17944000D01*
X18280210Y-17953524D01*
X18270686Y-17972571D01*
X18270686Y-18020190D01*
X18280210Y-18039238D01*
X18289733Y-18048762D01*
X18308781Y-18058286D01*
X18346876Y-18058286D01*
X18365924Y-18048762D01*
X18375448Y-18039238D01*
X18384971Y-18020190D01*
X18480210Y-18134476D02*
X18518305Y-18134476D01*
X18537352Y-18124952D01*
X18546876Y-18115429D01*
X18565924Y-18086857D01*
X18575448Y-18048762D01*
X18575448Y-17972571D01*
X18565924Y-17953524D01*
X18556400Y-17944000D01*
X18537352Y-17934476D01*
X18499257Y-17934476D01*
X18480210Y-17944000D01*
X18470686Y-17953524D01*
X18461162Y-17972571D01*
X18461162Y-18020190D01*
X18470686Y-18039238D01*
X18480210Y-18048762D01*
X18499257Y-18058286D01*
X18537352Y-18058286D01*
X18556400Y-18048762D01*
X18565924Y-18039238D01*
X18575448Y-18020190D01*
X18661162Y-18134476D02*
X18661162Y-18001143D01*
X18661162Y-18020190D02*
X18670686Y-18010667D01*
X18689733Y-18001143D01*
X18718305Y-18001143D01*
X18737352Y-18010667D01*
X18746876Y-18029714D01*
X18746876Y-18134476D01*
X18746876Y-18029714D02*
X18756400Y-18010667D01*
X18775448Y-18001143D01*
X18804019Y-18001143D01*
X18823067Y-18010667D01*
X18832590Y-18029714D01*
X18832590Y-18134476D01*
X18927829Y-18134476D02*
X18927829Y-18001143D01*
X18927829Y-18020190D02*
X18937352Y-18010667D01*
X18956400Y-18001143D01*
X18984971Y-18001143D01*
X19004019Y-18010667D01*
X19013543Y-18029714D01*
X19013543Y-18134476D01*
X19013543Y-18029714D02*
X19023067Y-18010667D01*
X19042114Y-18001143D01*
X19070686Y-18001143D01*
X19089733Y-18010667D01*
X19099257Y-18029714D01*
X19099257Y-18134476D01*
X19489733Y-17924952D02*
X19318305Y-18182095D01*
X19746876Y-17934476D02*
X19765924Y-17934476D01*
X19784971Y-17944000D01*
X19794495Y-17953524D01*
X19804019Y-17972571D01*
X19813543Y-18010667D01*
X19813543Y-18058286D01*
X19804019Y-18096381D01*
X19794495Y-18115429D01*
X19784971Y-18124952D01*
X19765924Y-18134476D01*
X19746876Y-18134476D01*
X19727829Y-18124952D01*
X19718305Y-18115429D01*
X19708781Y-18096381D01*
X19699257Y-18058286D01*
X19699257Y-18010667D01*
X19708781Y-17972571D01*
X19718305Y-17953524D01*
X19727829Y-17944000D01*
X19746876Y-17934476D01*
X19899257Y-18115429D02*
X19908781Y-18124952D01*
X19899257Y-18134476D01*
X19889733Y-18124952D01*
X19899257Y-18115429D01*
X19899257Y-18134476D01*
X20032590Y-17934476D02*
X20051638Y-17934476D01*
X20070686Y-17944000D01*
X20080210Y-17953524D01*
X20089733Y-17972571D01*
X20099257Y-18010667D01*
X20099257Y-18058286D01*
X20089733Y-18096381D01*
X20080210Y-18115429D01*
X20070686Y-18124952D01*
X20051638Y-18134476D01*
X20032590Y-18134476D01*
X20013543Y-18124952D01*
X20004019Y-18115429D01*
X19994495Y-18096381D01*
X19984971Y-18058286D01*
X19984971Y-18010667D01*
X19994495Y-17972571D01*
X20004019Y-17953524D01*
X20013543Y-17944000D01*
X20032590Y-17934476D01*
X20270686Y-18001143D02*
X20270686Y-18134476D01*
X20223067Y-17924952D02*
X20175448Y-18067810D01*
X20299257Y-18067810D01*
X20356400Y-17934476D02*
X20489733Y-17934476D01*
X20404019Y-18134476D01*
X20556400Y-17953524D02*
X20565924Y-17944000D01*
X20584971Y-17934476D01*
X20632590Y-17934476D01*
X20651638Y-17944000D01*
X20661162Y-17953524D01*
X20670686Y-17972571D01*
X20670686Y-17991619D01*
X20661162Y-18020190D01*
X20546876Y-18134476D01*
X20670686Y-18134476D01*
X20746876Y-17934476D02*
X20746876Y-17972571D01*
X20823067Y-17934476D02*
X20823067Y-17972571D01*
X21118305Y-18210667D02*
X21108781Y-18201143D01*
X21089733Y-18172571D01*
X21080210Y-18153524D01*
X21070686Y-18124952D01*
X21061162Y-18077333D01*
X21061162Y-18039238D01*
X21070686Y-17991619D01*
X21080210Y-17963048D01*
X21089733Y-17944000D01*
X21108781Y-17915429D01*
X21118305Y-17905905D01*
X21299257Y-18134476D02*
X21184971Y-18134476D01*
X21242114Y-18134476D02*
X21242114Y-17934476D01*
X21223067Y-17963048D01*
X21204019Y-17982095D01*
X21184971Y-17991619D01*
X21480210Y-17934476D02*
X21384971Y-17934476D01*
X21375448Y-18029714D01*
X21384971Y-18020190D01*
X21404019Y-18010667D01*
X21451638Y-18010667D01*
X21470686Y-18020190D01*
X21480210Y-18029714D01*
X21489733Y-18048762D01*
X21489733Y-18096381D01*
X21480210Y-18115429D01*
X21470686Y-18124952D01*
X21451638Y-18134476D01*
X21404019Y-18134476D01*
X21384971Y-18124952D01*
X21375448Y-18115429D01*
X21727829Y-18134476D02*
X21727829Y-17934476D01*
X21813543Y-18134476D02*
X21813543Y-18029714D01*
X21804019Y-18010667D01*
X21784971Y-18001143D01*
X21756400Y-18001143D01*
X21737352Y-18010667D01*
X21727829Y-18020190D01*
X21937352Y-18134476D02*
X21918305Y-18124952D01*
X21908781Y-18115429D01*
X21899257Y-18096381D01*
X21899257Y-18039238D01*
X21908781Y-18020190D01*
X21918305Y-18010667D01*
X21937352Y-18001143D01*
X21965924Y-18001143D01*
X21984971Y-18010667D01*
X21994495Y-18020190D01*
X22004019Y-18039238D01*
X22004019Y-18096381D01*
X21994495Y-18115429D01*
X21984971Y-18124952D01*
X21965924Y-18134476D01*
X21937352Y-18134476D01*
X22118305Y-18134476D02*
X22099257Y-18124952D01*
X22089733Y-18105905D01*
X22089733Y-17934476D01*
X22270686Y-18124952D02*
X22251638Y-18134476D01*
X22213543Y-18134476D01*
X22194495Y-18124952D01*
X22184971Y-18105905D01*
X22184971Y-18029714D01*
X22194495Y-18010667D01*
X22213543Y-18001143D01*
X22251638Y-18001143D01*
X22270686Y-18010667D01*
X22280210Y-18029714D01*
X22280210Y-18048762D01*
X22184971Y-18067810D01*
X22356400Y-18124952D02*
X22375448Y-18134476D01*
X22413543Y-18134476D01*
X22432590Y-18124952D01*
X22442114Y-18105905D01*
X22442114Y-18096381D01*
X22432590Y-18077333D01*
X22413543Y-18067810D01*
X22384971Y-18067810D01*
X22365924Y-18058286D01*
X22356400Y-18039238D01*
X22356400Y-18029714D01*
X22365924Y-18010667D01*
X22384971Y-18001143D01*
X22413543Y-18001143D01*
X22432590Y-18010667D01*
X22508781Y-18210667D02*
X22518305Y-18201143D01*
X22537352Y-18172571D01*
X22546876Y-18153524D01*
X22556400Y-18124952D01*
X22565924Y-18077333D01*
X22565924Y-18039238D01*
X22556400Y-17991619D01*
X22546876Y-17963048D01*
X22537352Y-17944000D01*
X22518305Y-17915429D01*
X22508781Y-17905905D01*
X22870686Y-18210667D02*
X22861162Y-18201143D01*
X22842114Y-18172571D01*
X22832590Y-18153524D01*
X22823067Y-18124952D01*
X22813543Y-18077333D01*
X22813543Y-18039238D01*
X22823067Y-17991619D01*
X22832590Y-17963048D01*
X22842114Y-17944000D01*
X22861162Y-17915429D01*
X22870686Y-17905905D01*
X22946876Y-18001143D02*
X22946876Y-18134476D01*
X22946876Y-18020190D02*
X22956400Y-18010667D01*
X22975448Y-18001143D01*
X23004019Y-18001143D01*
X23023067Y-18010667D01*
X23032590Y-18029714D01*
X23032590Y-18134476D01*
X23156400Y-18134476D02*
X23137352Y-18124952D01*
X23127828Y-18115429D01*
X23118305Y-18096381D01*
X23118305Y-18039238D01*
X23127828Y-18020190D01*
X23137352Y-18010667D01*
X23156400Y-18001143D01*
X23184971Y-18001143D01*
X23204019Y-18010667D01*
X23213543Y-18020190D01*
X23223067Y-18039238D01*
X23223067Y-18096381D01*
X23213543Y-18115429D01*
X23204019Y-18124952D01*
X23184971Y-18134476D01*
X23156400Y-18134476D01*
X23280209Y-18001143D02*
X23356400Y-18001143D01*
X23308781Y-17934476D02*
X23308781Y-18105905D01*
X23318305Y-18124952D01*
X23337352Y-18134476D01*
X23356400Y-18134476D01*
X23575448Y-18001143D02*
X23575448Y-18201143D01*
X23575448Y-18010667D02*
X23594495Y-18001143D01*
X23632590Y-18001143D01*
X23651638Y-18010667D01*
X23661162Y-18020190D01*
X23670686Y-18039238D01*
X23670686Y-18096381D01*
X23661162Y-18115429D01*
X23651638Y-18124952D01*
X23632590Y-18134476D01*
X23594495Y-18134476D01*
X23575448Y-18124952D01*
X23784971Y-18134476D02*
X23765924Y-18124952D01*
X23756400Y-18105905D01*
X23756400Y-17934476D01*
X23946876Y-18134476D02*
X23946876Y-18029714D01*
X23937352Y-18010667D01*
X23918305Y-18001143D01*
X23880209Y-18001143D01*
X23861162Y-18010667D01*
X23946876Y-18124952D02*
X23927828Y-18134476D01*
X23880209Y-18134476D01*
X23861162Y-18124952D01*
X23851638Y-18105905D01*
X23851638Y-18086857D01*
X23861162Y-18067810D01*
X23880209Y-18058286D01*
X23927828Y-18058286D01*
X23946876Y-18048762D01*
X24013543Y-18001143D02*
X24089733Y-18001143D01*
X24042114Y-17934476D02*
X24042114Y-18105905D01*
X24051638Y-18124952D01*
X24070686Y-18134476D01*
X24089733Y-18134476D01*
X24232590Y-18124952D02*
X24213543Y-18134476D01*
X24175448Y-18134476D01*
X24156400Y-18124952D01*
X24146876Y-18105905D01*
X24146876Y-18029714D01*
X24156400Y-18010667D01*
X24175448Y-18001143D01*
X24213543Y-18001143D01*
X24232590Y-18010667D01*
X24242114Y-18029714D01*
X24242114Y-18048762D01*
X24146876Y-18067810D01*
X24413543Y-18134476D02*
X24413543Y-17934476D01*
X24413543Y-18124952D02*
X24394495Y-18134476D01*
X24356400Y-18134476D01*
X24337352Y-18124952D01*
X24327828Y-18115429D01*
X24318305Y-18096381D01*
X24318305Y-18039238D01*
X24327828Y-18020190D01*
X24337352Y-18010667D01*
X24356400Y-18001143D01*
X24394495Y-18001143D01*
X24413543Y-18010667D01*
X24489733Y-18210667D02*
X24499257Y-18201143D01*
X24518305Y-18172571D01*
X24527828Y-18153524D01*
X24537352Y-18124952D01*
X24546876Y-18077333D01*
X24546876Y-18039238D01*
X24537352Y-17991619D01*
X24527828Y-17963048D01*
X24518305Y-17944000D01*
X24499257Y-17915429D01*
X24489733Y-17905905D01*
D13*
X17546400Y-18308000D02*
G75*
G03*
X17546400Y-18308000I-60000J0D01*
G01*
D11*
X17908781Y-18398476D02*
X17794495Y-18398476D01*
X17851638Y-18398476D02*
X17851638Y-18198476D01*
X17832590Y-18227048D01*
X17813543Y-18246095D01*
X17794495Y-18255619D01*
X17994495Y-18379429D02*
X18004019Y-18388952D01*
X17994495Y-18398476D01*
X17984971Y-18388952D01*
X17994495Y-18379429D01*
X17994495Y-18398476D01*
X18080210Y-18217524D02*
X18089733Y-18208000D01*
X18108781Y-18198476D01*
X18156400Y-18198476D01*
X18175448Y-18208000D01*
X18184971Y-18217524D01*
X18194495Y-18236571D01*
X18194495Y-18255619D01*
X18184971Y-18284190D01*
X18070686Y-18398476D01*
X18194495Y-18398476D01*
X18318305Y-18198476D02*
X18337352Y-18198476D01*
X18356400Y-18208000D01*
X18365924Y-18217524D01*
X18375448Y-18236571D01*
X18384971Y-18274667D01*
X18384971Y-18322286D01*
X18375448Y-18360381D01*
X18365924Y-18379429D01*
X18356400Y-18388952D01*
X18337352Y-18398476D01*
X18318305Y-18398476D01*
X18299257Y-18388952D01*
X18289733Y-18379429D01*
X18280210Y-18360381D01*
X18270686Y-18322286D01*
X18270686Y-18274667D01*
X18280210Y-18236571D01*
X18289733Y-18217524D01*
X18299257Y-18208000D01*
X18318305Y-18198476D01*
X18508781Y-18198476D02*
X18527829Y-18198476D01*
X18546876Y-18208000D01*
X18556400Y-18217524D01*
X18565924Y-18236571D01*
X18575448Y-18274667D01*
X18575448Y-18322286D01*
X18565924Y-18360381D01*
X18556400Y-18379429D01*
X18546876Y-18388952D01*
X18527829Y-18398476D01*
X18508781Y-18398476D01*
X18489733Y-18388952D01*
X18480210Y-18379429D01*
X18470686Y-18360381D01*
X18461162Y-18322286D01*
X18461162Y-18274667D01*
X18470686Y-18236571D01*
X18480210Y-18217524D01*
X18489733Y-18208000D01*
X18508781Y-18198476D01*
X18661162Y-18398476D02*
X18661162Y-18265143D01*
X18661162Y-18284190D02*
X18670686Y-18274667D01*
X18689733Y-18265143D01*
X18718305Y-18265143D01*
X18737352Y-18274667D01*
X18746876Y-18293714D01*
X18746876Y-18398476D01*
X18746876Y-18293714D02*
X18756400Y-18274667D01*
X18775448Y-18265143D01*
X18804019Y-18265143D01*
X18823067Y-18274667D01*
X18832590Y-18293714D01*
X18832590Y-18398476D01*
X18927829Y-18398476D02*
X18927829Y-18265143D01*
X18927829Y-18284190D02*
X18937352Y-18274667D01*
X18956400Y-18265143D01*
X18984971Y-18265143D01*
X19004019Y-18274667D01*
X19013543Y-18293714D01*
X19013543Y-18398476D01*
X19013543Y-18293714D02*
X19023067Y-18274667D01*
X19042114Y-18265143D01*
X19070686Y-18265143D01*
X19089733Y-18274667D01*
X19099257Y-18293714D01*
X19099257Y-18398476D01*
X19489733Y-18188952D02*
X19318305Y-18446095D01*
X19746876Y-18198476D02*
X19765924Y-18198476D01*
X19784971Y-18208000D01*
X19794495Y-18217524D01*
X19804019Y-18236571D01*
X19813543Y-18274667D01*
X19813543Y-18322286D01*
X19804019Y-18360381D01*
X19794495Y-18379429D01*
X19784971Y-18388952D01*
X19765924Y-18398476D01*
X19746876Y-18398476D01*
X19727829Y-18388952D01*
X19718305Y-18379429D01*
X19708781Y-18360381D01*
X19699257Y-18322286D01*
X19699257Y-18274667D01*
X19708781Y-18236571D01*
X19718305Y-18217524D01*
X19727829Y-18208000D01*
X19746876Y-18198476D01*
X19899257Y-18379429D02*
X19908781Y-18388952D01*
X19899257Y-18398476D01*
X19889733Y-18388952D01*
X19899257Y-18379429D01*
X19899257Y-18398476D01*
X20032590Y-18198476D02*
X20051638Y-18198476D01*
X20070686Y-18208000D01*
X20080210Y-18217524D01*
X20089733Y-18236571D01*
X20099257Y-18274667D01*
X20099257Y-18322286D01*
X20089733Y-18360381D01*
X20080210Y-18379429D01*
X20070686Y-18388952D01*
X20051638Y-18398476D01*
X20032590Y-18398476D01*
X20013543Y-18388952D01*
X20004019Y-18379429D01*
X19994495Y-18360381D01*
X19984971Y-18322286D01*
X19984971Y-18274667D01*
X19994495Y-18236571D01*
X20004019Y-18217524D01*
X20013543Y-18208000D01*
X20032590Y-18198476D01*
X20270686Y-18265143D02*
X20270686Y-18398476D01*
X20223067Y-18188952D02*
X20175448Y-18331810D01*
X20299257Y-18331810D01*
X20356400Y-18198476D02*
X20489733Y-18198476D01*
X20404019Y-18398476D01*
X20556400Y-18217524D02*
X20565924Y-18208000D01*
X20584971Y-18198476D01*
X20632590Y-18198476D01*
X20651638Y-18208000D01*
X20661162Y-18217524D01*
X20670686Y-18236571D01*
X20670686Y-18255619D01*
X20661162Y-18284190D01*
X20546876Y-18398476D01*
X20670686Y-18398476D01*
X20746876Y-18198476D02*
X20746876Y-18236571D01*
X20823067Y-18198476D02*
X20823067Y-18236571D01*
X21118305Y-18474667D02*
X21108781Y-18465143D01*
X21089733Y-18436571D01*
X21080210Y-18417524D01*
X21070686Y-18388952D01*
X21061162Y-18341333D01*
X21061162Y-18303238D01*
X21070686Y-18255619D01*
X21080210Y-18227048D01*
X21089733Y-18208000D01*
X21108781Y-18179429D01*
X21118305Y-18169905D01*
X21184971Y-18217524D02*
X21194495Y-18208000D01*
X21213543Y-18198476D01*
X21261162Y-18198476D01*
X21280210Y-18208000D01*
X21289733Y-18217524D01*
X21299257Y-18236571D01*
X21299257Y-18255619D01*
X21289733Y-18284190D01*
X21175448Y-18398476D01*
X21299257Y-18398476D01*
X21537352Y-18398476D02*
X21537352Y-18198476D01*
X21623067Y-18398476D02*
X21623067Y-18293714D01*
X21613543Y-18274667D01*
X21594495Y-18265143D01*
X21565924Y-18265143D01*
X21546876Y-18274667D01*
X21537352Y-18284190D01*
X21746876Y-18398476D02*
X21727829Y-18388952D01*
X21718305Y-18379429D01*
X21708781Y-18360381D01*
X21708781Y-18303238D01*
X21718305Y-18284190D01*
X21727829Y-18274667D01*
X21746876Y-18265143D01*
X21775448Y-18265143D01*
X21794495Y-18274667D01*
X21804019Y-18284190D01*
X21813543Y-18303238D01*
X21813543Y-18360381D01*
X21804019Y-18379429D01*
X21794495Y-18388952D01*
X21775448Y-18398476D01*
X21746876Y-18398476D01*
X21927829Y-18398476D02*
X21908781Y-18388952D01*
X21899257Y-18369905D01*
X21899257Y-18198476D01*
X22080210Y-18388952D02*
X22061162Y-18398476D01*
X22023067Y-18398476D01*
X22004019Y-18388952D01*
X21994495Y-18369905D01*
X21994495Y-18293714D01*
X22004019Y-18274667D01*
X22023067Y-18265143D01*
X22061162Y-18265143D01*
X22080210Y-18274667D01*
X22089733Y-18293714D01*
X22089733Y-18312762D01*
X21994495Y-18331810D01*
X22165924Y-18388952D02*
X22184971Y-18398476D01*
X22223067Y-18398476D01*
X22242114Y-18388952D01*
X22251638Y-18369905D01*
X22251638Y-18360381D01*
X22242114Y-18341333D01*
X22223067Y-18331810D01*
X22194495Y-18331810D01*
X22175448Y-18322286D01*
X22165924Y-18303238D01*
X22165924Y-18293714D01*
X22175448Y-18274667D01*
X22194495Y-18265143D01*
X22223067Y-18265143D01*
X22242114Y-18274667D01*
X22318305Y-18474667D02*
X22327829Y-18465143D01*
X22346876Y-18436571D01*
X22356400Y-18417524D01*
X22365924Y-18388952D01*
X22375448Y-18341333D01*
X22375448Y-18303238D01*
X22365924Y-18255619D01*
X22356400Y-18227048D01*
X22346876Y-18208000D01*
X22327829Y-18179429D01*
X22318305Y-18169905D01*
X22680209Y-18474667D02*
X22670686Y-18465143D01*
X22651638Y-18436571D01*
X22642114Y-18417524D01*
X22632590Y-18388952D01*
X22623067Y-18341333D01*
X22623067Y-18303238D01*
X22632590Y-18255619D01*
X22642114Y-18227048D01*
X22651638Y-18208000D01*
X22670686Y-18179429D01*
X22680209Y-18169905D01*
X22756400Y-18265143D02*
X22756400Y-18398476D01*
X22756400Y-18284190D02*
X22765924Y-18274667D01*
X22784971Y-18265143D01*
X22813543Y-18265143D01*
X22832590Y-18274667D01*
X22842114Y-18293714D01*
X22842114Y-18398476D01*
X22965924Y-18398476D02*
X22946876Y-18388952D01*
X22937352Y-18379429D01*
X22927828Y-18360381D01*
X22927828Y-18303238D01*
X22937352Y-18284190D01*
X22946876Y-18274667D01*
X22965924Y-18265143D01*
X22994495Y-18265143D01*
X23013543Y-18274667D01*
X23023067Y-18284190D01*
X23032590Y-18303238D01*
X23032590Y-18360381D01*
X23023067Y-18379429D01*
X23013543Y-18388952D01*
X22994495Y-18398476D01*
X22965924Y-18398476D01*
X23089733Y-18265143D02*
X23165924Y-18265143D01*
X23118305Y-18198476D02*
X23118305Y-18369905D01*
X23127828Y-18388952D01*
X23146876Y-18398476D01*
X23165924Y-18398476D01*
X23384971Y-18265143D02*
X23384971Y-18465143D01*
X23384971Y-18274667D02*
X23404019Y-18265143D01*
X23442114Y-18265143D01*
X23461162Y-18274667D01*
X23470686Y-18284190D01*
X23480209Y-18303238D01*
X23480209Y-18360381D01*
X23470686Y-18379429D01*
X23461162Y-18388952D01*
X23442114Y-18398476D01*
X23404019Y-18398476D01*
X23384971Y-18388952D01*
X23594495Y-18398476D02*
X23575448Y-18388952D01*
X23565924Y-18369905D01*
X23565924Y-18198476D01*
X23756400Y-18398476D02*
X23756400Y-18293714D01*
X23746876Y-18274667D01*
X23727828Y-18265143D01*
X23689733Y-18265143D01*
X23670686Y-18274667D01*
X23756400Y-18388952D02*
X23737352Y-18398476D01*
X23689733Y-18398476D01*
X23670686Y-18388952D01*
X23661162Y-18369905D01*
X23661162Y-18350857D01*
X23670686Y-18331810D01*
X23689733Y-18322286D01*
X23737352Y-18322286D01*
X23756400Y-18312762D01*
X23823067Y-18265143D02*
X23899257Y-18265143D01*
X23851638Y-18198476D02*
X23851638Y-18369905D01*
X23861162Y-18388952D01*
X23880209Y-18398476D01*
X23899257Y-18398476D01*
X24042114Y-18388952D02*
X24023067Y-18398476D01*
X23984971Y-18398476D01*
X23965924Y-18388952D01*
X23956400Y-18369905D01*
X23956400Y-18293714D01*
X23965924Y-18274667D01*
X23984971Y-18265143D01*
X24023067Y-18265143D01*
X24042114Y-18274667D01*
X24051638Y-18293714D01*
X24051638Y-18312762D01*
X23956400Y-18331810D01*
X24223067Y-18398476D02*
X24223067Y-18198476D01*
X24223067Y-18388952D02*
X24204019Y-18398476D01*
X24165924Y-18398476D01*
X24146876Y-18388952D01*
X24137352Y-18379429D01*
X24127828Y-18360381D01*
X24127828Y-18303238D01*
X24137352Y-18284190D01*
X24146876Y-18274667D01*
X24165924Y-18265143D01*
X24204019Y-18265143D01*
X24223067Y-18274667D01*
X24299257Y-18474667D02*
X24308781Y-18465143D01*
X24327828Y-18436571D01*
X24337352Y-18417524D01*
X24346876Y-18388952D01*
X24356400Y-18341333D01*
X24356400Y-18303238D01*
X24346876Y-18255619D01*
X24337352Y-18227048D01*
X24327828Y-18208000D01*
X24308781Y-18179429D01*
X24299257Y-18169905D01*
D14*
X17471400Y-18497000D02*
X17471400Y-18647000D01*
X17396400Y-18572000D02*
X17546400Y-18572000D01*
D11*
X17908781Y-18662476D02*
X17794495Y-18662476D01*
X17851638Y-18662476D02*
X17851638Y-18462476D01*
X17832590Y-18491048D01*
X17813543Y-18510095D01*
X17794495Y-18519619D01*
X17994495Y-18643429D02*
X18004019Y-18652952D01*
X17994495Y-18662476D01*
X17984971Y-18652952D01*
X17994495Y-18643429D01*
X17994495Y-18662476D01*
X18184971Y-18462476D02*
X18089733Y-18462476D01*
X18080210Y-18557714D01*
X18089733Y-18548190D01*
X18108781Y-18538667D01*
X18156400Y-18538667D01*
X18175448Y-18548190D01*
X18184971Y-18557714D01*
X18194495Y-18576762D01*
X18194495Y-18624381D01*
X18184971Y-18643429D01*
X18175448Y-18652952D01*
X18156400Y-18662476D01*
X18108781Y-18662476D01*
X18089733Y-18652952D01*
X18080210Y-18643429D01*
X18318305Y-18462476D02*
X18337352Y-18462476D01*
X18356400Y-18472000D01*
X18365924Y-18481524D01*
X18375448Y-18500571D01*
X18384971Y-18538667D01*
X18384971Y-18586286D01*
X18375448Y-18624381D01*
X18365924Y-18643429D01*
X18356400Y-18652952D01*
X18337352Y-18662476D01*
X18318305Y-18662476D01*
X18299257Y-18652952D01*
X18289733Y-18643429D01*
X18280210Y-18624381D01*
X18270686Y-18586286D01*
X18270686Y-18538667D01*
X18280210Y-18500571D01*
X18289733Y-18481524D01*
X18299257Y-18472000D01*
X18318305Y-18462476D01*
X18508781Y-18462476D02*
X18527829Y-18462476D01*
X18546876Y-18472000D01*
X18556400Y-18481524D01*
X18565924Y-18500571D01*
X18575448Y-18538667D01*
X18575448Y-18586286D01*
X18565924Y-18624381D01*
X18556400Y-18643429D01*
X18546876Y-18652952D01*
X18527829Y-18662476D01*
X18508781Y-18662476D01*
X18489733Y-18652952D01*
X18480210Y-18643429D01*
X18470686Y-18624381D01*
X18461162Y-18586286D01*
X18461162Y-18538667D01*
X18470686Y-18500571D01*
X18480210Y-18481524D01*
X18489733Y-18472000D01*
X18508781Y-18462476D01*
X18661162Y-18662476D02*
X18661162Y-18529143D01*
X18661162Y-18548190D02*
X18670686Y-18538667D01*
X18689733Y-18529143D01*
X18718305Y-18529143D01*
X18737352Y-18538667D01*
X18746876Y-18557714D01*
X18746876Y-18662476D01*
X18746876Y-18557714D02*
X18756400Y-18538667D01*
X18775448Y-18529143D01*
X18804019Y-18529143D01*
X18823067Y-18538667D01*
X18832590Y-18557714D01*
X18832590Y-18662476D01*
X18927829Y-18662476D02*
X18927829Y-18529143D01*
X18927829Y-18548190D02*
X18937352Y-18538667D01*
X18956400Y-18529143D01*
X18984971Y-18529143D01*
X19004019Y-18538667D01*
X19013543Y-18557714D01*
X19013543Y-18662476D01*
X19013543Y-18557714D02*
X19023067Y-18538667D01*
X19042114Y-18529143D01*
X19070686Y-18529143D01*
X19089733Y-18538667D01*
X19099257Y-18557714D01*
X19099257Y-18662476D01*
X19489733Y-18452952D02*
X19318305Y-18710095D01*
X19746876Y-18462476D02*
X19765924Y-18462476D01*
X19784971Y-18472000D01*
X19794495Y-18481524D01*
X19804019Y-18500571D01*
X19813543Y-18538667D01*
X19813543Y-18586286D01*
X19804019Y-18624381D01*
X19794495Y-18643429D01*
X19784971Y-18652952D01*
X19765924Y-18662476D01*
X19746876Y-18662476D01*
X19727829Y-18652952D01*
X19718305Y-18643429D01*
X19708781Y-18624381D01*
X19699257Y-18586286D01*
X19699257Y-18538667D01*
X19708781Y-18500571D01*
X19718305Y-18481524D01*
X19727829Y-18472000D01*
X19746876Y-18462476D01*
X19899257Y-18643429D02*
X19908781Y-18652952D01*
X19899257Y-18662476D01*
X19889733Y-18652952D01*
X19899257Y-18643429D01*
X19899257Y-18662476D01*
X20032590Y-18462476D02*
X20051638Y-18462476D01*
X20070686Y-18472000D01*
X20080210Y-18481524D01*
X20089733Y-18500571D01*
X20099257Y-18538667D01*
X20099257Y-18586286D01*
X20089733Y-18624381D01*
X20080210Y-18643429D01*
X20070686Y-18652952D01*
X20051638Y-18662476D01*
X20032590Y-18662476D01*
X20013543Y-18652952D01*
X20004019Y-18643429D01*
X19994495Y-18624381D01*
X19984971Y-18586286D01*
X19984971Y-18538667D01*
X19994495Y-18500571D01*
X20004019Y-18481524D01*
X20013543Y-18472000D01*
X20032590Y-18462476D01*
X20280210Y-18462476D02*
X20184971Y-18462476D01*
X20175448Y-18557714D01*
X20184971Y-18548190D01*
X20204019Y-18538667D01*
X20251638Y-18538667D01*
X20270686Y-18548190D01*
X20280210Y-18557714D01*
X20289733Y-18576762D01*
X20289733Y-18624381D01*
X20280210Y-18643429D01*
X20270686Y-18652952D01*
X20251638Y-18662476D01*
X20204019Y-18662476D01*
X20184971Y-18652952D01*
X20175448Y-18643429D01*
X20384971Y-18662476D02*
X20423067Y-18662476D01*
X20442114Y-18652952D01*
X20451638Y-18643429D01*
X20470686Y-18614857D01*
X20480210Y-18576762D01*
X20480210Y-18500571D01*
X20470686Y-18481524D01*
X20461162Y-18472000D01*
X20442114Y-18462476D01*
X20404019Y-18462476D01*
X20384971Y-18472000D01*
X20375448Y-18481524D01*
X20365924Y-18500571D01*
X20365924Y-18548190D01*
X20375448Y-18567238D01*
X20384971Y-18576762D01*
X20404019Y-18586286D01*
X20442114Y-18586286D01*
X20461162Y-18576762D01*
X20470686Y-18567238D01*
X20480210Y-18548190D01*
X20670686Y-18662476D02*
X20556400Y-18662476D01*
X20613543Y-18662476D02*
X20613543Y-18462476D01*
X20594495Y-18491048D01*
X20575448Y-18510095D01*
X20556400Y-18519619D01*
X20746876Y-18462476D02*
X20746876Y-18500571D01*
X20823067Y-18462476D02*
X20823067Y-18500571D01*
X21118305Y-18738667D02*
X21108781Y-18729143D01*
X21089733Y-18700571D01*
X21080210Y-18681524D01*
X21070686Y-18652952D01*
X21061162Y-18605333D01*
X21061162Y-18567238D01*
X21070686Y-18519619D01*
X21080210Y-18491048D01*
X21089733Y-18472000D01*
X21108781Y-18443429D01*
X21118305Y-18433905D01*
X21280210Y-18462476D02*
X21242114Y-18462476D01*
X21223067Y-18472000D01*
X21213543Y-18481524D01*
X21194495Y-18510095D01*
X21184971Y-18548190D01*
X21184971Y-18624381D01*
X21194495Y-18643429D01*
X21204019Y-18652952D01*
X21223067Y-18662476D01*
X21261162Y-18662476D01*
X21280210Y-18652952D01*
X21289733Y-18643429D01*
X21299257Y-18624381D01*
X21299257Y-18576762D01*
X21289733Y-18557714D01*
X21280210Y-18548190D01*
X21261162Y-18538667D01*
X21223067Y-18538667D01*
X21204019Y-18548190D01*
X21194495Y-18557714D01*
X21184971Y-18576762D01*
X21537352Y-18662476D02*
X21537352Y-18462476D01*
X21623067Y-18662476D02*
X21623067Y-18557714D01*
X21613543Y-18538667D01*
X21594495Y-18529143D01*
X21565924Y-18529143D01*
X21546876Y-18538667D01*
X21537352Y-18548190D01*
X21746876Y-18662476D02*
X21727829Y-18652952D01*
X21718305Y-18643429D01*
X21708781Y-18624381D01*
X21708781Y-18567238D01*
X21718305Y-18548190D01*
X21727829Y-18538667D01*
X21746876Y-18529143D01*
X21775448Y-18529143D01*
X21794495Y-18538667D01*
X21804019Y-18548190D01*
X21813543Y-18567238D01*
X21813543Y-18624381D01*
X21804019Y-18643429D01*
X21794495Y-18652952D01*
X21775448Y-18662476D01*
X21746876Y-18662476D01*
X21927829Y-18662476D02*
X21908781Y-18652952D01*
X21899257Y-18633905D01*
X21899257Y-18462476D01*
X22080210Y-18652952D02*
X22061162Y-18662476D01*
X22023067Y-18662476D01*
X22004019Y-18652952D01*
X21994495Y-18633905D01*
X21994495Y-18557714D01*
X22004019Y-18538667D01*
X22023067Y-18529143D01*
X22061162Y-18529143D01*
X22080210Y-18538667D01*
X22089733Y-18557714D01*
X22089733Y-18576762D01*
X21994495Y-18595810D01*
X22165924Y-18652952D02*
X22184971Y-18662476D01*
X22223067Y-18662476D01*
X22242114Y-18652952D01*
X22251638Y-18633905D01*
X22251638Y-18624381D01*
X22242114Y-18605333D01*
X22223067Y-18595810D01*
X22194495Y-18595810D01*
X22175448Y-18586286D01*
X22165924Y-18567238D01*
X22165924Y-18557714D01*
X22175448Y-18538667D01*
X22194495Y-18529143D01*
X22223067Y-18529143D01*
X22242114Y-18538667D01*
X22318305Y-18738667D02*
X22327829Y-18729143D01*
X22346876Y-18700571D01*
X22356400Y-18681524D01*
X22365924Y-18652952D01*
X22375448Y-18605333D01*
X22375448Y-18567238D01*
X22365924Y-18519619D01*
X22356400Y-18491048D01*
X22346876Y-18472000D01*
X22327829Y-18443429D01*
X22318305Y-18433905D01*
X22680209Y-18738667D02*
X22670686Y-18729143D01*
X22651638Y-18700571D01*
X22642114Y-18681524D01*
X22632590Y-18652952D01*
X22623067Y-18605333D01*
X22623067Y-18567238D01*
X22632590Y-18519619D01*
X22642114Y-18491048D01*
X22651638Y-18472000D01*
X22670686Y-18443429D01*
X22680209Y-18433905D01*
X22756400Y-18529143D02*
X22756400Y-18662476D01*
X22756400Y-18548190D02*
X22765924Y-18538667D01*
X22784971Y-18529143D01*
X22813543Y-18529143D01*
X22832590Y-18538667D01*
X22842114Y-18557714D01*
X22842114Y-18662476D01*
X22965924Y-18662476D02*
X22946876Y-18652952D01*
X22937352Y-18643429D01*
X22927828Y-18624381D01*
X22927828Y-18567238D01*
X22937352Y-18548190D01*
X22946876Y-18538667D01*
X22965924Y-18529143D01*
X22994495Y-18529143D01*
X23013543Y-18538667D01*
X23023067Y-18548190D01*
X23032590Y-18567238D01*
X23032590Y-18624381D01*
X23023067Y-18643429D01*
X23013543Y-18652952D01*
X22994495Y-18662476D01*
X22965924Y-18662476D01*
X23089733Y-18529143D02*
X23165924Y-18529143D01*
X23118305Y-18462476D02*
X23118305Y-18633905D01*
X23127828Y-18652952D01*
X23146876Y-18662476D01*
X23165924Y-18662476D01*
X23384971Y-18529143D02*
X23384971Y-18729143D01*
X23384971Y-18538667D02*
X23404019Y-18529143D01*
X23442114Y-18529143D01*
X23461162Y-18538667D01*
X23470686Y-18548190D01*
X23480209Y-18567238D01*
X23480209Y-18624381D01*
X23470686Y-18643429D01*
X23461162Y-18652952D01*
X23442114Y-18662476D01*
X23404019Y-18662476D01*
X23384971Y-18652952D01*
X23594495Y-18662476D02*
X23575448Y-18652952D01*
X23565924Y-18633905D01*
X23565924Y-18462476D01*
X23756400Y-18662476D02*
X23756400Y-18557714D01*
X23746876Y-18538667D01*
X23727828Y-18529143D01*
X23689733Y-18529143D01*
X23670686Y-18538667D01*
X23756400Y-18652952D02*
X23737352Y-18662476D01*
X23689733Y-18662476D01*
X23670686Y-18652952D01*
X23661162Y-18633905D01*
X23661162Y-18614857D01*
X23670686Y-18595810D01*
X23689733Y-18586286D01*
X23737352Y-18586286D01*
X23756400Y-18576762D01*
X23823067Y-18529143D02*
X23899257Y-18529143D01*
X23851638Y-18462476D02*
X23851638Y-18633905D01*
X23861162Y-18652952D01*
X23880209Y-18662476D01*
X23899257Y-18662476D01*
X24042114Y-18652952D02*
X24023067Y-18662476D01*
X23984971Y-18662476D01*
X23965924Y-18652952D01*
X23956400Y-18633905D01*
X23956400Y-18557714D01*
X23965924Y-18538667D01*
X23984971Y-18529143D01*
X24023067Y-18529143D01*
X24042114Y-18538667D01*
X24051638Y-18557714D01*
X24051638Y-18576762D01*
X23956400Y-18595810D01*
X24223067Y-18662476D02*
X24223067Y-18462476D01*
X24223067Y-18652952D02*
X24204019Y-18662476D01*
X24165924Y-18662476D01*
X24146876Y-18652952D01*
X24137352Y-18643429D01*
X24127828Y-18624381D01*
X24127828Y-18567238D01*
X24137352Y-18548190D01*
X24146876Y-18538667D01*
X24165924Y-18529143D01*
X24204019Y-18529143D01*
X24223067Y-18538667D01*
X24299257Y-18738667D02*
X24308781Y-18729143D01*
X24327828Y-18700571D01*
X24337352Y-18681524D01*
X24346876Y-18652952D01*
X24356400Y-18605333D01*
X24356400Y-18567238D01*
X24346876Y-18519619D01*
X24337352Y-18491048D01*
X24327828Y-18472000D01*
X24308781Y-18443429D01*
X24299257Y-18433905D01*
M02*
