%TF.GenerationSoftware,KiCad,Pcbnew,(6.0.11-0)*%
%TF.CreationDate,2023-05-23T17:58:13+02:00*%
%TF.ProjectId,Keyer_MEGA2560,4b657965-725f-44d4-9547-41323536302e,rev?*%
%TF.SameCoordinates,Original*%
%TF.FileFunction,Legend,Top*%
%TF.FilePolarity,Positive*%
%FSLAX46Y46*%
G04 Gerber Fmt 4.6, Leading zero omitted, Abs format (unit mm)*
G04 Created by KiCad (PCBNEW (6.0.11-0)) date 2023-05-23 17:58:13*
%MOMM*%
%LPD*%
G01*
G04 APERTURE LIST*
%ADD10C,0.150000*%
%ADD11C,0.120000*%
%ADD12C,0.100000*%
G04 APERTURE END LIST*
D10*
X294552666Y-161980190D02*
X294552666Y-161504000D01*
X294838380Y-162075428D02*
X293838380Y-161742095D01*
X294838380Y-161408761D01*
X294171714Y-160646857D02*
X294838380Y-160646857D01*
X294171714Y-161075428D02*
X294695523Y-161075428D01*
X294790761Y-161027809D01*
X294838380Y-160932571D01*
X294838380Y-160789714D01*
X294790761Y-160694476D01*
X294743142Y-160646857D01*
X294838380Y-159742095D02*
X293838380Y-159742095D01*
X294790761Y-159742095D02*
X294838380Y-159837333D01*
X294838380Y-160027809D01*
X294790761Y-160123047D01*
X294743142Y-160170666D01*
X294647904Y-160218285D01*
X294362190Y-160218285D01*
X294266952Y-160170666D01*
X294219333Y-160123047D01*
X294171714Y-160027809D01*
X294171714Y-159837333D01*
X294219333Y-159742095D01*
X294838380Y-159265904D02*
X294171714Y-159265904D01*
X293838380Y-159265904D02*
X293886000Y-159313523D01*
X293933619Y-159265904D01*
X293886000Y-159218285D01*
X293838380Y-159265904D01*
X293933619Y-159265904D01*
X294838380Y-158646857D02*
X294790761Y-158742095D01*
X294743142Y-158789714D01*
X294647904Y-158837333D01*
X294362190Y-158837333D01*
X294266952Y-158789714D01*
X294219333Y-158742095D01*
X294171714Y-158646857D01*
X294171714Y-158504000D01*
X294219333Y-158408761D01*
X294266952Y-158361142D01*
X294362190Y-158313523D01*
X294647904Y-158313523D01*
X294743142Y-158361142D01*
X294790761Y-158408761D01*
X294838380Y-158504000D01*
X294838380Y-158646857D01*
X294838380Y-157123047D02*
X293838380Y-157123047D01*
X294838380Y-156646857D02*
X293838380Y-156646857D01*
X294838380Y-156075428D01*
X293838380Y-156075428D01*
X294841561Y-136010304D02*
X294889180Y-135867447D01*
X294889180Y-135629352D01*
X294841561Y-135534114D01*
X294793942Y-135486495D01*
X294698704Y-135438876D01*
X294603466Y-135438876D01*
X294508228Y-135486495D01*
X294460609Y-135534114D01*
X294412990Y-135629352D01*
X294365371Y-135819828D01*
X294317752Y-135915066D01*
X294270133Y-135962685D01*
X294174895Y-136010304D01*
X294079657Y-136010304D01*
X293984419Y-135962685D01*
X293936800Y-135915066D01*
X293889180Y-135819828D01*
X293889180Y-135581733D01*
X293936800Y-135438876D01*
X294222514Y-135153161D02*
X294222514Y-134772209D01*
X293889180Y-135010304D02*
X294746323Y-135010304D01*
X294841561Y-134962685D01*
X294889180Y-134867447D01*
X294889180Y-134772209D01*
X294889180Y-134438876D02*
X294222514Y-134438876D01*
X294412990Y-134438876D02*
X294317752Y-134391257D01*
X294270133Y-134343638D01*
X294222514Y-134248400D01*
X294222514Y-134153161D01*
X294889180Y-133391257D02*
X294365371Y-133391257D01*
X294270133Y-133438876D01*
X294222514Y-133534114D01*
X294222514Y-133724590D01*
X294270133Y-133819828D01*
X294841561Y-133391257D02*
X294889180Y-133486495D01*
X294889180Y-133724590D01*
X294841561Y-133819828D01*
X294746323Y-133867447D01*
X294651085Y-133867447D01*
X294555847Y-133819828D01*
X294508228Y-133724590D01*
X294508228Y-133486495D01*
X294460609Y-133391257D01*
X294889180Y-132915066D02*
X294222514Y-132915066D01*
X293889180Y-132915066D02*
X293936800Y-132962685D01*
X293984419Y-132915066D01*
X293936800Y-132867447D01*
X293889180Y-132915066D01*
X293984419Y-132915066D01*
X294222514Y-132010304D02*
X295032038Y-132010304D01*
X295127276Y-132057923D01*
X295174895Y-132105542D01*
X295222514Y-132200780D01*
X295222514Y-132343638D01*
X295174895Y-132438876D01*
X294841561Y-132010304D02*
X294889180Y-132105542D01*
X294889180Y-132296019D01*
X294841561Y-132391257D01*
X294793942Y-132438876D01*
X294698704Y-132486495D01*
X294412990Y-132486495D01*
X294317752Y-132438876D01*
X294270133Y-132391257D01*
X294222514Y-132296019D01*
X294222514Y-132105542D01*
X294270133Y-132010304D01*
X294889180Y-131534114D02*
X293889180Y-131534114D01*
X294889180Y-131105542D02*
X294365371Y-131105542D01*
X294270133Y-131153161D01*
X294222514Y-131248400D01*
X294222514Y-131391257D01*
X294270133Y-131486495D01*
X294317752Y-131534114D01*
X294222514Y-130772209D02*
X294222514Y-130391257D01*
X293889180Y-130629352D02*
X294746323Y-130629352D01*
X294841561Y-130581733D01*
X294889180Y-130486495D01*
X294889180Y-130391257D01*
X211972685Y-129509828D02*
X212734590Y-129509828D01*
X212353638Y-129890780D02*
X212353638Y-129128876D01*
X213686971Y-128890780D02*
X213210780Y-128890780D01*
X213163161Y-129366971D01*
X213210780Y-129319352D01*
X213306019Y-129271733D01*
X213544114Y-129271733D01*
X213639352Y-129319352D01*
X213686971Y-129366971D01*
X213734590Y-129462209D01*
X213734590Y-129700304D01*
X213686971Y-129795542D01*
X213639352Y-129843161D01*
X213544114Y-129890780D01*
X213306019Y-129890780D01*
X213210780Y-129843161D01*
X213163161Y-129795542D01*
X214020304Y-128890780D02*
X214353638Y-129890780D01*
X214686971Y-128890780D01*
X176753828Y-134248304D02*
X176753828Y-133486400D01*
X177134780Y-133867352D02*
X176372876Y-133867352D01*
X177134780Y-132486400D02*
X177134780Y-133057828D01*
X177134780Y-132772114D02*
X176134780Y-132772114D01*
X176277638Y-132867352D01*
X176372876Y-132962590D01*
X176420495Y-133057828D01*
X176230019Y-132105447D02*
X176182400Y-132057828D01*
X176134780Y-131962590D01*
X176134780Y-131724495D01*
X176182400Y-131629257D01*
X176230019Y-131581638D01*
X176325257Y-131534019D01*
X176420495Y-131534019D01*
X176563352Y-131581638D01*
X177134780Y-132153066D01*
X177134780Y-131534019D01*
X176134780Y-131248304D02*
X177134780Y-130914971D01*
X176134780Y-130581638D01*
X294889180Y-148207123D02*
X293889180Y-148207123D01*
X293889180Y-147826171D01*
X293936800Y-147730933D01*
X293984419Y-147683314D01*
X294079657Y-147635695D01*
X294222514Y-147635695D01*
X294317752Y-147683314D01*
X294365371Y-147730933D01*
X294412990Y-147826171D01*
X294412990Y-148207123D01*
X294889180Y-146778552D02*
X294365371Y-146778552D01*
X294270133Y-146826171D01*
X294222514Y-146921409D01*
X294222514Y-147111885D01*
X294270133Y-147207123D01*
X294841561Y-146778552D02*
X294889180Y-146873790D01*
X294889180Y-147111885D01*
X294841561Y-147207123D01*
X294746323Y-147254742D01*
X294651085Y-147254742D01*
X294555847Y-147207123D01*
X294508228Y-147111885D01*
X294508228Y-146873790D01*
X294460609Y-146778552D01*
X294889180Y-145873790D02*
X293889180Y-145873790D01*
X294841561Y-145873790D02*
X294889180Y-145969028D01*
X294889180Y-146159504D01*
X294841561Y-146254742D01*
X294793942Y-146302361D01*
X294698704Y-146349980D01*
X294412990Y-146349980D01*
X294317752Y-146302361D01*
X294270133Y-146254742D01*
X294222514Y-146159504D01*
X294222514Y-145969028D01*
X294270133Y-145873790D01*
X294889180Y-144969028D02*
X293889180Y-144969028D01*
X294841561Y-144969028D02*
X294889180Y-145064266D01*
X294889180Y-145254742D01*
X294841561Y-145349980D01*
X294793942Y-145397600D01*
X294698704Y-145445219D01*
X294412990Y-145445219D01*
X294317752Y-145397600D01*
X294270133Y-145349980D01*
X294222514Y-145254742D01*
X294222514Y-145064266D01*
X294270133Y-144969028D01*
X294889180Y-144349980D02*
X294841561Y-144445219D01*
X294746323Y-144492838D01*
X293889180Y-144492838D01*
X294841561Y-143588076D02*
X294889180Y-143683314D01*
X294889180Y-143873790D01*
X294841561Y-143969028D01*
X294746323Y-144016647D01*
X294365371Y-144016647D01*
X294270133Y-143969028D01*
X294222514Y-143873790D01*
X294222514Y-143683314D01*
X294270133Y-143588076D01*
X294365371Y-143540457D01*
X294460609Y-143540457D01*
X294555847Y-144016647D01*
X242097085Y-129560628D02*
X242858990Y-129560628D01*
X242478038Y-129941580D02*
X242478038Y-129179676D01*
X243811371Y-128941580D02*
X243335180Y-128941580D01*
X243287561Y-129417771D01*
X243335180Y-129370152D01*
X243430419Y-129322533D01*
X243668514Y-129322533D01*
X243763752Y-129370152D01*
X243811371Y-129417771D01*
X243858990Y-129513009D01*
X243858990Y-129751104D01*
X243811371Y-129846342D01*
X243763752Y-129893961D01*
X243668514Y-129941580D01*
X243430419Y-129941580D01*
X243335180Y-129893961D01*
X243287561Y-129846342D01*
X244144704Y-128941580D02*
X244478038Y-129941580D01*
X244811371Y-128941580D01*
X190723828Y-156955904D02*
X190723828Y-156194000D01*
X191104780Y-156574952D02*
X190342876Y-156574952D01*
X191104780Y-155194000D02*
X191104780Y-155765428D01*
X191104780Y-155479714D02*
X190104780Y-155479714D01*
X190247638Y-155574952D01*
X190342876Y-155670190D01*
X190390495Y-155765428D01*
X190200019Y-154813047D02*
X190152400Y-154765428D01*
X190104780Y-154670190D01*
X190104780Y-154432095D01*
X190152400Y-154336857D01*
X190200019Y-154289238D01*
X190295257Y-154241619D01*
X190390495Y-154241619D01*
X190533352Y-154289238D01*
X191104780Y-154860666D01*
X191104780Y-154241619D01*
X190104780Y-153955904D02*
X191104780Y-153622571D01*
X190104780Y-153289238D01*
X179090628Y-98739104D02*
X179090628Y-97977200D01*
X179471580Y-98358152D02*
X178709676Y-98358152D01*
X179471580Y-96977200D02*
X179471580Y-97548628D01*
X179471580Y-97262914D02*
X178471580Y-97262914D01*
X178614438Y-97358152D01*
X178709676Y-97453390D01*
X178757295Y-97548628D01*
X178566819Y-96596247D02*
X178519200Y-96548628D01*
X178471580Y-96453390D01*
X178471580Y-96215295D01*
X178519200Y-96120057D01*
X178566819Y-96072438D01*
X178662057Y-96024819D01*
X178757295Y-96024819D01*
X178900152Y-96072438D01*
X179471580Y-96643866D01*
X179471580Y-96024819D01*
X178471580Y-95739104D02*
X179471580Y-95405771D01*
X178471580Y-95072438D01*
X245194533Y-146413600D02*
X245099295Y-146365980D01*
X244956438Y-146365980D01*
X244813580Y-146413600D01*
X244718342Y-146508838D01*
X244670723Y-146604076D01*
X244623104Y-146794552D01*
X244623104Y-146937409D01*
X244670723Y-147127885D01*
X244718342Y-147223123D01*
X244813580Y-147318361D01*
X244956438Y-147365980D01*
X245051676Y-147365980D01*
X245194533Y-147318361D01*
X245242152Y-147270742D01*
X245242152Y-146937409D01*
X245051676Y-146937409D01*
X245670723Y-147365980D02*
X245670723Y-146365980D01*
X246242152Y-147365980D01*
X246242152Y-146365980D01*
X246718342Y-147365980D02*
X246718342Y-146365980D01*
X246956438Y-146365980D01*
X247099295Y-146413600D01*
X247194533Y-146508838D01*
X247242152Y-146604076D01*
X247289771Y-146794552D01*
X247289771Y-146937409D01*
X247242152Y-147127885D01*
X247194533Y-147223123D01*
X247099295Y-147318361D01*
X246956438Y-147365980D01*
X246718342Y-147365980D01*
X248432628Y-147080266D02*
X248908819Y-147080266D01*
X248337390Y-147365980D02*
X248670723Y-146365980D01*
X249004057Y-147365980D01*
X249765961Y-146699314D02*
X249765961Y-147365980D01*
X249337390Y-146699314D02*
X249337390Y-147223123D01*
X249385009Y-147318361D01*
X249480247Y-147365980D01*
X249623104Y-147365980D01*
X249718342Y-147318361D01*
X249765961Y-147270742D01*
X250670723Y-147365980D02*
X250670723Y-146365980D01*
X250670723Y-147318361D02*
X250575485Y-147365980D01*
X250385009Y-147365980D01*
X250289771Y-147318361D01*
X250242152Y-147270742D01*
X250194533Y-147175504D01*
X250194533Y-146889790D01*
X250242152Y-146794552D01*
X250289771Y-146746933D01*
X250385009Y-146699314D01*
X250575485Y-146699314D01*
X250670723Y-146746933D01*
X251146914Y-147365980D02*
X251146914Y-146699314D01*
X251146914Y-146365980D02*
X251099295Y-146413600D01*
X251146914Y-146461219D01*
X251194533Y-146413600D01*
X251146914Y-146365980D01*
X251146914Y-146461219D01*
X251765961Y-147365980D02*
X251670723Y-147318361D01*
X251623104Y-147270742D01*
X251575485Y-147175504D01*
X251575485Y-146889790D01*
X251623104Y-146794552D01*
X251670723Y-146746933D01*
X251765961Y-146699314D01*
X251908819Y-146699314D01*
X252004057Y-146746933D01*
X252051676Y-146794552D01*
X252099295Y-146889790D01*
X252099295Y-147175504D01*
X252051676Y-147270742D01*
X252004057Y-147318361D01*
X251908819Y-147365980D01*
X251765961Y-147365980D01*
X254390685Y-130017828D02*
X255152590Y-130017828D01*
X254771638Y-130398780D02*
X254771638Y-129636876D01*
X256104971Y-129398780D02*
X255628780Y-129398780D01*
X255581161Y-129874971D01*
X255628780Y-129827352D01*
X255724019Y-129779733D01*
X255962114Y-129779733D01*
X256057352Y-129827352D01*
X256104971Y-129874971D01*
X256152590Y-129970209D01*
X256152590Y-130208304D01*
X256104971Y-130303542D01*
X256057352Y-130351161D01*
X255962114Y-130398780D01*
X255724019Y-130398780D01*
X255628780Y-130351161D01*
X255581161Y-130303542D01*
X256438304Y-129398780D02*
X256771638Y-130398780D01*
X257104971Y-129398780D01*
X221464666Y-74988800D02*
X221369428Y-74941180D01*
X221226571Y-74941180D01*
X221083714Y-74988800D01*
X220988476Y-75084038D01*
X220940857Y-75179276D01*
X220893238Y-75369752D01*
X220893238Y-75512609D01*
X220940857Y-75703085D01*
X220988476Y-75798323D01*
X221083714Y-75893561D01*
X221226571Y-75941180D01*
X221321809Y-75941180D01*
X221464666Y-75893561D01*
X221512285Y-75845942D01*
X221512285Y-75512609D01*
X221321809Y-75512609D01*
X221940857Y-75941180D02*
X221940857Y-74941180D01*
X222512285Y-75941180D01*
X222512285Y-74941180D01*
X222988476Y-75941180D02*
X222988476Y-74941180D01*
X223226571Y-74941180D01*
X223369428Y-74988800D01*
X223464666Y-75084038D01*
X223512285Y-75179276D01*
X223559904Y-75369752D01*
X223559904Y-75512609D01*
X223512285Y-75703085D01*
X223464666Y-75798323D01*
X223369428Y-75893561D01*
X223226571Y-75941180D01*
X222988476Y-75941180D01*
X224750380Y-75941180D02*
X224750380Y-74941180D01*
X224988476Y-74941180D01*
X225131333Y-74988800D01*
X225226571Y-75084038D01*
X225274190Y-75179276D01*
X225321809Y-75369752D01*
X225321809Y-75512609D01*
X225274190Y-75703085D01*
X225226571Y-75798323D01*
X225131333Y-75893561D01*
X224988476Y-75941180D01*
X224750380Y-75941180D01*
X225750380Y-75941180D02*
X225750380Y-75274514D01*
X225750380Y-74941180D02*
X225702761Y-74988800D01*
X225750380Y-75036419D01*
X225798000Y-74988800D01*
X225750380Y-74941180D01*
X225750380Y-75036419D01*
X226178952Y-75893561D02*
X226274190Y-75941180D01*
X226464666Y-75941180D01*
X226559904Y-75893561D01*
X226607523Y-75798323D01*
X226607523Y-75750704D01*
X226559904Y-75655466D01*
X226464666Y-75607847D01*
X226321809Y-75607847D01*
X226226571Y-75560228D01*
X226178952Y-75464990D01*
X226178952Y-75417371D01*
X226226571Y-75322133D01*
X226321809Y-75274514D01*
X226464666Y-75274514D01*
X226559904Y-75322133D01*
X227036095Y-75274514D02*
X227036095Y-76274514D01*
X227036095Y-75322133D02*
X227131333Y-75274514D01*
X227321809Y-75274514D01*
X227417047Y-75322133D01*
X227464666Y-75369752D01*
X227512285Y-75464990D01*
X227512285Y-75750704D01*
X227464666Y-75845942D01*
X227417047Y-75893561D01*
X227321809Y-75941180D01*
X227131333Y-75941180D01*
X227036095Y-75893561D01*
X228083714Y-75941180D02*
X227988476Y-75893561D01*
X227940857Y-75798323D01*
X227940857Y-74941180D01*
X228893238Y-75941180D02*
X228893238Y-75417371D01*
X228845619Y-75322133D01*
X228750380Y-75274514D01*
X228559904Y-75274514D01*
X228464666Y-75322133D01*
X228893238Y-75893561D02*
X228798000Y-75941180D01*
X228559904Y-75941180D01*
X228464666Y-75893561D01*
X228417047Y-75798323D01*
X228417047Y-75703085D01*
X228464666Y-75607847D01*
X228559904Y-75560228D01*
X228798000Y-75560228D01*
X228893238Y-75512609D01*
X229274190Y-75274514D02*
X229512285Y-75941180D01*
X229750380Y-75274514D02*
X229512285Y-75941180D01*
X229417047Y-76179276D01*
X229369428Y-76226895D01*
X229274190Y-76274514D01*
%TO.C,R33*%
X260164342Y-171749980D02*
X259831009Y-171273790D01*
X259592914Y-171749980D02*
X259592914Y-170749980D01*
X259973866Y-170749980D01*
X260069104Y-170797600D01*
X260116723Y-170845219D01*
X260164342Y-170940457D01*
X260164342Y-171083314D01*
X260116723Y-171178552D01*
X260069104Y-171226171D01*
X259973866Y-171273790D01*
X259592914Y-171273790D01*
X260497676Y-170749980D02*
X261116723Y-170749980D01*
X260783390Y-171130933D01*
X260926247Y-171130933D01*
X261021485Y-171178552D01*
X261069104Y-171226171D01*
X261116723Y-171321409D01*
X261116723Y-171559504D01*
X261069104Y-171654742D01*
X261021485Y-171702361D01*
X260926247Y-171749980D01*
X260640533Y-171749980D01*
X260545295Y-171702361D01*
X260497676Y-171654742D01*
X261450057Y-170749980D02*
X262069104Y-170749980D01*
X261735771Y-171130933D01*
X261878628Y-171130933D01*
X261973866Y-171178552D01*
X262021485Y-171226171D01*
X262069104Y-171321409D01*
X262069104Y-171559504D01*
X262021485Y-171654742D01*
X261973866Y-171702361D01*
X261878628Y-171749980D01*
X261592914Y-171749980D01*
X261497676Y-171702361D01*
X261450057Y-171654742D01*
%TO.C,S4*%
X226771295Y-151788761D02*
X226914152Y-151836380D01*
X227152247Y-151836380D01*
X227247485Y-151788761D01*
X227295104Y-151741142D01*
X227342723Y-151645904D01*
X227342723Y-151550666D01*
X227295104Y-151455428D01*
X227247485Y-151407809D01*
X227152247Y-151360190D01*
X226961771Y-151312571D01*
X226866533Y-151264952D01*
X226818914Y-151217333D01*
X226771295Y-151122095D01*
X226771295Y-151026857D01*
X226818914Y-150931619D01*
X226866533Y-150884000D01*
X226961771Y-150836380D01*
X227199866Y-150836380D01*
X227342723Y-150884000D01*
X228199866Y-151169714D02*
X228199866Y-151836380D01*
X227961771Y-150788761D02*
X227723676Y-151503047D01*
X228342723Y-151503047D01*
%TO.C,C11*%
X184472342Y-169216342D02*
X184424723Y-169263961D01*
X184281866Y-169311580D01*
X184186628Y-169311580D01*
X184043771Y-169263961D01*
X183948533Y-169168723D01*
X183900914Y-169073485D01*
X183853295Y-168883009D01*
X183853295Y-168740152D01*
X183900914Y-168549676D01*
X183948533Y-168454438D01*
X184043771Y-168359200D01*
X184186628Y-168311580D01*
X184281866Y-168311580D01*
X184424723Y-168359200D01*
X184472342Y-168406819D01*
X185424723Y-169311580D02*
X184853295Y-169311580D01*
X185139009Y-169311580D02*
X185139009Y-168311580D01*
X185043771Y-168454438D01*
X184948533Y-168549676D01*
X184853295Y-168597295D01*
X186377104Y-169311580D02*
X185805676Y-169311580D01*
X186091390Y-169311580D02*
X186091390Y-168311580D01*
X185996152Y-168454438D01*
X185900914Y-168549676D01*
X185805676Y-168597295D01*
%TO.C,C6*%
X200966342Y-106033866D02*
X201013961Y-106081485D01*
X201061580Y-106224342D01*
X201061580Y-106319580D01*
X201013961Y-106462438D01*
X200918723Y-106557676D01*
X200823485Y-106605295D01*
X200633009Y-106652914D01*
X200490152Y-106652914D01*
X200299676Y-106605295D01*
X200204438Y-106557676D01*
X200109200Y-106462438D01*
X200061580Y-106319580D01*
X200061580Y-106224342D01*
X200109200Y-106081485D01*
X200156819Y-106033866D01*
X200061580Y-105176723D02*
X200061580Y-105367200D01*
X200109200Y-105462438D01*
X200156819Y-105510057D01*
X200299676Y-105605295D01*
X200490152Y-105652914D01*
X200871104Y-105652914D01*
X200966342Y-105605295D01*
X201013961Y-105557676D01*
X201061580Y-105462438D01*
X201061580Y-105271961D01*
X201013961Y-105176723D01*
X200966342Y-105129104D01*
X200871104Y-105081485D01*
X200633009Y-105081485D01*
X200537771Y-105129104D01*
X200490152Y-105176723D01*
X200442533Y-105271961D01*
X200442533Y-105462438D01*
X200490152Y-105557676D01*
X200537771Y-105605295D01*
X200633009Y-105652914D01*
%TO.C,S5*%
X236778895Y-151788761D02*
X236921752Y-151836380D01*
X237159847Y-151836380D01*
X237255085Y-151788761D01*
X237302704Y-151741142D01*
X237350323Y-151645904D01*
X237350323Y-151550666D01*
X237302704Y-151455428D01*
X237255085Y-151407809D01*
X237159847Y-151360190D01*
X236969371Y-151312571D01*
X236874133Y-151264952D01*
X236826514Y-151217333D01*
X236778895Y-151122095D01*
X236778895Y-151026857D01*
X236826514Y-150931619D01*
X236874133Y-150884000D01*
X236969371Y-150836380D01*
X237207466Y-150836380D01*
X237350323Y-150884000D01*
X238255085Y-150836380D02*
X237778895Y-150836380D01*
X237731276Y-151312571D01*
X237778895Y-151264952D01*
X237874133Y-151217333D01*
X238112228Y-151217333D01*
X238207466Y-151264952D01*
X238255085Y-151312571D01*
X238302704Y-151407809D01*
X238302704Y-151645904D01*
X238255085Y-151741142D01*
X238207466Y-151788761D01*
X238112228Y-151836380D01*
X237874133Y-151836380D01*
X237778895Y-151788761D01*
X237731276Y-151741142D01*
%TO.C,R1*%
X183983333Y-115260380D02*
X183650000Y-114784190D01*
X183411904Y-115260380D02*
X183411904Y-114260380D01*
X183792857Y-114260380D01*
X183888095Y-114308000D01*
X183935714Y-114355619D01*
X183983333Y-114450857D01*
X183983333Y-114593714D01*
X183935714Y-114688952D01*
X183888095Y-114736571D01*
X183792857Y-114784190D01*
X183411904Y-114784190D01*
X184935714Y-115260380D02*
X184364285Y-115260380D01*
X184650000Y-115260380D02*
X184650000Y-114260380D01*
X184554761Y-114403238D01*
X184459523Y-114498476D01*
X184364285Y-114546095D01*
%TO.C,C15*%
X201271142Y-140977857D02*
X201318761Y-141025476D01*
X201366380Y-141168333D01*
X201366380Y-141263571D01*
X201318761Y-141406428D01*
X201223523Y-141501666D01*
X201128285Y-141549285D01*
X200937809Y-141596904D01*
X200794952Y-141596904D01*
X200604476Y-141549285D01*
X200509238Y-141501666D01*
X200414000Y-141406428D01*
X200366380Y-141263571D01*
X200366380Y-141168333D01*
X200414000Y-141025476D01*
X200461619Y-140977857D01*
X201366380Y-140025476D02*
X201366380Y-140596904D01*
X201366380Y-140311190D02*
X200366380Y-140311190D01*
X200509238Y-140406428D01*
X200604476Y-140501666D01*
X200652095Y-140596904D01*
X200366380Y-139120714D02*
X200366380Y-139596904D01*
X200842571Y-139644523D01*
X200794952Y-139596904D01*
X200747333Y-139501666D01*
X200747333Y-139263571D01*
X200794952Y-139168333D01*
X200842571Y-139120714D01*
X200937809Y-139073095D01*
X201175904Y-139073095D01*
X201271142Y-139120714D01*
X201318761Y-139168333D01*
X201366380Y-139263571D01*
X201366380Y-139501666D01*
X201318761Y-139596904D01*
X201271142Y-139644523D01*
%TO.C,C9*%
X252140962Y-90067466D02*
X252188581Y-90115085D01*
X252236200Y-90257942D01*
X252236200Y-90353180D01*
X252188581Y-90496038D01*
X252093343Y-90591276D01*
X251998105Y-90638895D01*
X251807629Y-90686514D01*
X251664772Y-90686514D01*
X251474296Y-90638895D01*
X251379058Y-90591276D01*
X251283820Y-90496038D01*
X251236200Y-90353180D01*
X251236200Y-90257942D01*
X251283820Y-90115085D01*
X251331439Y-90067466D01*
X252236200Y-89591276D02*
X252236200Y-89400800D01*
X252188581Y-89305561D01*
X252140962Y-89257942D01*
X251998105Y-89162704D01*
X251807629Y-89115085D01*
X251426677Y-89115085D01*
X251331439Y-89162704D01*
X251283820Y-89210323D01*
X251236200Y-89305561D01*
X251236200Y-89496038D01*
X251283820Y-89591276D01*
X251331439Y-89638895D01*
X251426677Y-89686514D01*
X251664772Y-89686514D01*
X251760010Y-89638895D01*
X251807629Y-89591276D01*
X251855248Y-89496038D01*
X251855248Y-89305561D01*
X251807629Y-89210323D01*
X251760010Y-89162704D01*
X251664772Y-89115085D01*
%TO.C,R13*%
X252137942Y-161260780D02*
X251804609Y-160784590D01*
X251566514Y-161260780D02*
X251566514Y-160260780D01*
X251947466Y-160260780D01*
X252042704Y-160308400D01*
X252090323Y-160356019D01*
X252137942Y-160451257D01*
X252137942Y-160594114D01*
X252090323Y-160689352D01*
X252042704Y-160736971D01*
X251947466Y-160784590D01*
X251566514Y-160784590D01*
X253090323Y-161260780D02*
X252518895Y-161260780D01*
X252804609Y-161260780D02*
X252804609Y-160260780D01*
X252709371Y-160403638D01*
X252614133Y-160498876D01*
X252518895Y-160546495D01*
X253423657Y-160260780D02*
X254042704Y-160260780D01*
X253709371Y-160641733D01*
X253852228Y-160641733D01*
X253947466Y-160689352D01*
X253995085Y-160736971D01*
X254042704Y-160832209D01*
X254042704Y-161070304D01*
X253995085Y-161165542D01*
X253947466Y-161213161D01*
X253852228Y-161260780D01*
X253566514Y-161260780D01*
X253471276Y-161213161D01*
X253423657Y-161165542D01*
%TO.C,S3*%
X216762255Y-151791961D02*
X216905112Y-151839580D01*
X217143207Y-151839580D01*
X217238445Y-151791961D01*
X217286064Y-151744342D01*
X217333683Y-151649104D01*
X217333683Y-151553866D01*
X217286064Y-151458628D01*
X217238445Y-151411009D01*
X217143207Y-151363390D01*
X216952731Y-151315771D01*
X216857493Y-151268152D01*
X216809874Y-151220533D01*
X216762255Y-151125295D01*
X216762255Y-151030057D01*
X216809874Y-150934819D01*
X216857493Y-150887200D01*
X216952731Y-150839580D01*
X217190826Y-150839580D01*
X217333683Y-150887200D01*
X217667017Y-150839580D02*
X218286064Y-150839580D01*
X217952731Y-151220533D01*
X218095588Y-151220533D01*
X218190826Y-151268152D01*
X218238445Y-151315771D01*
X218286064Y-151411009D01*
X218286064Y-151649104D01*
X218238445Y-151744342D01*
X218190826Y-151791961D01*
X218095588Y-151839580D01*
X217809874Y-151839580D01*
X217714636Y-151791961D01*
X217667017Y-151744342D01*
%TO.C,D2*%
X236193104Y-165436679D02*
X236193104Y-164436679D01*
X236431200Y-164436679D01*
X236574057Y-164484299D01*
X236669295Y-164579537D01*
X236716914Y-164674775D01*
X236764533Y-164865251D01*
X236764533Y-165008108D01*
X236716914Y-165198584D01*
X236669295Y-165293822D01*
X236574057Y-165389060D01*
X236431200Y-165436679D01*
X236193104Y-165436679D01*
X237145485Y-164531918D02*
X237193104Y-164484299D01*
X237288342Y-164436679D01*
X237526438Y-164436679D01*
X237621676Y-164484299D01*
X237669295Y-164531918D01*
X237716914Y-164627156D01*
X237716914Y-164722394D01*
X237669295Y-164865251D01*
X237097866Y-165436679D01*
X237716914Y-165436679D01*
%TO.C,S6*%
X246762255Y-151824761D02*
X246905112Y-151872380D01*
X247143207Y-151872380D01*
X247238445Y-151824761D01*
X247286064Y-151777142D01*
X247333683Y-151681904D01*
X247333683Y-151586666D01*
X247286064Y-151491428D01*
X247238445Y-151443809D01*
X247143207Y-151396190D01*
X246952731Y-151348571D01*
X246857493Y-151300952D01*
X246809874Y-151253333D01*
X246762255Y-151158095D01*
X246762255Y-151062857D01*
X246809874Y-150967619D01*
X246857493Y-150920000D01*
X246952731Y-150872380D01*
X247190826Y-150872380D01*
X247333683Y-150920000D01*
X248190826Y-150872380D02*
X248000350Y-150872380D01*
X247905112Y-150920000D01*
X247857493Y-150967619D01*
X247762255Y-151110476D01*
X247714636Y-151300952D01*
X247714636Y-151681904D01*
X247762255Y-151777142D01*
X247809874Y-151824761D01*
X247905112Y-151872380D01*
X248095588Y-151872380D01*
X248190826Y-151824761D01*
X248238445Y-151777142D01*
X248286064Y-151681904D01*
X248286064Y-151443809D01*
X248238445Y-151348571D01*
X248190826Y-151300952D01*
X248095588Y-151253333D01*
X247905112Y-151253333D01*
X247809874Y-151300952D01*
X247762255Y-151348571D01*
X247714636Y-151443809D01*
%TO.C,R23*%
X229684342Y-171800780D02*
X229351009Y-171324590D01*
X229112914Y-171800780D02*
X229112914Y-170800780D01*
X229493866Y-170800780D01*
X229589104Y-170848400D01*
X229636723Y-170896019D01*
X229684342Y-170991257D01*
X229684342Y-171134114D01*
X229636723Y-171229352D01*
X229589104Y-171276971D01*
X229493866Y-171324590D01*
X229112914Y-171324590D01*
X230065295Y-170896019D02*
X230112914Y-170848400D01*
X230208152Y-170800780D01*
X230446247Y-170800780D01*
X230541485Y-170848400D01*
X230589104Y-170896019D01*
X230636723Y-170991257D01*
X230636723Y-171086495D01*
X230589104Y-171229352D01*
X230017676Y-171800780D01*
X230636723Y-171800780D01*
X230970057Y-170800780D02*
X231589104Y-170800780D01*
X231255771Y-171181733D01*
X231398628Y-171181733D01*
X231493866Y-171229352D01*
X231541485Y-171276971D01*
X231589104Y-171372209D01*
X231589104Y-171610304D01*
X231541485Y-171705542D01*
X231493866Y-171753161D01*
X231398628Y-171800780D01*
X231112914Y-171800780D01*
X231017676Y-171753161D01*
X230970057Y-171705542D01*
%TO.C,S8*%
X256795295Y-151791961D02*
X256938152Y-151839580D01*
X257176247Y-151839580D01*
X257271485Y-151791961D01*
X257319104Y-151744342D01*
X257366723Y-151649104D01*
X257366723Y-151553866D01*
X257319104Y-151458628D01*
X257271485Y-151411009D01*
X257176247Y-151363390D01*
X256985771Y-151315771D01*
X256890533Y-151268152D01*
X256842914Y-151220533D01*
X256795295Y-151125295D01*
X256795295Y-151030057D01*
X256842914Y-150934819D01*
X256890533Y-150887200D01*
X256985771Y-150839580D01*
X257223866Y-150839580D01*
X257366723Y-150887200D01*
X257938152Y-151268152D02*
X257842914Y-151220533D01*
X257795295Y-151172914D01*
X257747676Y-151077676D01*
X257747676Y-151030057D01*
X257795295Y-150934819D01*
X257842914Y-150887200D01*
X257938152Y-150839580D01*
X258128628Y-150839580D01*
X258223866Y-150887200D01*
X258271485Y-150934819D01*
X258319104Y-151030057D01*
X258319104Y-151077676D01*
X258271485Y-151172914D01*
X258223866Y-151220533D01*
X258128628Y-151268152D01*
X257938152Y-151268152D01*
X257842914Y-151315771D01*
X257795295Y-151363390D01*
X257747676Y-151458628D01*
X257747676Y-151649104D01*
X257795295Y-151744342D01*
X257842914Y-151791961D01*
X257938152Y-151839580D01*
X258128628Y-151839580D01*
X258223866Y-151791961D01*
X258271485Y-151744342D01*
X258319104Y-151649104D01*
X258319104Y-151458628D01*
X258271485Y-151363390D01*
X258223866Y-151315771D01*
X258128628Y-151268152D01*
%TO.C,R22*%
X239742742Y-171851580D02*
X239409409Y-171375390D01*
X239171314Y-171851580D02*
X239171314Y-170851580D01*
X239552266Y-170851580D01*
X239647504Y-170899200D01*
X239695123Y-170946819D01*
X239742742Y-171042057D01*
X239742742Y-171184914D01*
X239695123Y-171280152D01*
X239647504Y-171327771D01*
X239552266Y-171375390D01*
X239171314Y-171375390D01*
X240123695Y-170946819D02*
X240171314Y-170899200D01*
X240266552Y-170851580D01*
X240504647Y-170851580D01*
X240599885Y-170899200D01*
X240647504Y-170946819D01*
X240695123Y-171042057D01*
X240695123Y-171137295D01*
X240647504Y-171280152D01*
X240076076Y-171851580D01*
X240695123Y-171851580D01*
X241076076Y-170946819D02*
X241123695Y-170899200D01*
X241218933Y-170851580D01*
X241457028Y-170851580D01*
X241552266Y-170899200D01*
X241599885Y-170946819D01*
X241647504Y-171042057D01*
X241647504Y-171137295D01*
X241599885Y-171280152D01*
X241028457Y-171851580D01*
X241647504Y-171851580D01*
%TO.C,D1*%
X246246504Y-165386380D02*
X246246504Y-164386380D01*
X246484600Y-164386380D01*
X246627457Y-164434000D01*
X246722695Y-164529238D01*
X246770314Y-164624476D01*
X246817933Y-164814952D01*
X246817933Y-164957809D01*
X246770314Y-165148285D01*
X246722695Y-165243523D01*
X246627457Y-165338761D01*
X246484600Y-165386380D01*
X246246504Y-165386380D01*
X247770314Y-165386380D02*
X247198885Y-165386380D01*
X247484600Y-165386380D02*
X247484600Y-164386380D01*
X247389361Y-164529238D01*
X247294123Y-164624476D01*
X247198885Y-164672095D01*
%TO.C,D4*%
X216214565Y-165386380D02*
X216214565Y-164386380D01*
X216452661Y-164386380D01*
X216595518Y-164434000D01*
X216690756Y-164529238D01*
X216738375Y-164624476D01*
X216785994Y-164814952D01*
X216785994Y-164957809D01*
X216738375Y-165148285D01*
X216690756Y-165243523D01*
X216595518Y-165338761D01*
X216452661Y-165386380D01*
X216214565Y-165386380D01*
X217643137Y-164719714D02*
X217643137Y-165386380D01*
X217405041Y-164338761D02*
X217166946Y-165053047D01*
X217785994Y-165053047D01*
%TO.C,C4*%
X252442162Y-97230266D02*
X252489781Y-97277885D01*
X252537400Y-97420742D01*
X252537400Y-97515980D01*
X252489781Y-97658838D01*
X252394543Y-97754076D01*
X252299305Y-97801695D01*
X252108829Y-97849314D01*
X251965972Y-97849314D01*
X251775496Y-97801695D01*
X251680258Y-97754076D01*
X251585020Y-97658838D01*
X251537400Y-97515980D01*
X251537400Y-97420742D01*
X251585020Y-97277885D01*
X251632639Y-97230266D01*
X251870734Y-96373123D02*
X252537400Y-96373123D01*
X251489781Y-96611219D02*
X252204067Y-96849314D01*
X252204067Y-96230266D01*
%TO.C,C13*%
X243790162Y-95051942D02*
X243742543Y-95099561D01*
X243599686Y-95147180D01*
X243504448Y-95147180D01*
X243361591Y-95099561D01*
X243266353Y-95004323D01*
X243218734Y-94909085D01*
X243171115Y-94718609D01*
X243171115Y-94575752D01*
X243218734Y-94385276D01*
X243266353Y-94290038D01*
X243361591Y-94194800D01*
X243504448Y-94147180D01*
X243599686Y-94147180D01*
X243742543Y-94194800D01*
X243790162Y-94242419D01*
X244742543Y-95147180D02*
X244171115Y-95147180D01*
X244456829Y-95147180D02*
X244456829Y-94147180D01*
X244361591Y-94290038D01*
X244266353Y-94385276D01*
X244171115Y-94432895D01*
X245075877Y-94147180D02*
X245694924Y-94147180D01*
X245361591Y-94528133D01*
X245504448Y-94528133D01*
X245599686Y-94575752D01*
X245647305Y-94623371D01*
X245694924Y-94718609D01*
X245694924Y-94956704D01*
X245647305Y-95051942D01*
X245599686Y-95099561D01*
X245504448Y-95147180D01*
X245218734Y-95147180D01*
X245123496Y-95099561D01*
X245075877Y-95051942D01*
%TO.C,R2*%
X197699333Y-161108380D02*
X197366000Y-160632190D01*
X197127904Y-161108380D02*
X197127904Y-160108380D01*
X197508857Y-160108380D01*
X197604095Y-160156000D01*
X197651714Y-160203619D01*
X197699333Y-160298857D01*
X197699333Y-160441714D01*
X197651714Y-160536952D01*
X197604095Y-160584571D01*
X197508857Y-160632190D01*
X197127904Y-160632190D01*
X198080285Y-160203619D02*
X198127904Y-160156000D01*
X198223142Y-160108380D01*
X198461238Y-160108380D01*
X198556476Y-160156000D01*
X198604095Y-160203619D01*
X198651714Y-160298857D01*
X198651714Y-160394095D01*
X198604095Y-160536952D01*
X198032666Y-161108380D01*
X198651714Y-161108380D01*
%TO.C,SW2*%
X275831466Y-110742361D02*
X275974323Y-110789980D01*
X276212419Y-110789980D01*
X276307657Y-110742361D01*
X276355276Y-110694742D01*
X276402895Y-110599504D01*
X276402895Y-110504266D01*
X276355276Y-110409028D01*
X276307657Y-110361409D01*
X276212419Y-110313790D01*
X276021942Y-110266171D01*
X275926704Y-110218552D01*
X275879085Y-110170933D01*
X275831466Y-110075695D01*
X275831466Y-109980457D01*
X275879085Y-109885219D01*
X275926704Y-109837600D01*
X276021942Y-109789980D01*
X276260038Y-109789980D01*
X276402895Y-109837600D01*
X276736228Y-109789980D02*
X276974323Y-110789980D01*
X277164800Y-110075695D01*
X277355276Y-110789980D01*
X277593371Y-109789980D01*
X277926704Y-109885219D02*
X277974323Y-109837600D01*
X278069561Y-109789980D01*
X278307657Y-109789980D01*
X278402895Y-109837600D01*
X278450514Y-109885219D01*
X278498133Y-109980457D01*
X278498133Y-110075695D01*
X278450514Y-110218552D01*
X277879085Y-110789980D01*
X278498133Y-110789980D01*
%TO.C,R9*%
X232040133Y-161006780D02*
X231706800Y-160530590D01*
X231468704Y-161006780D02*
X231468704Y-160006780D01*
X231849657Y-160006780D01*
X231944895Y-160054400D01*
X231992514Y-160102019D01*
X232040133Y-160197257D01*
X232040133Y-160340114D01*
X231992514Y-160435352D01*
X231944895Y-160482971D01*
X231849657Y-160530590D01*
X231468704Y-160530590D01*
X232516323Y-161006780D02*
X232706800Y-161006780D01*
X232802038Y-160959161D01*
X232849657Y-160911542D01*
X232944895Y-160768685D01*
X232992514Y-160578209D01*
X232992514Y-160197257D01*
X232944895Y-160102019D01*
X232897276Y-160054400D01*
X232802038Y-160006780D01*
X232611561Y-160006780D01*
X232516323Y-160054400D01*
X232468704Y-160102019D01*
X232421085Y-160197257D01*
X232421085Y-160435352D01*
X232468704Y-160530590D01*
X232516323Y-160578209D01*
X232611561Y-160625828D01*
X232802038Y-160625828D01*
X232897276Y-160578209D01*
X232944895Y-160530590D01*
X232992514Y-160435352D01*
%TO.C,C26*%
X283469142Y-78493857D02*
X283516761Y-78541476D01*
X283564380Y-78684333D01*
X283564380Y-78779571D01*
X283516761Y-78922428D01*
X283421523Y-79017666D01*
X283326285Y-79065285D01*
X283135809Y-79112904D01*
X282992952Y-79112904D01*
X282802476Y-79065285D01*
X282707238Y-79017666D01*
X282612000Y-78922428D01*
X282564380Y-78779571D01*
X282564380Y-78684333D01*
X282612000Y-78541476D01*
X282659619Y-78493857D01*
X282659619Y-78112904D02*
X282612000Y-78065285D01*
X282564380Y-77970047D01*
X282564380Y-77731952D01*
X282612000Y-77636714D01*
X282659619Y-77589095D01*
X282754857Y-77541476D01*
X282850095Y-77541476D01*
X282992952Y-77589095D01*
X283564380Y-78160523D01*
X283564380Y-77541476D01*
X282564380Y-76684333D02*
X282564380Y-76874809D01*
X282612000Y-76970047D01*
X282659619Y-77017666D01*
X282802476Y-77112904D01*
X282992952Y-77160523D01*
X283373904Y-77160523D01*
X283469142Y-77112904D01*
X283516761Y-77065285D01*
X283564380Y-76970047D01*
X283564380Y-76779571D01*
X283516761Y-76684333D01*
X283469142Y-76636714D01*
X283373904Y-76589095D01*
X283135809Y-76589095D01*
X283040571Y-76636714D01*
X282992952Y-76684333D01*
X282945333Y-76779571D01*
X282945333Y-76970047D01*
X282992952Y-77065285D01*
X283040571Y-77112904D01*
X283135809Y-77160523D01*
%TO.C,DS1*%
X215419200Y-80186133D02*
X215419200Y-78786133D01*
X215752533Y-78786133D01*
X215952533Y-78852800D01*
X216085866Y-78986133D01*
X216152533Y-79119466D01*
X216219200Y-79386133D01*
X216219200Y-79586133D01*
X216152533Y-79852800D01*
X216085866Y-79986133D01*
X215952533Y-80119466D01*
X215752533Y-80186133D01*
X215419200Y-80186133D01*
X216752533Y-80119466D02*
X216952533Y-80186133D01*
X217285866Y-80186133D01*
X217419200Y-80119466D01*
X217485866Y-80052800D01*
X217552533Y-79919466D01*
X217552533Y-79786133D01*
X217485866Y-79652800D01*
X217419200Y-79586133D01*
X217285866Y-79519466D01*
X217019200Y-79452800D01*
X216885866Y-79386133D01*
X216819200Y-79319466D01*
X216752533Y-79186133D01*
X216752533Y-79052800D01*
X216819200Y-78919466D01*
X216885866Y-78852800D01*
X217019200Y-78786133D01*
X217352533Y-78786133D01*
X217552533Y-78852800D01*
X218885866Y-80186133D02*
X218085866Y-80186133D01*
X218485866Y-80186133D02*
X218485866Y-78786133D01*
X218352533Y-78986133D01*
X218219200Y-79119466D01*
X218085866Y-79186133D01*
%TO.C,U2*%
X197307295Y-139812780D02*
X197307295Y-140622304D01*
X197354914Y-140717542D01*
X197402533Y-140765161D01*
X197497771Y-140812780D01*
X197688247Y-140812780D01*
X197783485Y-140765161D01*
X197831104Y-140717542D01*
X197878723Y-140622304D01*
X197878723Y-139812780D01*
X198307295Y-139908019D02*
X198354914Y-139860400D01*
X198450152Y-139812780D01*
X198688247Y-139812780D01*
X198783485Y-139860400D01*
X198831104Y-139908019D01*
X198878723Y-140003257D01*
X198878723Y-140098495D01*
X198831104Y-140241352D01*
X198259676Y-140812780D01*
X198878723Y-140812780D01*
%TO.C,R7*%
X221981733Y-161006780D02*
X221648400Y-160530590D01*
X221410304Y-161006780D02*
X221410304Y-160006780D01*
X221791257Y-160006780D01*
X221886495Y-160054400D01*
X221934114Y-160102019D01*
X221981733Y-160197257D01*
X221981733Y-160340114D01*
X221934114Y-160435352D01*
X221886495Y-160482971D01*
X221791257Y-160530590D01*
X221410304Y-160530590D01*
X222315066Y-160006780D02*
X222981733Y-160006780D01*
X222553161Y-161006780D01*
%TO.C,C23*%
X265943142Y-79001857D02*
X265990761Y-79049476D01*
X266038380Y-79192333D01*
X266038380Y-79287571D01*
X265990761Y-79430428D01*
X265895523Y-79525666D01*
X265800285Y-79573285D01*
X265609809Y-79620904D01*
X265466952Y-79620904D01*
X265276476Y-79573285D01*
X265181238Y-79525666D01*
X265086000Y-79430428D01*
X265038380Y-79287571D01*
X265038380Y-79192333D01*
X265086000Y-79049476D01*
X265133619Y-79001857D01*
X265133619Y-78620904D02*
X265086000Y-78573285D01*
X265038380Y-78478047D01*
X265038380Y-78239952D01*
X265086000Y-78144714D01*
X265133619Y-78097095D01*
X265228857Y-78049476D01*
X265324095Y-78049476D01*
X265466952Y-78097095D01*
X266038380Y-78668523D01*
X266038380Y-78049476D01*
X265038380Y-77716142D02*
X265038380Y-77097095D01*
X265419333Y-77430428D01*
X265419333Y-77287571D01*
X265466952Y-77192333D01*
X265514571Y-77144714D01*
X265609809Y-77097095D01*
X265847904Y-77097095D01*
X265943142Y-77144714D01*
X265990761Y-77192333D01*
X266038380Y-77287571D01*
X266038380Y-77573285D01*
X265990761Y-77668523D01*
X265943142Y-77716142D01*
%TO.C,S1*%
X196775095Y-151791961D02*
X196917952Y-151839580D01*
X197156047Y-151839580D01*
X197251285Y-151791961D01*
X197298904Y-151744342D01*
X197346523Y-151649104D01*
X197346523Y-151553866D01*
X197298904Y-151458628D01*
X197251285Y-151411009D01*
X197156047Y-151363390D01*
X196965571Y-151315771D01*
X196870333Y-151268152D01*
X196822714Y-151220533D01*
X196775095Y-151125295D01*
X196775095Y-151030057D01*
X196822714Y-150934819D01*
X196870333Y-150887200D01*
X196965571Y-150839580D01*
X197203666Y-150839580D01*
X197346523Y-150887200D01*
X198298904Y-151839580D02*
X197727476Y-151839580D01*
X198013190Y-151839580D02*
X198013190Y-150839580D01*
X197917952Y-150982438D01*
X197822714Y-151077676D01*
X197727476Y-151125295D01*
%TO.C,C37*%
X180490342Y-121750057D02*
X180537961Y-121797676D01*
X180585580Y-121940533D01*
X180585580Y-122035771D01*
X180537961Y-122178628D01*
X180442723Y-122273866D01*
X180347485Y-122321485D01*
X180157009Y-122369104D01*
X180014152Y-122369104D01*
X179823676Y-122321485D01*
X179728438Y-122273866D01*
X179633200Y-122178628D01*
X179585580Y-122035771D01*
X179585580Y-121940533D01*
X179633200Y-121797676D01*
X179680819Y-121750057D01*
X179585580Y-121416723D02*
X179585580Y-120797676D01*
X179966533Y-121131009D01*
X179966533Y-120988152D01*
X180014152Y-120892914D01*
X180061771Y-120845295D01*
X180157009Y-120797676D01*
X180395104Y-120797676D01*
X180490342Y-120845295D01*
X180537961Y-120892914D01*
X180585580Y-120988152D01*
X180585580Y-121273866D01*
X180537961Y-121369104D01*
X180490342Y-121416723D01*
X179585580Y-120464342D02*
X179585580Y-119797676D01*
X180585580Y-120226247D01*
%TO.C,D3*%
X226185504Y-165436679D02*
X226185504Y-164436679D01*
X226423600Y-164436679D01*
X226566457Y-164484299D01*
X226661695Y-164579537D01*
X226709314Y-164674775D01*
X226756933Y-164865251D01*
X226756933Y-165008108D01*
X226709314Y-165198584D01*
X226661695Y-165293822D01*
X226566457Y-165389060D01*
X226423600Y-165436679D01*
X226185504Y-165436679D01*
X227090266Y-164436679D02*
X227709314Y-164436679D01*
X227375980Y-164817632D01*
X227518838Y-164817632D01*
X227614076Y-164865251D01*
X227661695Y-164912870D01*
X227709314Y-165008108D01*
X227709314Y-165246203D01*
X227661695Y-165341441D01*
X227614076Y-165389060D01*
X227518838Y-165436679D01*
X227233123Y-165436679D01*
X227137885Y-165389060D01*
X227090266Y-165341441D01*
%TO.C,R6*%
X212024933Y-161006780D02*
X211691600Y-160530590D01*
X211453504Y-161006780D02*
X211453504Y-160006780D01*
X211834457Y-160006780D01*
X211929695Y-160054400D01*
X211977314Y-160102019D01*
X212024933Y-160197257D01*
X212024933Y-160340114D01*
X211977314Y-160435352D01*
X211929695Y-160482971D01*
X211834457Y-160530590D01*
X211453504Y-160530590D01*
X212882076Y-160006780D02*
X212691600Y-160006780D01*
X212596361Y-160054400D01*
X212548742Y-160102019D01*
X212453504Y-160244876D01*
X212405885Y-160435352D01*
X212405885Y-160816304D01*
X212453504Y-160911542D01*
X212501123Y-160959161D01*
X212596361Y-161006780D01*
X212786838Y-161006780D01*
X212882076Y-160959161D01*
X212929695Y-160911542D01*
X212977314Y-160816304D01*
X212977314Y-160578209D01*
X212929695Y-160482971D01*
X212882076Y-160435352D01*
X212786838Y-160387733D01*
X212596361Y-160387733D01*
X212501123Y-160435352D01*
X212453504Y-160482971D01*
X212405885Y-160578209D01*
%TO.C,R24*%
X219778342Y-171851580D02*
X219445009Y-171375390D01*
X219206914Y-171851580D02*
X219206914Y-170851580D01*
X219587866Y-170851580D01*
X219683104Y-170899200D01*
X219730723Y-170946819D01*
X219778342Y-171042057D01*
X219778342Y-171184914D01*
X219730723Y-171280152D01*
X219683104Y-171327771D01*
X219587866Y-171375390D01*
X219206914Y-171375390D01*
X220159295Y-170946819D02*
X220206914Y-170899200D01*
X220302152Y-170851580D01*
X220540247Y-170851580D01*
X220635485Y-170899200D01*
X220683104Y-170946819D01*
X220730723Y-171042057D01*
X220730723Y-171137295D01*
X220683104Y-171280152D01*
X220111676Y-171851580D01*
X220730723Y-171851580D01*
X221587866Y-171184914D02*
X221587866Y-171851580D01*
X221349771Y-170803961D02*
X221111676Y-171518247D01*
X221730723Y-171518247D01*
%TO.C,S2*%
X206681095Y-151791961D02*
X206823952Y-151839580D01*
X207062047Y-151839580D01*
X207157285Y-151791961D01*
X207204904Y-151744342D01*
X207252523Y-151649104D01*
X207252523Y-151553866D01*
X207204904Y-151458628D01*
X207157285Y-151411009D01*
X207062047Y-151363390D01*
X206871571Y-151315771D01*
X206776333Y-151268152D01*
X206728714Y-151220533D01*
X206681095Y-151125295D01*
X206681095Y-151030057D01*
X206728714Y-150934819D01*
X206776333Y-150887200D01*
X206871571Y-150839580D01*
X207109666Y-150839580D01*
X207252523Y-150887200D01*
X207633476Y-150934819D02*
X207681095Y-150887200D01*
X207776333Y-150839580D01*
X208014428Y-150839580D01*
X208109666Y-150887200D01*
X208157285Y-150934819D01*
X208204904Y-151030057D01*
X208204904Y-151125295D01*
X208157285Y-151268152D01*
X207585857Y-151839580D01*
X208204904Y-151839580D01*
%TO.C,R10*%
X241774742Y-161057580D02*
X241441409Y-160581390D01*
X241203314Y-161057580D02*
X241203314Y-160057580D01*
X241584266Y-160057580D01*
X241679504Y-160105200D01*
X241727123Y-160152819D01*
X241774742Y-160248057D01*
X241774742Y-160390914D01*
X241727123Y-160486152D01*
X241679504Y-160533771D01*
X241584266Y-160581390D01*
X241203314Y-160581390D01*
X242727123Y-161057580D02*
X242155695Y-161057580D01*
X242441409Y-161057580D02*
X242441409Y-160057580D01*
X242346171Y-160200438D01*
X242250933Y-160295676D01*
X242155695Y-160343295D01*
X243346171Y-160057580D02*
X243441409Y-160057580D01*
X243536647Y-160105200D01*
X243584266Y-160152819D01*
X243631885Y-160248057D01*
X243679504Y-160438533D01*
X243679504Y-160676628D01*
X243631885Y-160867104D01*
X243584266Y-160962342D01*
X243536647Y-161009961D01*
X243441409Y-161057580D01*
X243346171Y-161057580D01*
X243250933Y-161009961D01*
X243203314Y-160962342D01*
X243155695Y-160867104D01*
X243108076Y-160676628D01*
X243108076Y-160438533D01*
X243155695Y-160248057D01*
X243203314Y-160152819D01*
X243250933Y-160105200D01*
X243346171Y-160057580D01*
%TO.C,C1*%
X186523333Y-115038142D02*
X186475714Y-115085761D01*
X186332857Y-115133380D01*
X186237619Y-115133380D01*
X186094761Y-115085761D01*
X185999523Y-114990523D01*
X185951904Y-114895285D01*
X185904285Y-114704809D01*
X185904285Y-114561952D01*
X185951904Y-114371476D01*
X185999523Y-114276238D01*
X186094761Y-114181000D01*
X186237619Y-114133380D01*
X186332857Y-114133380D01*
X186475714Y-114181000D01*
X186523333Y-114228619D01*
X187475714Y-115133380D02*
X186904285Y-115133380D01*
X187190000Y-115133380D02*
X187190000Y-114133380D01*
X187094761Y-114276238D01*
X186999523Y-114371476D01*
X186904285Y-114419095D01*
%TO.C,R34*%
X210126342Y-171902380D02*
X209793009Y-171426190D01*
X209554914Y-171902380D02*
X209554914Y-170902380D01*
X209935866Y-170902380D01*
X210031104Y-170950000D01*
X210078723Y-170997619D01*
X210126342Y-171092857D01*
X210126342Y-171235714D01*
X210078723Y-171330952D01*
X210031104Y-171378571D01*
X209935866Y-171426190D01*
X209554914Y-171426190D01*
X210459676Y-170902380D02*
X211078723Y-170902380D01*
X210745390Y-171283333D01*
X210888247Y-171283333D01*
X210983485Y-171330952D01*
X211031104Y-171378571D01*
X211078723Y-171473809D01*
X211078723Y-171711904D01*
X211031104Y-171807142D01*
X210983485Y-171854761D01*
X210888247Y-171902380D01*
X210602533Y-171902380D01*
X210507295Y-171854761D01*
X210459676Y-171807142D01*
X211935866Y-171235714D02*
X211935866Y-171902380D01*
X211697771Y-170854761D02*
X211459676Y-171569047D01*
X212078723Y-171569047D01*
%TO.C,D6*%
X206216104Y-165386380D02*
X206216104Y-164386380D01*
X206454200Y-164386380D01*
X206597057Y-164434000D01*
X206692295Y-164529238D01*
X206739914Y-164624476D01*
X206787533Y-164814952D01*
X206787533Y-164957809D01*
X206739914Y-165148285D01*
X206692295Y-165243523D01*
X206597057Y-165338761D01*
X206454200Y-165386380D01*
X206216104Y-165386380D01*
X207644676Y-164386380D02*
X207454200Y-164386380D01*
X207358961Y-164434000D01*
X207311342Y-164481619D01*
X207216104Y-164624476D01*
X207168485Y-164814952D01*
X207168485Y-165195904D01*
X207216104Y-165291142D01*
X207263723Y-165338761D01*
X207358961Y-165386380D01*
X207549438Y-165386380D01*
X207644676Y-165338761D01*
X207692295Y-165291142D01*
X207739914Y-165195904D01*
X207739914Y-164957809D01*
X207692295Y-164862571D01*
X207644676Y-164814952D01*
X207549438Y-164767333D01*
X207358961Y-164767333D01*
X207263723Y-164814952D01*
X207216104Y-164862571D01*
X207168485Y-164957809D01*
%TO.C,R16*%
X199001142Y-134691380D02*
X198667809Y-134215190D01*
X198429714Y-134691380D02*
X198429714Y-133691380D01*
X198810666Y-133691380D01*
X198905904Y-133739000D01*
X198953523Y-133786619D01*
X199001142Y-133881857D01*
X199001142Y-134024714D01*
X198953523Y-134119952D01*
X198905904Y-134167571D01*
X198810666Y-134215190D01*
X198429714Y-134215190D01*
X199953523Y-134691380D02*
X199382095Y-134691380D01*
X199667809Y-134691380D02*
X199667809Y-133691380D01*
X199572571Y-133834238D01*
X199477333Y-133929476D01*
X199382095Y-133977095D01*
X200810666Y-133691380D02*
X200620190Y-133691380D01*
X200524952Y-133739000D01*
X200477333Y-133786619D01*
X200382095Y-133929476D01*
X200334476Y-134119952D01*
X200334476Y-134500904D01*
X200382095Y-134596142D01*
X200429714Y-134643761D01*
X200524952Y-134691380D01*
X200715428Y-134691380D01*
X200810666Y-134643761D01*
X200858285Y-134596142D01*
X200905904Y-134500904D01*
X200905904Y-134262809D01*
X200858285Y-134167571D01*
X200810666Y-134119952D01*
X200715428Y-134072333D01*
X200524952Y-134072333D01*
X200429714Y-134119952D01*
X200382095Y-134167571D01*
X200334476Y-134262809D01*
%TO.C,R3*%
X201915733Y-161006780D02*
X201582400Y-160530590D01*
X201344304Y-161006780D02*
X201344304Y-160006780D01*
X201725257Y-160006780D01*
X201820495Y-160054400D01*
X201868114Y-160102019D01*
X201915733Y-160197257D01*
X201915733Y-160340114D01*
X201868114Y-160435352D01*
X201820495Y-160482971D01*
X201725257Y-160530590D01*
X201344304Y-160530590D01*
X202249066Y-160006780D02*
X202868114Y-160006780D01*
X202534780Y-160387733D01*
X202677638Y-160387733D01*
X202772876Y-160435352D01*
X202820495Y-160482971D01*
X202868114Y-160578209D01*
X202868114Y-160816304D01*
X202820495Y-160911542D01*
X202772876Y-160959161D01*
X202677638Y-161006780D01*
X202391923Y-161006780D01*
X202296685Y-160959161D01*
X202249066Y-160911542D01*
%TO.C,R21*%
X249750342Y-171800780D02*
X249417009Y-171324590D01*
X249178914Y-171800780D02*
X249178914Y-170800780D01*
X249559866Y-170800780D01*
X249655104Y-170848400D01*
X249702723Y-170896019D01*
X249750342Y-170991257D01*
X249750342Y-171134114D01*
X249702723Y-171229352D01*
X249655104Y-171276971D01*
X249559866Y-171324590D01*
X249178914Y-171324590D01*
X250131295Y-170896019D02*
X250178914Y-170848400D01*
X250274152Y-170800780D01*
X250512247Y-170800780D01*
X250607485Y-170848400D01*
X250655104Y-170896019D01*
X250702723Y-170991257D01*
X250702723Y-171086495D01*
X250655104Y-171229352D01*
X250083676Y-171800780D01*
X250702723Y-171800780D01*
X251655104Y-171800780D02*
X251083676Y-171800780D01*
X251369390Y-171800780D02*
X251369390Y-170800780D01*
X251274152Y-170943638D01*
X251178914Y-171038876D01*
X251083676Y-171086495D01*
%TO.C,R14*%
X180690780Y-117940057D02*
X180214590Y-118273390D01*
X180690780Y-118511485D02*
X179690780Y-118511485D01*
X179690780Y-118130533D01*
X179738400Y-118035295D01*
X179786019Y-117987676D01*
X179881257Y-117940057D01*
X180024114Y-117940057D01*
X180119352Y-117987676D01*
X180166971Y-118035295D01*
X180214590Y-118130533D01*
X180214590Y-118511485D01*
X180690780Y-116987676D02*
X180690780Y-117559104D01*
X180690780Y-117273390D02*
X179690780Y-117273390D01*
X179833638Y-117368628D01*
X179928876Y-117463866D01*
X179976495Y-117559104D01*
X180024114Y-116130533D02*
X180690780Y-116130533D01*
X179643161Y-116368628D02*
X180357447Y-116606723D01*
X180357447Y-115987676D01*
%TO.C,C25*%
X262768142Y-79001857D02*
X262815761Y-79049476D01*
X262863380Y-79192333D01*
X262863380Y-79287571D01*
X262815761Y-79430428D01*
X262720523Y-79525666D01*
X262625285Y-79573285D01*
X262434809Y-79620904D01*
X262291952Y-79620904D01*
X262101476Y-79573285D01*
X262006238Y-79525666D01*
X261911000Y-79430428D01*
X261863380Y-79287571D01*
X261863380Y-79192333D01*
X261911000Y-79049476D01*
X261958619Y-79001857D01*
X261958619Y-78620904D02*
X261911000Y-78573285D01*
X261863380Y-78478047D01*
X261863380Y-78239952D01*
X261911000Y-78144714D01*
X261958619Y-78097095D01*
X262053857Y-78049476D01*
X262149095Y-78049476D01*
X262291952Y-78097095D01*
X262863380Y-78668523D01*
X262863380Y-78049476D01*
X261863380Y-77144714D02*
X261863380Y-77620904D01*
X262339571Y-77668523D01*
X262291952Y-77620904D01*
X262244333Y-77525666D01*
X262244333Y-77287571D01*
X262291952Y-77192333D01*
X262339571Y-77144714D01*
X262434809Y-77097095D01*
X262672904Y-77097095D01*
X262768142Y-77144714D01*
X262815761Y-77192333D01*
X262863380Y-77287571D01*
X262863380Y-77525666D01*
X262815761Y-77620904D01*
X262768142Y-77668523D01*
%TO.C,R15*%
X199001142Y-132659380D02*
X198667809Y-132183190D01*
X198429714Y-132659380D02*
X198429714Y-131659380D01*
X198810666Y-131659380D01*
X198905904Y-131707000D01*
X198953523Y-131754619D01*
X199001142Y-131849857D01*
X199001142Y-131992714D01*
X198953523Y-132087952D01*
X198905904Y-132135571D01*
X198810666Y-132183190D01*
X198429714Y-132183190D01*
X199953523Y-132659380D02*
X199382095Y-132659380D01*
X199667809Y-132659380D02*
X199667809Y-131659380D01*
X199572571Y-131802238D01*
X199477333Y-131897476D01*
X199382095Y-131945095D01*
X200858285Y-131659380D02*
X200382095Y-131659380D01*
X200334476Y-132135571D01*
X200382095Y-132087952D01*
X200477333Y-132040333D01*
X200715428Y-132040333D01*
X200810666Y-132087952D01*
X200858285Y-132135571D01*
X200905904Y-132230809D01*
X200905904Y-132468904D01*
X200858285Y-132564142D01*
X200810666Y-132611761D01*
X200715428Y-132659380D01*
X200477333Y-132659380D01*
X200382095Y-132611761D01*
X200334476Y-132564142D01*
%TO.C,C22*%
X191431942Y-80621142D02*
X191384323Y-80668761D01*
X191241466Y-80716380D01*
X191146228Y-80716380D01*
X191003371Y-80668761D01*
X190908133Y-80573523D01*
X190860514Y-80478285D01*
X190812895Y-80287809D01*
X190812895Y-80144952D01*
X190860514Y-79954476D01*
X190908133Y-79859238D01*
X191003371Y-79764000D01*
X191146228Y-79716380D01*
X191241466Y-79716380D01*
X191384323Y-79764000D01*
X191431942Y-79811619D01*
X191812895Y-79811619D02*
X191860514Y-79764000D01*
X191955752Y-79716380D01*
X192193847Y-79716380D01*
X192289085Y-79764000D01*
X192336704Y-79811619D01*
X192384323Y-79906857D01*
X192384323Y-80002095D01*
X192336704Y-80144952D01*
X191765276Y-80716380D01*
X192384323Y-80716380D01*
X192765276Y-79811619D02*
X192812895Y-79764000D01*
X192908133Y-79716380D01*
X193146228Y-79716380D01*
X193241466Y-79764000D01*
X193289085Y-79811619D01*
X193336704Y-79906857D01*
X193336704Y-80002095D01*
X193289085Y-80144952D01*
X192717657Y-80716380D01*
X193336704Y-80716380D01*
%TO.C,C2*%
X239342962Y-89451666D02*
X239390581Y-89499285D01*
X239438200Y-89642142D01*
X239438200Y-89737380D01*
X239390581Y-89880238D01*
X239295343Y-89975476D01*
X239200105Y-90023095D01*
X239009629Y-90070714D01*
X238866772Y-90070714D01*
X238676296Y-90023095D01*
X238581058Y-89975476D01*
X238485820Y-89880238D01*
X238438200Y-89737380D01*
X238438200Y-89642142D01*
X238485820Y-89499285D01*
X238533439Y-89451666D01*
X238533439Y-89070714D02*
X238485820Y-89023095D01*
X238438200Y-88927857D01*
X238438200Y-88689761D01*
X238485820Y-88594523D01*
X238533439Y-88546904D01*
X238628677Y-88499285D01*
X238723915Y-88499285D01*
X238866772Y-88546904D01*
X239438200Y-89118333D01*
X239438200Y-88499285D01*
%TO.C,C8*%
X195171542Y-105881466D02*
X195219161Y-105929085D01*
X195266780Y-106071942D01*
X195266780Y-106167180D01*
X195219161Y-106310038D01*
X195123923Y-106405276D01*
X195028685Y-106452895D01*
X194838209Y-106500514D01*
X194695352Y-106500514D01*
X194504876Y-106452895D01*
X194409638Y-106405276D01*
X194314400Y-106310038D01*
X194266780Y-106167180D01*
X194266780Y-106071942D01*
X194314400Y-105929085D01*
X194362019Y-105881466D01*
X194695352Y-105310038D02*
X194647733Y-105405276D01*
X194600114Y-105452895D01*
X194504876Y-105500514D01*
X194457257Y-105500514D01*
X194362019Y-105452895D01*
X194314400Y-105405276D01*
X194266780Y-105310038D01*
X194266780Y-105119561D01*
X194314400Y-105024323D01*
X194362019Y-104976704D01*
X194457257Y-104929085D01*
X194504876Y-104929085D01*
X194600114Y-104976704D01*
X194647733Y-105024323D01*
X194695352Y-105119561D01*
X194695352Y-105310038D01*
X194742971Y-105405276D01*
X194790590Y-105452895D01*
X194885828Y-105500514D01*
X195076304Y-105500514D01*
X195171542Y-105452895D01*
X195219161Y-105405276D01*
X195266780Y-105310038D01*
X195266780Y-105119561D01*
X195219161Y-105024323D01*
X195171542Y-104976704D01*
X195076304Y-104929085D01*
X194885828Y-104929085D01*
X194790590Y-104976704D01*
X194742971Y-105024323D01*
X194695352Y-105119561D01*
%TO.C,D5*%
X256254104Y-165386380D02*
X256254104Y-164386380D01*
X256492200Y-164386380D01*
X256635057Y-164434000D01*
X256730295Y-164529238D01*
X256777914Y-164624476D01*
X256825533Y-164814952D01*
X256825533Y-164957809D01*
X256777914Y-165148285D01*
X256730295Y-165243523D01*
X256635057Y-165338761D01*
X256492200Y-165386380D01*
X256254104Y-165386380D01*
X257730295Y-164386380D02*
X257254104Y-164386380D01*
X257206485Y-164862571D01*
X257254104Y-164814952D01*
X257349342Y-164767333D01*
X257587438Y-164767333D01*
X257682676Y-164814952D01*
X257730295Y-164862571D01*
X257777914Y-164957809D01*
X257777914Y-165195904D01*
X257730295Y-165291142D01*
X257682676Y-165338761D01*
X257587438Y-165386380D01*
X257349342Y-165386380D01*
X257254104Y-165338761D01*
X257206485Y-165291142D01*
%TO.C,C24*%
X277877542Y-78417657D02*
X277925161Y-78465276D01*
X277972780Y-78608133D01*
X277972780Y-78703371D01*
X277925161Y-78846228D01*
X277829923Y-78941466D01*
X277734685Y-78989085D01*
X277544209Y-79036704D01*
X277401352Y-79036704D01*
X277210876Y-78989085D01*
X277115638Y-78941466D01*
X277020400Y-78846228D01*
X276972780Y-78703371D01*
X276972780Y-78608133D01*
X277020400Y-78465276D01*
X277068019Y-78417657D01*
X277068019Y-78036704D02*
X277020400Y-77989085D01*
X276972780Y-77893847D01*
X276972780Y-77655752D01*
X277020400Y-77560514D01*
X277068019Y-77512895D01*
X277163257Y-77465276D01*
X277258495Y-77465276D01*
X277401352Y-77512895D01*
X277972780Y-78084323D01*
X277972780Y-77465276D01*
X277306114Y-76608133D02*
X277972780Y-76608133D01*
X276925161Y-76846228D02*
X277639447Y-77084323D01*
X277639447Y-76465276D01*
D11*
%TO.C,R33*%
X257579864Y-172083400D02*
X257125736Y-172083400D01*
X257579864Y-170613400D02*
X257125736Y-170613400D01*
D12*
%TO.C,S4*%
X229616000Y-159283400D02*
X224323200Y-159273600D01*
X230032400Y-154925600D02*
X230032400Y-157020800D01*
X224923200Y-152679400D02*
X229590600Y-152679400D01*
X223926400Y-154914600D02*
X223926400Y-157022800D01*
X223926400Y-154921200D02*
X223676400Y-154921200D01*
D11*
%TO.C,C11*%
X184650748Y-167613000D02*
X185173252Y-167613000D01*
X184650748Y-166143000D02*
X185173252Y-166143000D01*
%TO.C,C6*%
X199566200Y-106026852D02*
X199566200Y-105504348D01*
X198096200Y-106026852D02*
X198096200Y-105504348D01*
D12*
%TO.C,S5*%
X240040000Y-154925600D02*
X240040000Y-157020800D01*
X239623600Y-159283400D02*
X234330800Y-159273600D01*
X233934000Y-154914600D02*
X233934000Y-157022800D01*
X234930800Y-152679400D02*
X239598200Y-152679400D01*
X233934000Y-154921200D02*
X233684000Y-154921200D01*
D11*
%TO.C,R1*%
X183415000Y-117120936D02*
X183415000Y-117575064D01*
X184885000Y-117120936D02*
X184885000Y-117575064D01*
%TO.C,C15*%
X201649000Y-143644252D02*
X201649000Y-143121748D01*
X200179000Y-143644252D02*
X200179000Y-143121748D01*
%TO.C,C9*%
X254296820Y-89588748D02*
X254296820Y-90111252D01*
X252826820Y-89588748D02*
X252826820Y-90111252D01*
%TO.C,R13*%
X252553736Y-163193400D02*
X253007864Y-163193400D01*
X252553736Y-161723400D02*
X253007864Y-161723400D01*
D12*
%TO.C,S3*%
X220023360Y-154928800D02*
X220023360Y-157024000D01*
X219606960Y-159286600D02*
X214314160Y-159276800D01*
X214914160Y-152682600D02*
X219581560Y-152682600D01*
X213917360Y-154917800D02*
X213917360Y-157026000D01*
X213917360Y-154924400D02*
X213667360Y-154924400D01*
D11*
%TO.C,D2*%
X235371200Y-169024299D02*
X235371200Y-169180299D01*
X235371200Y-166708299D02*
X235371200Y-166864299D01*
X237972330Y-166864462D02*
G75*
G03*
X235890239Y-166864299I-1041130J-1079837D01*
G01*
X238603535Y-166865691D02*
G75*
G03*
X235371200Y-166708783I-1672335J-1078608D01*
G01*
X235890239Y-169024299D02*
G75*
G03*
X237972330Y-169024136I1040961J1080000D01*
G01*
X235371200Y-169179815D02*
G75*
G03*
X238603535Y-169022907I1560000J1235516D01*
G01*
D12*
%TO.C,S6*%
X249606960Y-159319400D02*
X244314160Y-159309600D01*
X243917360Y-154957200D02*
X243667360Y-154957200D01*
X244914160Y-152715400D02*
X249581560Y-152715400D01*
X250023360Y-154961600D02*
X250023360Y-157056800D01*
X243917360Y-154950600D02*
X243917360Y-157058800D01*
D11*
%TO.C,R23*%
X227247151Y-172058000D02*
X226793023Y-172058000D01*
X227247151Y-170588000D02*
X226793023Y-170588000D01*
D12*
%TO.C,S8*%
X260056400Y-154928800D02*
X260056400Y-157024000D01*
X254947200Y-152682600D02*
X259614600Y-152682600D01*
X253950400Y-154924400D02*
X253700400Y-154924400D01*
X253950400Y-154917800D02*
X253950400Y-157026000D01*
X259640000Y-159286600D02*
X254347200Y-159276800D01*
D11*
%TO.C,R22*%
X237082064Y-172058000D02*
X236627936Y-172058000D01*
X237082064Y-170588000D02*
X236627936Y-170588000D01*
%TO.C,D1*%
X245424600Y-168974000D02*
X245424600Y-169130000D01*
X245424600Y-166658000D02*
X245424600Y-166814000D01*
X248025730Y-166814163D02*
G75*
G03*
X245943639Y-166814000I-1041130J-1079837D01*
G01*
X245943639Y-168974000D02*
G75*
G03*
X248025730Y-168973837I1040961J1080000D01*
G01*
X245424600Y-169129516D02*
G75*
G03*
X248656935Y-168972608I1560000J1235516D01*
G01*
X248656935Y-166815392D02*
G75*
G03*
X245424600Y-166658484I-1672335J-1078608D01*
G01*
%TO.C,D4*%
X215392661Y-168974000D02*
X215392661Y-169130000D01*
X215392661Y-166658000D02*
X215392661Y-166814000D01*
X218624996Y-166815392D02*
G75*
G03*
X215392661Y-166658484I-1672335J-1078608D01*
G01*
X217993791Y-166814163D02*
G75*
G03*
X215911700Y-166814000I-1041130J-1079837D01*
G01*
X215911700Y-168974000D02*
G75*
G03*
X217993791Y-168973837I1040961J1080000D01*
G01*
X215392661Y-169129516D02*
G75*
G03*
X218624996Y-168972608I1560000J1235516D01*
G01*
%TO.C,C4*%
X254500020Y-97324852D02*
X254500020Y-96802348D01*
X253030020Y-97324852D02*
X253030020Y-96802348D01*
%TO.C,C13*%
X244694272Y-92279800D02*
X244171768Y-92279800D01*
X244694272Y-93749800D02*
X244171768Y-93749800D01*
%TO.C,R2*%
X197638936Y-161571000D02*
X198093064Y-161571000D01*
X197638936Y-163041000D02*
X198093064Y-163041000D01*
%TO.C,SW2*%
X289264160Y-97474000D02*
X289564160Y-97174000D01*
X289564160Y-97174000D02*
X289564160Y-97774000D01*
X291264160Y-98874000D02*
X279564160Y-98874000D01*
X282164160Y-111074000D02*
X279564160Y-111074000D01*
X285464160Y-104474000D02*
X285464160Y-105474000D01*
X291264160Y-102974000D02*
X291264160Y-98874000D01*
X286764160Y-111074000D02*
X284164160Y-111074000D01*
X291364160Y-106974000D02*
X291364160Y-111074000D01*
X291364160Y-111074000D02*
X288764160Y-111074000D01*
X289564160Y-97774000D02*
X289264160Y-97474000D01*
X279564160Y-111074000D02*
X279564160Y-106974000D01*
X285964160Y-104974000D02*
X284964160Y-104974000D01*
X279564160Y-102974000D02*
X279564160Y-98874000D01*
X288464160Y-104974000D02*
G75*
G03*
X288464160Y-104974000I-3000000J0D01*
G01*
%TO.C,R9*%
X231979736Y-162939400D02*
X232433864Y-162939400D01*
X231979736Y-161469400D02*
X232433864Y-161469400D01*
%TO.C,C26*%
X280697000Y-77589748D02*
X280697000Y-78112252D01*
X282167000Y-77589748D02*
X282167000Y-78112252D01*
%TO.C,U2*%
X194772000Y-147976000D02*
X196272000Y-147976000D01*
X194772000Y-141076000D02*
X196272000Y-141076000D01*
X196272000Y-147976000D02*
X196272000Y-147706000D01*
X196272000Y-147706000D02*
X199102000Y-147706000D01*
X196272000Y-141076000D02*
X196272000Y-141346000D01*
X196272000Y-141346000D02*
X197372000Y-141346000D01*
%TO.C,R7*%
X221921336Y-161469400D02*
X222375464Y-161469400D01*
X221921336Y-162939400D02*
X222375464Y-162939400D01*
%TO.C,C23*%
X264641000Y-78097748D02*
X264641000Y-78620252D01*
X263171000Y-78097748D02*
X263171000Y-78620252D01*
D12*
%TO.C,S1*%
X200036200Y-154928800D02*
X200036200Y-157024000D01*
X199619800Y-159286600D02*
X194327000Y-159276800D01*
X193930200Y-154917800D02*
X193930200Y-157026000D01*
X193930200Y-154924400D02*
X193680200Y-154924400D01*
X194927000Y-152682600D02*
X199594400Y-152682600D01*
D11*
%TO.C,C37*%
X182548200Y-121368452D02*
X182548200Y-120845948D01*
X181078200Y-121368452D02*
X181078200Y-120845948D01*
%TO.C,D3*%
X225363600Y-166708299D02*
X225363600Y-166864299D01*
X225363600Y-169024299D02*
X225363600Y-169180299D01*
X227964730Y-166864462D02*
G75*
G03*
X225882639Y-166864299I-1041130J-1079837D01*
G01*
X225363600Y-169179815D02*
G75*
G03*
X228595935Y-169022907I1560000J1235516D01*
G01*
X228595935Y-166865691D02*
G75*
G03*
X225363600Y-166708783I-1672335J-1078608D01*
G01*
X225882639Y-169024299D02*
G75*
G03*
X227964730Y-169024136I1040961J1080000D01*
G01*
%TO.C,R6*%
X211964536Y-161469400D02*
X212418664Y-161469400D01*
X211964536Y-162939400D02*
X212418664Y-162939400D01*
%TO.C,R24*%
X217270064Y-172058000D02*
X216815936Y-172058000D01*
X217270064Y-170588000D02*
X216815936Y-170588000D01*
D12*
%TO.C,S2*%
X209525800Y-159286600D02*
X204233000Y-159276800D01*
X209942200Y-154928800D02*
X209942200Y-157024000D01*
X204833000Y-152682600D02*
X209500400Y-152682600D01*
X203836200Y-154917800D02*
X203836200Y-157026000D01*
X203836200Y-154924400D02*
X203586200Y-154924400D01*
D11*
%TO.C,R10*%
X242190536Y-162990200D02*
X242644664Y-162990200D01*
X242190536Y-161520200D02*
X242644664Y-161520200D01*
%TO.C,C1*%
X185955000Y-117609252D02*
X185955000Y-117086748D01*
X187425000Y-117609252D02*
X187425000Y-117086748D01*
%TO.C,R34*%
X207541864Y-172083400D02*
X207087736Y-172083400D01*
X207541864Y-170613400D02*
X207087736Y-170613400D01*
%TO.C,D6*%
X205394200Y-168974000D02*
X205394200Y-169130000D01*
X205394200Y-166658000D02*
X205394200Y-166814000D01*
X205913239Y-168974000D02*
G75*
G03*
X207995330Y-168973837I1040961J1080000D01*
G01*
X208626535Y-166815392D02*
G75*
G03*
X205394200Y-166658484I-1672335J-1078608D01*
G01*
X205394200Y-169129516D02*
G75*
G03*
X208626535Y-168972608I1560000J1235516D01*
G01*
X207995330Y-166814163D02*
G75*
G03*
X205913239Y-166814000I-1041130J-1079837D01*
G01*
%TO.C,R16*%
X196114936Y-133504000D02*
X196569064Y-133504000D01*
X196114936Y-134974000D02*
X196569064Y-134974000D01*
%TO.C,R3*%
X201855336Y-161469400D02*
X202309464Y-161469400D01*
X201855336Y-162939400D02*
X202309464Y-162939400D01*
%TO.C,R21*%
X247242064Y-172058000D02*
X246787936Y-172058000D01*
X247242064Y-170588000D02*
X246787936Y-170588000D01*
%TO.C,R14*%
X181078200Y-117120936D02*
X181078200Y-117575064D01*
X182548200Y-117120936D02*
X182548200Y-117575064D01*
%TO.C,C25*%
X261466000Y-78097748D02*
X261466000Y-78620252D01*
X259996000Y-78097748D02*
X259996000Y-78620252D01*
%TO.C,R15*%
X196114936Y-132942000D02*
X196569064Y-132942000D01*
X196114936Y-131472000D02*
X196569064Y-131472000D01*
%TO.C,C22*%
X188587748Y-80999000D02*
X189110252Y-80999000D01*
X188587748Y-79529000D02*
X189110252Y-79529000D01*
%TO.C,C2*%
X236570820Y-89023748D02*
X236570820Y-89546252D01*
X238040820Y-89023748D02*
X238040820Y-89546252D01*
%TO.C,C8*%
X197229400Y-105976052D02*
X197229400Y-105453548D01*
X195759400Y-105976052D02*
X195759400Y-105453548D01*
%TO.C,D5*%
X255432200Y-166658000D02*
X255432200Y-166814000D01*
X255432200Y-168974000D02*
X255432200Y-169130000D01*
X258664535Y-166815392D02*
G75*
G03*
X255432200Y-166658484I-1672335J-1078608D01*
G01*
X255951239Y-168974000D02*
G75*
G03*
X258033330Y-168973837I1040961J1080000D01*
G01*
X255432200Y-169129516D02*
G75*
G03*
X258664535Y-168972608I1560000J1235516D01*
G01*
X258033330Y-166814163D02*
G75*
G03*
X255951239Y-166814000I-1041130J-1079837D01*
G01*
%TO.C,C24*%
X280008000Y-77589748D02*
X280008000Y-78112252D01*
X278538000Y-77589748D02*
X278538000Y-78112252D01*
%TD*%
M02*
